<svg width="279" height="854" viewBox="0 0 279 854" fill="none" xmlns="http://www.w3.org/2000/svg">
<path d="M5.605 8.14V19.045L4.045 19.03V9.79L2.23 10.735L1.57 9.43L4.06 8.14H5.605ZM15.6155 8.065V9.415H9.60051V12.895H14.6405V14.245H9.60051V19.105H8.04051V8.065H15.6155ZM17.7801 17.5C18.3801 17.5 18.6951 17.905 18.6951 18.415C18.6951 18.94 18.3801 19.345 17.7801 19.345C17.1801 19.345 16.8501 18.94 16.8501 18.415C16.8501 17.905 17.1801 17.5 17.7801 17.5Z" fill="black"/>
<path d="M234.21 210.22H277.05V203.31H234.21V210.22Z" stroke="black" stroke-width="0.23" stroke-linecap="round" stroke-linejoin="round"/>
<path d="M234.21 182.44V189.35H277.05" stroke="black" stroke-width="0.23" stroke-linecap="round" stroke-linejoin="round"/>
<path d="M234.21 196.33H277.05V189.35H234.21V196.33Z" stroke="black" stroke-width="0.23" stroke-linecap="round" stroke-linejoin="round"/>
<path d="M234.21 203.31H277.05V196.33H234.21V203.31Z" stroke="black" stroke-width="0.23" stroke-linecap="round" stroke-linejoin="round"/>
<path d="M277.05 210.22H234.21V217.2" stroke="black" stroke-width="0.23" stroke-linecap="round" stroke-linejoin="round"/>
<path d="M277.13 217.2H234.21H277.05" stroke="black" stroke-width="0.23" stroke-linecap="round" stroke-linejoin="round"/>
<path d="M222.29 284.59L244.18 274.39L277.05 239.09" stroke="black" stroke-width="0.23" stroke-linecap="round" stroke-linejoin="round"/>
<path d="M244.18 274.39H250.46L277.05 245.91" stroke="black" stroke-width="0.23" stroke-linecap="round" stroke-linejoin="round"/>
<path d="M205.97 232.34L222.29 284.59" stroke="black" stroke-width="0.23" stroke-linecap="round" stroke-linejoin="round"/>
<path d="M213.35 230.93L244.18 274.39" stroke="black" stroke-width="0.23" stroke-linecap="round" stroke-linejoin="round"/>
<path d="M217.9 229.36L253.59 264.19" stroke="black" stroke-width="0.23" stroke-linecap="round" stroke-linejoin="round"/>
<path d="M222.45 227.08L262.62 254.54" stroke="black" stroke-width="0.23" stroke-linecap="round" stroke-linejoin="round"/>
<path d="M227.15 223.95L272.11 244.34" stroke="black" stroke-width="0.23" stroke-linecap="round" stroke-linejoin="round"/>
<path d="M234.21 217.2L231.94 219.71L277.05 231.24" stroke="black" stroke-width="0.23" stroke-linecap="round" stroke-linejoin="round"/>
<path d="M231.94 219.71L227.15 223.95L222.45 227.08L217.9 229.36L213.35 230.93L205.97 232.34" stroke="black" stroke-width="0.23" stroke-linecap="round" stroke-linejoin="round"/>
<path d="M277.05 182.44H234.21H259.01V176.16H234.21V182.44" stroke="black" stroke-width="0.23" stroke-linecap="round" stroke-linejoin="round"/>
<path d="M234.21 176.16H259.01V169.89H234.21V176.16Z" stroke="black" stroke-width="0.23" stroke-linecap="round" stroke-linejoin="round"/>
<path d="M234.21 169.89H259.01V163.69H234.21V169.89Z" stroke="black" stroke-width="0.23" stroke-linecap="round" stroke-linejoin="round"/>
<path d="M234.21 163.69H259.01V157.41H234.21V163.69Z" stroke="black" stroke-width="0.23" stroke-linecap="round" stroke-linejoin="round"/>
<path d="M234.21 157.41H259.01V151.14H234.21V157.41Z" stroke="black" stroke-width="0.23" stroke-linecap="round" stroke-linejoin="round"/>
<path d="M234.21 151.14H259.01V144.94H234.21V151.14Z" stroke="black" stroke-width="0.23" stroke-linecap="round" stroke-linejoin="round"/>
<path d="M199.68 328.9V316.32H201.26V328.9H199.68Z" fill="black"/>
<path d="M203.66 328.9V316.32H205.33L211.07 325.07L211.98 326.69H212.02V316.32H213.5V328.9H211.88L206.11 320.13L205.18 318.56H205.14V328.89H203.66V328.9Z" fill="black"/>
<path d="M84.87 128.09C84.91 127.35 85.03 126.7 85.25 126.14C85.47 125.58 85.84 125.06 86.36 124.59C86.88 124.12 87.29 123.78 87.59 123.58C87.89 123.37 88.41 123.05 89.17 122.62C89.19 122.6 89.21 122.58 89.22 122.58C89.23 122.58 89.25 122.56 89.27 122.55C89.29 122.55 89.31 122.53 89.33 122.52C89.35 122.51 89.37 122.5 89.39 122.48C90.32 121.94 90.97 121.47 91.36 121.08C91.75 120.69 91.94 120.16 91.94 119.49C91.94 118.75 91.7 118.15 91.23 117.7C90.75 117.24 90.12 117.01 89.32 117.01C88.52 117.01 87.87 117.26 87.4 117.77C86.94 118.26 86.71 119.07 86.71 120.18H85.16C85.16 118.76 85.54 117.67 86.3 116.91C87.06 116.16 88.11 115.78 89.43 115.78C90.64 115.78 91.61 116.13 92.35 116.82C93.09 117.51 93.46 118.4 93.46 119.48C93.46 119.91 93.39 120.31 93.26 120.68C93.13 121.05 93 121.34 92.86 121.56C92.72 121.78 92.46 122.04 92.09 122.33C91.71 122.62 91.44 122.81 91.25 122.92C91.06 123.03 90.71 123.22 90.19 123.52C90.08 123.58 90 123.63 89.94 123.66C89.38 123.98 88.91 124.25 88.54 124.49C88.17 124.73 87.79 125.05 87.39 125.47C86.99 125.89 86.74 126.3 86.63 126.71H93.21V128.12H84.85L84.87 128.09Z" fill="black"/>
<path d="M98.95 128.34C97.7 128.34 96.65 127.99 95.83 127.3C95 126.61 94.57 125.7 94.52 124.59H95.98C96.08 125.35 96.38 125.95 96.9 126.38C97.42 126.81 98.1 127.03 98.94 127.03C99.78 127.03 100.48 126.76 101 126.23C101.52 125.7 101.77 124.99 101.77 124.11C101.77 123.23 101.5 122.53 100.97 122.02C100.44 121.51 99.76 121.24 98.94 121.24C97.72 121.24 96.82 121.66 96.23 122.49H94.8L96.14 116.01H102.56V117.33H97.17L96.38 120.95H96.42C97.13 120.27 98.06 119.93 99.18 119.93C100.3 119.93 101.27 120.31 102.08 121.07C102.88 121.83 103.29 122.85 103.29 124.13C103.29 125.41 102.89 126.41 102.08 127.17C101.27 127.93 100.23 128.31 98.96 128.31L98.95 128.34Z" fill="black"/>
<path d="M110.94 128.33C109.98 128.33 109.14 128.02 108.41 127.39C107.69 126.76 107.33 125.96 107.33 124.97C107.33 124.11 107.55 123.41 108.01 122.86C108.46 122.31 109.14 121.75 110.06 121.19L109.71 120.73C109.07 119.9 108.74 119.03 108.74 118.14C108.74 117.42 109 116.83 109.52 116.35C110.04 115.87 110.68 115.63 111.45 115.63C112.22 115.63 112.84 115.86 113.38 116.32C113.91 116.78 114.18 117.42 114.18 118.26C114.18 118.95 113.98 119.53 113.58 119.99C113.18 120.45 112.61 120.93 111.87 121.41L114.37 124.6C114.65 123.87 114.79 123.1 114.79 122.28H116.02C116.02 123.52 115.75 124.66 115.21 125.68L117.11 128.11H115.4L114.41 126.84C113.48 127.85 112.32 128.35 110.93 128.35L110.94 128.33ZM111.03 127.08C112.06 127.08 112.94 126.66 113.65 125.81L110.76 122.1C110.09 122.55 109.59 122.98 109.25 123.39C108.92 123.81 108.75 124.33 108.75 124.96C108.75 125.59 108.97 126.08 109.41 126.47C109.85 126.87 110.39 127.07 111.02 127.07L111.03 127.08ZM110.08 118.16C110.08 118.77 110.34 119.41 110.86 120.08L111.19 120.52C111.75 120.16 112.16 119.8 112.42 119.45C112.68 119.1 112.81 118.69 112.81 118.22C112.81 117.79 112.69 117.44 112.44 117.19C112.19 116.94 111.86 116.81 111.45 116.81C111.04 116.81 110.71 116.94 110.46 117.19C110.21 117.44 110.08 117.77 110.08 118.17V118.16Z" fill="black"/>
<path d="M124.61 128.34C123.36 128.34 122.31 127.99 121.49 127.3C120.66 126.61 120.23 125.7 120.18 124.59H121.64C121.74 125.35 122.04 125.95 122.56 126.38C123.08 126.81 123.76 127.03 124.6 127.03C125.44 127.03 126.14 126.76 126.66 126.23C127.18 125.7 127.43 124.99 127.43 124.11C127.43 123.23 127.16 122.53 126.63 122.02C126.1 121.51 125.42 121.24 124.6 121.24C123.38 121.24 122.48 121.66 121.89 122.49H120.46L121.8 116.01H128.22V117.33H122.83L122.04 120.95H122.08C122.79 120.27 123.72 119.93 124.84 119.93C125.96 119.93 126.93 120.31 127.74 121.07C128.54 121.83 128.95 122.85 128.95 124.13C128.95 125.41 128.55 126.41 127.74 127.17C126.93 127.93 125.89 128.31 124.62 128.31L124.61 128.34Z" fill="black"/>
<path d="M134.96 128.35C133.49 128.35 132.34 127.78 131.52 126.65C130.69 125.52 130.28 123.98 130.28 122.05C130.28 120.12 130.71 118.57 131.56 117.44C132.41 116.32 133.55 115.75 134.98 115.75C136.41 115.75 137.55 116.31 138.38 117.43C139.22 118.55 139.64 120.09 139.64 122.05C139.64 124.01 139.23 125.53 138.42 126.66C137.61 127.79 136.45 128.35 134.96 128.35ZM132.61 125.74C133.14 126.63 133.93 127.07 134.98 127.07C136.03 127.07 136.81 126.63 137.33 125.76C137.85 124.89 138.11 123.65 138.11 122.05C138.11 120.45 137.84 119.25 137.31 118.35C136.77 117.46 136 117.01 134.98 117.01C133.96 117.01 133.15 117.45 132.61 118.33C132.07 119.21 131.81 120.45 131.81 122.04C131.81 123.63 132.08 124.84 132.61 125.73V125.74Z" fill="black"/>
<path d="M19.87 328.9V316.32H25.75C26.85 316.32 27.75 316.64 28.43 317.27C29.12 317.9 29.46 318.74 29.46 319.77C29.46 321.38 28.73 322.42 27.28 322.89V322.94C27.9 323.16 28.34 323.51 28.61 323.99C28.88 324.47 29.04 325.18 29.09 326.15C29.21 327.76 29.4 328.66 29.67 328.84V328.91H27.96C27.83 328.8 27.74 328.58 27.69 328.24C27.64 327.9 27.58 327.19 27.51 326.09C27.45 325.18 27.22 324.53 26.83 324.15C26.44 323.77 25.81 323.59 24.95 323.59H21.45V328.91H19.87V328.9ZM21.45 317.69V322.3H25.18C26.05 322.3 26.71 322.1 27.15 321.69C27.6 321.28 27.82 320.72 27.82 319.99C27.82 319.2 27.62 318.62 27.22 318.25C26.82 317.87 26.17 317.69 25.26 317.69H21.44H21.45Z" fill="black"/>
<path d="M31.38 328.9V316.32H40.27V317.71H32.97V321.69H39.6V323.03H32.97V327.45H40.49V328.91H31.39L31.38 328.9Z" fill="black"/>
<path d="M47.75 329.16C45.98 329.16 44.55 328.55 43.47 327.33C42.39 326.11 41.85 324.54 41.85 322.61C41.85 320.68 42.39 319.14 43.46 317.9C44.53 316.66 45.99 316.04 47.82 316.04C49.25 316.04 50.41 316.41 51.29 317.15C52.17 317.89 52.7 318.86 52.87 320.05H51.32C51.17 319.25 50.78 318.61 50.17 318.13C49.55 317.65 48.76 317.41 47.79 317.41C46.44 317.41 45.39 317.89 44.62 318.86C43.86 319.83 43.48 321.07 43.48 322.6C43.48 324.13 43.88 325.39 44.67 326.34C45.46 327.28 46.51 327.76 47.81 327.76C48.94 327.76 49.81 327.43 50.43 326.78C51.05 326.12 51.39 325.3 51.48 324.3H53.05C53.04 324.92 52.89 325.56 52.62 326.21C52.34 326.86 51.98 327.4 51.54 327.84C50.64 328.72 49.38 329.16 47.77 329.16H47.75Z" fill="black"/>
<path d="M54.8101 328.9V316.32H63.7001V317.71H56.4001V321.69H63.0301V323.03H56.4001V327.45H63.9201V328.91H54.8201L54.8101 328.9Z" fill="black"/>
<path d="M65.76 328.9V316.32H71C72.31 316.32 73.31 316.72 73.99 317.53C74.55 318.19 74.84 318.99 74.84 319.92C74.84 321.09 74.5 322 73.82 322.65C73.14 323.29 72.12 323.62 70.78 323.62H67.35V328.9H65.77H65.76ZM67.34 317.69V322.34H70.65C71.52 322.34 72.17 322.13 72.61 321.72C73.05 321.31 73.27 320.74 73.27 320C73.27 319.26 73.05 318.68 72.61 318.29C72.17 317.9 71.55 317.7 70.73 317.7H67.33L67.34 317.69Z" fill="black"/>
<path d="M75.58 317.71V316.32H85.54V317.71H81.35V328.9H79.77V317.71H75.58Z" fill="black"/>
<path d="M87.14 328.9V316.32H88.72V328.9H87.14Z" fill="black"/>
<path d="M101.28 327.33C100.16 328.56 98.67 329.18 96.8 329.18C94.93 329.18 93.44 328.56 92.32 327.33C91.2 326.1 90.64 324.53 90.64 322.61C90.64 320.69 91.2 319.13 92.32 317.89C93.44 316.66 94.93 316.04 96.8 316.04C98.67 316.04 100.16 316.66 101.28 317.89C102.4 319.12 102.96 320.69 102.96 322.61C102.96 324.53 102.4 326.09 101.28 327.33ZM93.46 326.34C94.26 327.3 95.37 327.78 96.81 327.78C98.25 327.78 99.35 327.3 100.15 326.34C100.95 325.38 101.35 324.13 101.35 322.61C101.35 321.09 100.95 319.84 100.15 318.87C99.35 317.9 98.24 317.42 96.81 317.42C95.38 317.42 94.26 317.9 93.46 318.87C92.66 319.84 92.26 321.08 92.26 322.61C92.26 324.14 92.66 325.38 93.46 326.34Z" fill="black"/>
<path d="M104.85 328.9V316.32H106.52L112.26 325.07L113.17 326.69H113.21V316.32H114.69V328.9H113.07L107.3 320.13L106.37 318.56H106.33V328.89H104.85V328.9Z" fill="black"/>
<path d="M1 420.13V217.2H140.18V361.72" stroke="#231815" stroke-width="2" stroke-miterlimit="10" stroke-linecap="square"/>
<path d="M1 217.2V34H234.21V217.2H206.36" stroke="#231815" stroke-width="2" stroke-miterlimit="10" stroke-linecap="square"/>
<path d="M259.03 144.01V182.44H277.07V414.05H231.92" stroke="#231815" stroke-width="2" stroke-miterlimit="10" stroke-linecap="square"/>
<path d="M138.34 390.82V420.13H45.21" stroke="#231815" stroke-width="2" stroke-miterlimit="10" stroke-linecap="square"/>
<path d="M110.1 374.57H162.48" stroke="black" stroke-miterlimit="10"/>
<path d="M159.17 378.66L158.48 377.92L162.1 374.57L158.48 371.21L159.17 370.48L163.56 374.57L159.17 378.66Z" fill="black"/>
<path d="M172.18 248.48V196.1" stroke="black" stroke-miterlimit="10"/>
<path d="M176.27 199.41L175.54 200.09L172.18 196.48L168.82 200.09L168.09 199.41L172.18 195.01L176.27 199.41Z" fill="black"/>
<path d="M1.9 493.81C4.075 491.71 7.09 489.55 7.09 487.69C7.09 486.325 6.22 485.575 5.185 485.575C4.465 485.575 3.565 485.935 3.055 487.09L1.69 486.475C2.515 484.615 4.18 484.15 5.185 484.15C6.85 484.15 8.65 485.44 8.65 487.69C8.65 490 6.175 492.055 4.15 493.81H8.815V495.175H1.9V493.81ZM18.0911 484.195V485.545H12.0761V489.025H17.1161V490.375H12.0761V495.235H10.5161V484.195H18.0911ZM20.2557 493.63C20.8557 493.63 21.1707 494.035 21.1707 494.545C21.1707 495.07 20.8557 495.475 20.2557 495.475C19.6557 495.475 19.3257 495.07 19.3257 494.545C19.3257 494.035 19.6557 493.63 20.2557 493.63Z" fill="black"/>
<path d="M255.85 674.66V602.63" stroke="black" stroke-miterlimit="10"/>
<path d="M259.94 605.95L259.21 606.63L255.85 603.02L252.5 606.63L251.76 605.95L255.85 601.55L259.94 605.95Z" fill="black"/>
<path d="M102.98 700.42V667.94H240.67V609.43" stroke="#231815" stroke-width="2" stroke-miterlimit="10" stroke-linecap="square"/>
<path d="M269.95 668.25V576.2H187.27V510.13H1V700.42H67.59" stroke="#231815" stroke-width="2" stroke-miterlimit="10" stroke-linecap="square"/>
<path d="M241.75 668.25H269.95V662.01H241.75V668.25Z" stroke="black" stroke-width="0.23" stroke-linecap="round" stroke-linejoin="round"/>
<path d="M241.75 662.011H269.95V655.771H241.75V662.011Z" stroke="black" stroke-width="0.23" stroke-linecap="round" stroke-linejoin="round"/>
<path d="M241.75 655.77H269.95V649.54H241.75V655.77Z" stroke="black" stroke-width="0.23" stroke-linecap="round" stroke-linejoin="round"/>
<path d="M241.75 649.54H269.95V643.22H241.75V649.54Z" stroke="black" stroke-width="0.23" stroke-linecap="round" stroke-linejoin="round"/>
<path d="M241.75 643.22H269.95V636.98H241.75V643.22Z" stroke="black" stroke-width="0.23" stroke-linecap="round" stroke-linejoin="round"/>
<path d="M241.75 636.98H269.95V630.74H241.75V636.98Z" stroke="black" stroke-width="0.23" stroke-linecap="round" stroke-linejoin="round"/>
<path d="M241.75 630.74H269.95V624.51H241.75V630.74Z" stroke="black" stroke-width="0.23" stroke-linecap="round" stroke-linejoin="round"/>
<path d="M241.75 624.511H269.95V618.271H241.75V624.511Z" stroke="black" stroke-width="0.23" stroke-linecap="round" stroke-linejoin="round"/>
<path d="M241.75 618.27H269.95V611.95H241.75V618.27Z" stroke="black" stroke-width="0.23" stroke-linecap="round" stroke-linejoin="round"/>
<path d="M108.29 603.29L103.91 590.71H105.62L108.72 600.07L109.21 601.76H109.25C109.45 601.01 109.61 600.45 109.74 600.07L112.8 590.71H114.45L110.03 603.29H108.29Z" fill="black"/>
<path d="M114.8 603.29L119.43 590.71H121.21L125.86 603.29H124.14L122.8 599.45H117.78L116.42 603.29H114.8ZM119.73 593.94L118.23 598.16H122.35L120.91 593.94L120.35 592.16H120.31C120.09 592.86 119.89 593.46 119.73 593.94Z" fill="black"/>
<path d="M12.02 781.559V768.979H17.9C19 768.979 19.9 769.3 20.58 769.93C21.27 770.56 21.61 771.4 21.61 772.43C21.61 774.04 20.88 775.079 19.43 775.549V775.599C20.05 775.819 20.49 776.169 20.76 776.649C21.03 777.129 21.19 777.839 21.24 778.809C21.36 780.419 21.55 781.319 21.82 781.499V781.569H20.11C19.98 781.459 19.89 781.239 19.84 780.899C19.79 780.559 19.73 779.849 19.66 778.749C19.6 777.839 19.37 777.189 18.98 776.809C18.59 776.429 17.96 776.249 17.1 776.249H13.6V781.569H12.02V781.559ZM13.6 770.349V774.96H17.33C18.2 774.96 18.86 774.759 19.3 774.349C19.75 773.939 19.97 773.379 19.97 772.649C19.97 771.859 19.77 771.279 19.37 770.909C18.97 770.529 18.32 770.349 17.41 770.349H13.59H13.6Z" fill="black"/>
<path d="M23.53 781.559V768.979H32.42V770.369H25.12V774.349H31.75V775.689H25.12V780.109H32.64V781.569H23.54L23.53 781.559Z" fill="black"/>
<path d="M39.0601 781.829C37.3701 781.829 36.0701 781.409 35.1601 780.579C34.2501 779.749 33.7601 778.659 33.6901 777.319H35.2401C35.4501 779.479 36.7501 780.559 39.1301 780.559C40.0301 780.559 40.7601 780.359 41.3001 779.949C41.8401 779.549 42.1201 778.959 42.1201 778.199C42.1201 777.859 42.0601 777.559 41.9301 777.299C41.8001 777.039 41.6401 776.829 41.4601 776.669C41.2801 776.509 41.0001 776.35 40.6401 776.21C40.2801 776.07 39.9401 775.959 39.6301 775.869C39.3201 775.789 38.8901 775.689 38.3501 775.569C37.7101 775.429 37.1701 775.289 36.7501 775.139C36.3301 774.989 35.9101 774.789 35.4801 774.529C35.0601 774.269 34.7401 773.939 34.5401 773.529C34.3301 773.129 34.2301 772.639 34.2301 772.059C34.2301 771.029 34.6201 770.209 35.4001 769.619C36.1801 769.029 37.2201 768.729 38.5101 768.729C41.3401 768.729 42.9301 770.039 43.2801 772.649H41.7801C41.6601 771.759 41.3301 771.089 40.7801 770.639C40.2301 770.189 39.4801 769.96 38.5501 769.96C37.6801 769.96 36.9901 770.14 36.4801 770.49C35.9701 770.84 35.7101 771.34 35.7101 771.99C35.7101 772.27 35.7601 772.52 35.8801 772.74C36.0001 772.96 36.1401 773.139 36.3201 773.279C36.5001 773.429 36.7401 773.56 37.0401 773.68C37.3401 773.8 37.6401 773.889 37.9301 773.969C38.2201 774.049 38.5801 774.12 39.0001 774.21C39.5901 774.33 40.0701 774.439 40.4401 774.539C40.8201 774.639 41.2301 774.79 41.6901 774.99C42.1501 775.19 42.5001 775.42 42.7601 775.68C43.0101 775.94 43.2301 776.279 43.4101 776.689C43.5901 777.109 43.6801 777.589 43.6801 778.139C43.6801 779.289 43.2501 780.189 42.4001 780.839C41.5501 781.489 40.4301 781.819 39.0501 781.819L39.0601 781.829Z" fill="black"/>
<path d="M44.71 770.369V768.979H54.67V770.369H50.48V781.559H48.9V770.369H44.71Z" fill="black"/>
<path d="M56.27 781.559V768.979H57.85V781.559H56.27Z" fill="black"/>
<path d="M60.25 781.559V768.979H61.92L67.66 777.729L68.57 779.349H68.61V768.979H70.09V781.559H68.47L62.7 772.789L61.77 771.219H61.73V781.549H60.25V781.559Z" fill="black"/>
<path d="M82.3 781.58L81.84 779.93H81.81C80.89 781.21 79.59 781.85 77.88 781.85C76.17 781.85 74.69 781.25 73.6 780.04C72.51 778.83 71.96 777.26 71.96 775.34C71.96 773.42 72.49 771.83 73.55 770.6C74.61 769.36 76.1 768.74 78.01 768.74C79.44 768.74 80.6 769.1 81.49 769.82C82.37 770.54 82.92 771.53 83.13 772.78H81.49C81.31 771.92 80.93 771.26 80.33 770.8C79.73 770.34 78.95 770.1 77.97 770.1C76.51 770.1 75.42 770.58 74.68 771.54C73.94 772.5 73.57 773.76 73.57 775.32C73.57 776.88 73.97 778.1 74.78 779.04C75.59 779.99 76.63 780.46 77.91 780.46C79.19 780.46 80.08 780.1 80.73 779.37C81.38 778.64 81.71 777.72 81.71 776.59V776.29H77.93V774.92H83.3V781.57H82.28L82.3 781.58Z" fill="black"/>
<path d="M87.65 781.559V780.049L95.18 770.369V770.319H88.09V768.979H97.14V770.21L89.5 780.079V780.129H97.44V781.559H87.65Z" fill="black"/>
<path d="M109.41 780C108.29 781.23 106.8 781.85 104.93 781.85C103.06 781.85 101.57 781.23 100.45 780C99.33 778.77 98.77 777.2 98.77 775.28C98.77 773.36 99.33 771.8 100.45 770.56C101.57 769.33 103.06 768.71 104.93 768.71C106.8 768.71 108.29 769.33 109.41 770.56C110.53 771.79 111.09 773.36 111.09 775.28C111.09 777.2 110.53 778.76 109.41 780ZM101.59 779.01C102.39 779.97 103.5 780.45 104.94 780.45C106.38 780.45 107.48 779.97 108.28 779.01C109.08 778.05 109.48 776.8 109.48 775.28C109.48 773.76 109.08 772.51 108.28 771.54C107.48 770.57 106.37 770.09 104.94 770.09C103.51 770.09 102.39 770.57 101.59 771.54C100.79 772.51 100.39 773.75 100.39 775.28C100.39 776.81 100.79 778.05 101.59 779.01Z" fill="black"/>
<path d="M112.98 781.559V768.979H114.65L120.39 777.729L121.3 779.349H121.34V768.979H122.82V781.559H121.2L115.43 772.789L114.5 771.219H114.46V781.549H112.98V781.559Z" fill="black"/>
<path d="M125.17 781.559V768.979H134.06V770.369H126.76V774.349H133.39V775.689H126.76V780.109H134.27V781.569H125.17V781.559Z" fill="black"/>
<path d="M1 700.42V852.55H144.79V700.42H102.98" stroke="#231815" stroke-width="2" stroke-miterlimit="10"/>
</svg>
