<svg width="63" height="48" viewBox="0 0 63 48" fill="none" xmlns="http://www.w3.org/2000/svg">
<g id="logotype_web_short">
<path id="Vector" d="M1.82791e-05 7.55205C-0.00108849 7.29844 0.048075 7.04713 0.144667 6.81263C0.24126 6.57813 0.383366 6.3651 0.562775 6.18585C0.742183 6.00659 0.955337 5.86467 1.18992 5.76828C1.4245 5.67189 1.67586 5.62295 1.92946 5.62428C2.35194 5.62604 2.77059 5.54414 3.16125 5.3833C3.55192 5.22246 3.90687 4.98585 4.20564 4.68714C4.5044 4.38843 4.74107 4.03351 4.90198 3.64288C5.06289 3.25224 5.14486 2.83361 5.14317 2.41113C5.14306 2.02969 5.25607 1.65679 5.46792 1.3396C5.67976 1.0224 5.98092 0.775152 6.3333 0.629132C6.68568 0.483112 7.07345 0.444877 7.44756 0.519265C7.82167 0.593652 8.16532 0.777319 8.43504 1.04704C8.70475 1.31675 8.88842 1.6604 8.96281 2.03451C9.03719 2.40862 8.99896 2.79639 8.85294 3.14877C8.70692 3.50115 8.45967 3.80231 8.14248 4.01415C7.82528 4.226 7.45238 4.33902 7.07094 4.33891C6.64849 4.33714 6.22987 4.41904 5.83924 4.57989C5.4486 4.74074 5.09369 4.97735 4.79496 5.27607C4.49624 5.57479 4.25963 5.92971 4.09878 6.32035C3.93793 6.71098 3.85603 7.1296 3.8578 7.55205V18.4774C3.85596 18.8999 3.9378 19.3186 4.09862 19.7093C4.25944 20.1 4.49604 20.455 4.79477 20.7538C5.09349 21.0525 5.44844 21.2892 5.83911 21.4501C6.22978 21.611 6.64844 21.6929 7.07094 21.6911C7.45222 21.6911 7.82494 21.8042 8.14196 22.016C8.45898 22.2278 8.70607 22.5289 8.85198 22.8812C8.99788 23.2334 9.03606 23.621 8.96168 23.995C8.88729 24.3689 8.70369 24.7124 8.43409 24.982C8.16448 25.2516 7.82098 25.4352 7.44703 25.5096C7.07308 25.584 6.68547 25.5458 6.33321 25.3999C5.98096 25.254 5.67988 25.0069 5.46805 24.6899C5.25623 24.3729 5.14317 24.0002 5.14317 23.6189C5.14494 23.1964 5.06301 22.7777 4.90213 22.3871C4.74124 21.9964 4.50458 21.6414 4.2058 21.3427C3.90702 21.044 3.55204 20.8074 3.16134 20.6466C2.77064 20.4858 2.35196 20.4039 1.92946 20.4058C1.67597 20.4068 1.42478 20.3576 1.19039 20.2611C0.955998 20.1645 0.743047 20.0225 0.563824 19.8432C0.3846 19.6639 0.242653 19.451 0.146171 19.2165C0.0496892 18.9821 0.000583667 18.7309 0.00168825 18.4774L1.82791e-05 7.55205ZM1.92946 37.7574C2.18299 37.7564 2.4342 37.8055 2.66862 37.9021C2.90304 37.9986 3.11603 38.1406 3.2953 38.3199C3.47457 38.4992 3.61657 38.7122 3.71311 38.9466C3.80965 39.181 3.85883 39.4322 3.8578 39.6857C3.85603 40.1082 3.93793 40.5268 4.09878 40.9174C4.25963 41.3081 4.49624 41.663 4.79496 41.9617C5.09369 42.2604 5.4486 42.497 5.83924 42.6579C6.22987 42.8187 6.64849 42.9007 7.07094 42.8989C7.45238 42.8988 7.82528 43.0118 8.14248 43.2236C8.45967 43.4355 8.70692 43.7366 8.85294 44.089C8.99896 44.4414 9.03719 44.8292 8.96281 45.2033C8.88842 45.5774 8.70475 45.921 8.43504 46.1908C8.16532 46.4605 7.82167 46.6441 7.44756 46.7185C7.07345 46.7929 6.68568 46.7547 6.3333 46.6087C5.98092 46.4626 5.67976 46.2154 5.46792 45.8982C5.25607 45.581 5.14306 45.2081 5.14317 44.8267C5.14494 44.4042 5.06301 43.9855 4.90213 43.5948C4.74124 43.2042 4.50458 42.8492 4.2058 42.5505C3.90702 42.2518 3.55204 42.0152 3.16134 41.8543C2.77064 41.6935 2.35196 41.6117 1.92946 41.6135C1.42379 41.6049 0.941725 41.398 0.587156 41.0374C0.232587 40.6767 0.0338941 40.1912 0.0338941 39.6855C0.0338941 39.1797 0.232587 38.6942 0.587156 38.3336C0.941725 37.9729 1.42379 37.766 1.92946 37.7574ZM13.4961 0.482797C13.8775 0.482797 14.2503 0.595892 14.5674 0.80778C14.8846 1.01967 15.1317 1.32083 15.2777 1.67319C15.4236 2.02554 15.4618 2.41327 15.3874 2.78733C15.313 3.16139 15.1293 3.50498 14.8597 3.77467C14.59 4.04435 14.2464 4.228 13.8723 4.30241C13.4983 4.37681 13.1105 4.33863 12.7582 4.19268C12.4058 4.04673 12.1047 3.79957 11.8928 3.48245C11.6809 3.16534 11.5678 2.79252 11.5678 2.41113C11.5667 2.15759 11.6158 1.90634 11.7123 1.67188C11.8088 1.43743 11.9508 1.22441 12.1301 1.04513C12.3094 0.865845 12.5224 0.723848 12.7569 0.627332C12.9913 0.530815 13.2426 0.481692 13.4961 0.482797ZM13.4961 21.6922C13.8774 21.6923 14.25 21.8055 14.567 22.0174C14.8839 22.2293 15.1309 22.5304 15.2768 22.8827C15.4226 23.2349 15.4607 23.6225 15.3862 23.9964C15.3118 24.3704 15.1281 24.7138 14.8585 24.9833C14.5889 25.2529 14.2454 25.4364 13.8715 25.5108C13.4975 25.5851 13.1099 25.5469 12.7577 25.401C12.4055 25.2551 12.1044 25.008 11.8926 24.691C11.6808 24.374 11.5678 24.0013 11.5678 23.62C11.5665 23.3664 11.6156 23.1151 11.712 22.8805C11.8085 22.6459 11.9505 22.4328 12.1298 22.2535C12.3091 22.0741 12.5221 21.9321 12.7567 21.8356C12.9912 21.739 13.2425 21.6899 13.4961 21.6911V21.6922ZM13.4961 42.9017C13.8775 42.9017 14.2504 43.0148 14.5675 43.2267C14.8846 43.4386 15.1318 43.7398 15.2777 44.0922C15.4237 44.4446 15.4618 44.8323 15.3874 45.2064C15.3129 45.5805 15.1292 45.9241 14.8595 46.1937C14.5897 46.4634 14.2461 46.647 13.872 46.7213C13.4979 46.7957 13.1101 46.7574 12.7578 46.6114C12.4054 46.4653 12.1043 46.2181 11.8925 45.9009C11.6807 45.5837 11.5677 45.2109 11.5678 44.8294C11.5663 44.5757 11.6152 44.3242 11.7115 44.0894C11.8079 43.8547 11.9498 43.6414 12.1292 43.4618C12.3085 43.2823 12.5216 43.1401 12.7563 43.0435C12.9909 42.9468 13.2424 42.8977 13.4961 42.8989V42.9017ZM19.923 0.482797C20.1765 0.481766 20.4277 0.530942 20.662 0.627491C20.8964 0.724041 21.1094 0.866051 21.2886 1.04533C21.4678 1.2246 21.6098 1.43759 21.7063 1.67201C21.8027 1.90643 21.8518 2.15763 21.8507 2.41113C21.849 2.83358 21.9309 3.2522 22.0917 3.64284C22.2526 4.03347 22.4892 4.38839 22.7879 4.68711C23.0866 4.98583 23.4415 5.22244 23.8322 5.38329C24.2228 5.54414 24.6414 5.62604 25.0639 5.62428C25.4454 5.62361 25.8186 5.73616 26.1362 5.94767C26.4537 6.15918 26.7014 6.46015 26.8479 6.81248C26.9943 7.16481 27.0329 7.55266 26.9589 7.92696C26.8848 8.30125 26.7014 8.64516 26.4318 8.91516C26.1621 9.18515 25.8185 9.3691 25.4443 9.44371C25.0701 9.51832 24.6822 9.48025 24.3297 9.33431C23.9771 9.18838 23.6758 8.94113 23.4638 8.62387C23.2519 8.30662 23.1388 7.93361 23.1389 7.55205C23.1407 7.1296 23.0588 6.71098 22.8979 6.32035C22.7371 5.92971 22.5005 5.57479 22.2017 5.27607C21.903 4.97735 21.5481 4.74074 21.1575 4.57989C20.7668 4.41904 20.3482 4.33714 19.9258 4.33891C19.6698 4.34326 19.4155 4.2966 19.1778 4.20166C18.9401 4.10672 18.7236 3.96539 18.5411 3.78592C18.3585 3.60646 18.2136 3.39244 18.1146 3.15635C18.0156 2.92027 17.9647 2.66684 17.9647 2.41085C17.9647 2.15486 18.0156 1.90143 18.1146 1.66535C18.2136 1.42926 18.3585 1.21525 18.5411 1.03578C18.7236 0.856311 18.9401 0.714987 19.1778 0.620045C19.4155 0.525104 19.6698 0.478448 19.9258 0.482797H19.923ZM23.1361 28.762C23.1379 28.3396 23.056 27.9209 22.8951 27.5303C22.7343 27.1396 22.4977 26.7846 22.199 26.4859C21.9003 26.1871 21.5454 25.9504 21.1547 25.7895C20.7641 25.6286 20.3454 25.5466 19.923 25.5483C19.5417 25.5483 19.169 25.4353 18.852 25.2235C18.5349 25.0116 18.2878 24.7106 18.1419 24.3583C17.996 24.006 17.9578 23.6184 18.0322 23.2445C18.1066 22.8705 18.2902 22.527 18.5598 22.2574C18.8294 21.9878 19.1729 21.8042 19.5469 21.7298C19.9208 21.6554 20.3084 21.6936 20.6607 21.8395C21.013 21.9854 21.314 22.2325 21.5259 22.5495C21.7377 22.8666 21.8507 23.2393 21.8507 23.6206C21.849 24.043 21.9309 24.4616 22.0917 24.8523C22.2526 25.2429 22.4892 25.5978 22.7879 25.8965C23.0866 26.1953 23.4415 26.4319 23.8322 26.5927C24.2228 26.7536 24.6414 26.8355 25.0639 26.8337C25.3174 26.8327 25.5686 26.8819 25.803 26.9784C26.0375 27.0749 26.2505 27.2169 26.4297 27.3962C26.609 27.5755 26.751 27.7885 26.8475 28.0229C26.9441 28.2573 26.9933 28.5085 26.9922 28.762V39.6874C26.9932 39.9409 26.944 40.192 26.8474 40.4264C26.7508 40.6608 26.6088 40.8737 26.4295 41.0529C26.2503 41.2321 26.0373 41.374 25.8029 41.4706C25.5685 41.5671 25.3174 41.6162 25.0639 41.6152C24.6414 41.6134 24.2228 41.6953 23.8322 41.8562C23.4415 42.017 23.0866 42.2536 22.7879 42.5523C22.4892 42.8511 22.2526 43.206 22.0917 43.5966C21.9309 43.9873 21.849 44.4059 21.8507 44.8283C21.8509 45.2098 21.7378 45.5827 21.526 45.8999C21.3141 46.2171 21.013 46.4643 20.6606 46.6103C20.3082 46.7563 19.9205 46.7946 19.5464 46.7202C19.1722 46.6458 18.8286 46.4621 18.5589 46.1924C18.2892 45.9227 18.1055 45.5791 18.0311 45.2049C17.9567 44.8308 17.995 44.4431 18.141 44.0907C18.287 43.7383 18.5342 43.4371 18.8514 43.2253C19.1686 43.0135 19.5415 42.9004 19.923 42.9006C20.3458 42.9026 20.7648 42.8209 21.1558 42.6601C21.5469 42.4992 21.9022 42.2625 22.2012 41.9636C22.5002 41.6647 22.737 41.3095 22.898 40.9185C23.0589 40.5275 23.1408 40.1085 23.1389 39.6857L23.1361 28.762Z" fill="#E4F40F"/>
<path id="Vector_2" d="M37.6949 38.7171C39.7341 39.2454 40.9376 40.4812 41.5143 42.4736C41.6034 42.2815 41.6713 42.1685 41.7092 42.0466C42.3349 40.0515 43.9297 38.731 46.0089 38.7065C50.1339 38.6548 54.2611 38.6431 58.3861 38.7065C60.9596 38.7477 62.8757 40.862 62.8395 43.4216C62.805 45.9662 60.8066 47.9808 58.2269 47.9864C51.11 48.0045 43.993 48.0045 36.8761 47.9864C34.2736 47.9802 32.3358 46.0536 32.2473 43.44C32.2172 42.5448 32.2373 41.6475 32.2373 40.7512C32.2373 28.8806 32.2349 17.0098 32.23 5.13885C32.23 3.67367 32.5563 2.35546 33.6524 1.33284C35.1225 -0.0376999 36.8488 -0.352223 38.6886 0.393726C40.47 1.11741 41.388 2.53749 41.5444 4.44634C41.5767 4.83602 41.5577 5.23293 41.5577 5.6265C41.5577 14.7649 41.5171 23.9034 41.5845 33.0407C41.6056 35.6509 40.7706 37.7446 37.6949 38.7171Z" fill="white"/>
</g>
</svg>
