<svg width="350" height="252" viewBox="0 0 350 252" fill="none" xmlns="http://www.w3.org/2000/svg">
<path d="M60.3515 89.0405C59.9363 89.0387 59.5248 89.1192 59.1409 89.2772C58.7569 89.4353 58.4081 89.6679 58.1145 89.9615C57.8209 90.2551 57.5883 90.6039 57.4303 90.9879C57.2722 91.3718 57.1917 91.7833 57.1935 92.1985V161.705C57.2203 162.525 57.565 163.303 58.1546 163.873C58.7442 164.444 59.5326 164.763 60.3532 164.763C61.1737 164.763 61.9622 164.444 62.5518 163.873C63.1414 163.303 63.4861 162.525 63.5129 161.705V92.1985C63.5147 91.783 63.4341 91.3713 63.2758 90.9871C63.1175 90.6029 62.8847 90.2539 62.5907 89.9603C62.2968 89.6666 61.9475 89.4341 61.5632 89.2763C61.1788 89.1184 60.767 89.0383 60.3515 89.0405Z" fill="#0F1012"/>
<path d="M180.758 130.112C182.502 130.112 183.916 128.698 183.916 126.954C183.916 125.21 182.502 123.796 180.758 123.796C179.014 123.796 177.6 125.21 177.6 126.954C177.6 128.698 179.014 130.112 180.758 130.112Z" fill="#0F1012"/>
<path d="M191.29 89.0405C190.874 89.0387 190.463 89.1192 190.079 89.2772C189.694 89.4352 189.345 89.6677 189.051 89.9613C188.758 90.2548 188.525 90.6036 188.366 90.9876C188.208 91.3716 188.127 91.7831 188.128 92.1985V161.705C188.155 162.525 188.5 163.302 189.089 163.873C189.679 164.444 190.467 164.763 191.288 164.763C192.109 164.763 192.897 164.444 193.487 163.873C194.076 163.302 194.421 162.525 194.448 161.705V92.1985C194.449 91.7833 194.369 91.3718 194.211 90.9879C194.053 90.6039 193.82 90.2551 193.527 89.9615C193.233 89.6679 192.884 89.4353 192.5 89.2772C192.116 89.1192 191.705 89.0387 191.29 89.0405Z" fill="#0F1012"/>
<path d="M159.696 130.112C161.44 130.112 162.854 128.698 162.854 126.954C162.854 125.21 161.44 123.796 159.696 123.796C157.952 123.796 156.538 125.21 156.538 126.954C156.538 128.698 157.952 130.112 159.696 130.112Z" fill="#0F1012"/>
<path d="M149.162 89.0405C148.747 89.0387 148.336 89.1192 147.952 89.2772C147.568 89.4353 147.219 89.6679 146.925 89.9615C146.632 90.2551 146.399 90.6039 146.241 90.9879C146.083 91.3718 146.003 91.7833 146.004 92.1985V161.705C146.031 162.525 146.376 163.302 146.965 163.873C147.555 164.444 148.343 164.763 149.164 164.763C149.985 164.763 150.773 164.444 151.363 163.873C151.952 163.302 152.297 162.525 152.324 161.705V92.1985C152.325 91.7831 152.244 91.3716 152.086 90.9876C151.927 90.6036 151.694 90.2548 151.401 89.9613C151.107 89.6677 150.758 89.4352 150.373 89.2772C149.989 89.1192 149.578 89.0387 149.162 89.0405Z" fill="#0F1012"/>
<path d="M170.228 130.112C171.972 130.112 173.386 128.698 173.386 126.954C173.386 125.21 171.972 123.796 170.228 123.796C168.484 123.796 167.07 125.21 167.07 126.954C167.07 128.698 168.484 130.112 170.228 130.112Z" fill="#0F1012"/>
<path d="M9.02075 150.195C12.243 151.03 14.1432 152.985 15.0561 156.129C15.1706 155.909 15.2733 155.684 15.3638 155.453C16.3511 152.302 18.87 150.216 22.1565 150.175C28.672 150.09 35.1909 150.074 41.7063 150.175C45.7637 150.239 48.8068 153.58 48.7459 157.614C48.7433 158.566 48.5525 159.509 48.1845 160.388C47.8165 161.267 47.2785 162.064 46.6015 162.735C45.9245 163.405 45.1218 163.935 44.2394 164.295C43.357 164.654 42.4123 164.836 41.4595 164.829C30.2183 164.858 18.976 164.858 7.73253 164.829C3.62105 164.829 0.561106 161.786 0.429241 157.661C0.381905 156.248 0.429241 154.831 0.429241 153.414C0.429241 134.662 0.429241 115.91 0.429241 97.1585C0.429241 94.8425 0.943177 92.7631 2.67771 91.1469C5.00056 88.9795 7.72577 88.4825 10.6302 89.6625C13.4433 90.802 14.8972 93.0437 15.144 96.0631C15.1947 96.6818 15.1643 97.3073 15.1643 97.9295C15.1643 112.364 15.1001 126.798 15.2049 141.235C15.1981 145.354 13.8795 148.66 9.02075 150.195Z" fill="#0F1012"/>
<path d="M115.977 122.608C118.716 118.835 124.237 119.038 126.587 122.696C127.167 123.687 127.539 124.786 127.679 125.925C127.943 127.667 128.389 128.238 130.178 128.424C133.985 128.82 136.318 131.409 136.321 135.274C136.321 139.981 136.321 144.688 136.321 149.397C136.321 153.367 133.954 155.926 130.005 156.291C128.514 156.43 127.811 157.086 127.73 158.533C127.571 161.438 126.171 163.51 123.442 164.44C120.714 165.37 118.178 164.741 116.21 162.455C116.136 162.387 116.055 162.328 115.967 162.279C112.981 165.688 108.156 165.681 105.445 162.519C104.048 163.25 102.78 164.21 101.357 164.599C97.4583 165.65 93.7999 162.864 93.5024 158.827C93.3705 157.008 92.8261 156.46 90.9665 156.274C87.5211 155.936 85.1746 153.57 84.9109 150.104C84.7925 148.535 84.1366 147.835 82.6692 147.72C78.7065 147.412 76.3633 144.89 76.3498 140.846C76.3329 134.557 76.3498 128.268 76.3498 121.983C76.3498 118.602 76.3498 115.237 76.3498 111.863C76.3498 107.721 78.507 105.344 82.6489 104.874C84.1839 104.702 84.7959 104.063 84.9143 102.507C85.1881 98.9403 87.5516 96.5971 91.1592 96.3131C92.63 96.1982 93.3807 95.5389 93.4753 94.1019C93.6681 91.1738 95.0408 89.064 97.8269 88.124C100.613 87.184 103.074 87.9921 105.019 90.244C105.106 90.3214 105.2 90.3915 105.299 90.4536C105.882 89.6008 106.668 88.9069 107.587 88.4346C108.506 87.9623 109.528 87.7265 110.56 87.7487C111.619 87.7305 112.666 87.9767 113.606 88.465C114.546 88.9532 115.349 89.6681 115.943 90.5449C116.694 89.4573 117.759 88.6256 118.996 88.1618C120.234 87.698 121.583 87.6243 122.864 87.9506C124.144 88.2768 125.294 88.9875 126.159 89.9869C127.023 90.9863 127.561 92.2265 127.699 93.5406C127.889 95.691 128.325 96.1339 130.448 96.3267C131.672 96.4354 132.838 96.8925 133.81 97.6438C134.781 98.3952 135.517 99.4092 135.93 100.566C136.343 101.723 136.415 102.973 136.139 104.17C135.863 105.367 135.25 106.459 134.372 107.318C133.494 108.177 132.388 108.766 131.186 109.016C129.983 109.265 128.734 109.165 127.587 108.727C126.44 108.289 125.442 107.531 124.712 106.543C123.983 105.555 123.551 104.379 123.47 103.153C123.344 101.415 122.793 100.695 121.292 100.604C119.135 100.472 117.35 99.6909 116.017 97.9733C111.832 101.456 108.701 101.469 105.32 98.0612C104.511 98.6529 103.768 99.3663 102.885 99.8025C102.028 100.189 101.115 100.439 100.18 100.543C98.5065 100.769 97.8675 101.348 97.7457 102.998C97.4888 106.497 95.1051 108.867 91.565 109.141C89.9217 109.266 89.2185 109.963 89.2151 111.62C89.2016 121.384 89.2016 131.15 89.2151 140.917C89.2151 142.608 89.9217 143.325 91.6258 143.467C95.1862 143.761 97.4854 146.084 97.7491 149.647C97.8573 151.068 98.4794 151.889 99.7203 151.947C100.794 151.968 101.848 152.233 102.805 152.72C103.762 153.207 104.596 153.904 105.245 154.76C106.598 152.981 108.366 152.001 110.57 151.994C112.775 151.987 114.537 153.008 115.98 154.777C117.397 152.832 119.311 152.035 121.613 151.933C122.712 151.886 123.453 151.024 123.459 149.86C123.489 144.874 123.489 139.886 123.459 134.895C123.459 133.567 122.651 132.803 121.245 132.728C119.125 132.617 117.367 131.832 116.011 130.04C114.374 131.907 112.396 132.931 109.894 132.671C109.086 132.593 108.302 132.354 107.588 131.968C106.874 131.583 106.244 131.058 105.735 130.426C103.497 127.751 103.747 123.809 106.266 121.587C109.215 118.97 112.785 119.325 115.977 122.608Z" fill="#0F1012"/>
<path d="M231.903 94.3016C231.664 95.0513 231.246 95.7316 230.685 96.2836C230.125 96.8356 229.438 97.2427 228.684 97.4697C228.989 97.6252 229.124 97.6996 229.262 97.7639C231 98.5517 231.967 99.8737 231.988 101.801C232.011 103.289 231.988 104.773 231.988 106.257C231.988 124.15 231.988 142.043 231.988 159.937C231.988 161.543 231.65 162.952 230.331 163.994C229.79 164.414 229.154 164.695 228.48 164.811C227.805 164.927 227.112 164.876 226.462 164.66C225.811 164.445 225.224 164.073 224.752 163.577C224.28 163.081 223.937 162.476 223.755 161.816C223.613 161.14 223.556 160.448 223.585 159.757C223.585 140.721 223.538 121.689 223.616 102.656C223.616 99.4105 221.814 97.3378 218.446 97.4393C213.926 97.5745 209.395 97.4934 204.871 97.4629C201.97 97.4427 200.09 95.2821 200.516 92.5434C200.634 91.7161 201.009 90.9468 201.588 90.3438C202.167 89.7409 202.92 89.3347 203.742 89.1825C204.32 89.084 204.906 89.0376 205.493 89.0439C220.345 89.0439 235.199 89.0439 250.053 89.0439C250.571 89.0398 251.089 89.0749 251.602 89.1487C252.621 89.291 253.551 89.8093 254.208 90.602C254.865 91.3947 255.201 92.4043 255.152 93.4326C255.057 95.5796 253.431 97.3886 251.277 97.4224C246.168 97.5035 241.056 97.49 235.944 97.4224C234.206 97.4021 232.975 96.4283 232.268 94.8256C232.201 94.6701 232.12 94.5213 232.038 94.3692C232.015 94.3557 231.974 94.3455 231.903 94.3016Z" fill="#0F1012"/>
<path d="M41.082 43.1824C40.3899 43.185 39.7041 43.0507 39.0642 42.7871C38.4242 42.5235 37.8428 42.1358 37.3534 41.6464C36.8641 41.157 36.4764 40.5756 36.2128 39.9357C35.9492 39.2958 35.8148 38.61 35.8175 37.9179C35.8182 37.2925 35.6333 36.6809 35.2864 36.1606C34.9394 35.6403 34.4459 35.2346 33.8683 34.9948C33.2907 34.755 32.6549 34.6919 32.0415 34.8135C31.428 34.9351 30.8644 35.2359 30.4219 35.6779C29.9794 36.1199 29.678 36.6832 29.5557 37.2965C29.4335 37.9099 29.4959 38.5457 29.7351 39.1235C29.9743 39.7014 30.3795 40.1953 30.8994 40.5429C31.4194 40.8904 32.0307 41.0759 32.6561 41.0759C33.3485 41.0728 34.0346 41.2068 34.675 41.4702C35.3153 41.7336 35.8971 42.1212 36.3868 42.6106C36.8766 43.1001 37.2645 43.6816 37.5284 44.3218C37.7922 44.9619 37.9266 45.648 37.924 46.3404V64.2436C37.9266 64.9359 37.7922 65.622 37.5284 66.2621C37.2645 66.9023 36.8766 67.4838 36.3868 67.9733C35.8971 68.4627 35.3153 68.8503 34.675 69.1137C34.0346 69.3771 33.3485 69.5111 32.6561 69.508C32.0309 69.508 31.4196 69.6934 30.8998 70.0408C30.3799 70.3882 29.9747 70.8819 29.7354 71.4596C29.4961 72.0373 29.4335 72.6729 29.5555 73.2861C29.6775 73.8994 29.9786 74.4627 30.4207 74.9048C30.8628 75.3469 31.4261 75.648 32.0394 75.77C32.6526 75.892 33.2883 75.8294 33.8659 75.5901C34.4436 75.3508 34.9373 74.9456 35.2847 74.4258C35.6321 73.9059 35.8175 73.2946 35.8175 72.6694C35.8148 71.9773 35.9492 71.2915 36.2128 70.6516C36.4764 70.0117 36.8641 69.4303 37.3534 68.9409C37.8428 68.4515 38.4242 68.0638 39.0642 67.8002C39.7041 67.5366 40.3899 67.4023 41.082 67.4049C41.4973 67.4063 41.9089 67.3254 42.2928 67.167C42.6768 67.0085 43.0256 66.7756 43.3192 66.4818C43.6127 66.1879 43.8452 65.8388 44.0033 65.4547C44.1613 65.0706 44.2417 64.6589 44.24 64.2436V46.3404C44.2417 45.9251 44.1613 45.5137 44.0032 45.1297C43.8451 44.7458 43.6126 44.3969 43.319 44.1033C43.0254 43.8097 42.6765 43.5772 42.2926 43.4191C41.9086 43.261 41.4972 43.1806 41.082 43.1824Z" fill="#0F1012"/>
<path d="M41.082 8.42725C40.3899 8.42993 39.7041 8.2956 39.0642 8.03198C38.4242 7.76837 37.8428 7.3807 37.3534 6.89131C36.8641 6.40193 36.4764 5.82051 36.2128 5.18059C35.9492 4.54066 35.8148 3.85489 35.8175 3.1628C35.8175 2.53754 35.6321 1.92632 35.2847 1.40643C34.9373 0.886544 34.4436 0.481343 33.8659 0.242065C33.2883 0.00278824 32.6526 -0.0598168 32.0394 0.0621657C31.4261 0.184148 30.8628 0.485239 30.4207 0.927366C29.9786 1.36949 29.6775 1.9328 29.5555 2.54604C29.4335 3.15929 29.4961 3.79494 29.7354 4.3726C29.9747 4.95027 30.3799 5.44401 30.8998 5.79139C31.4196 6.13876 32.0309 6.32417 32.6561 6.32417C33.3485 6.32104 34.0346 6.45505 34.675 6.71847C35.3153 6.98188 35.8971 7.36948 36.3868 7.85891C36.8766 8.34834 37.2646 8.92991 37.5284 9.57005C37.7922 10.2102 37.9266 10.8963 37.924 11.5886C37.9246 12.2131 38.1104 12.8233 38.4578 13.3422C38.8052 13.8611 39.2987 14.2653 39.8758 14.5038C40.4529 14.7423 41.0878 14.8044 41.7001 14.6821C42.3125 14.5599 42.8749 14.2589 43.3162 13.8171C43.7575 13.3753 44.0579 12.8126 44.1795 12.2001C44.3011 11.5876 44.2384 10.9528 43.9992 10.376C43.7601 9.7991 43.3554 9.30609 42.8361 8.95924C42.3168 8.61238 41.7064 8.42725 41.082 8.42725Z" fill="#0F1012"/>
<path d="M22.1269 69.5082C21.5015 69.5075 20.89 69.6924 20.3696 70.0394C19.8493 70.3863 19.4436 70.8798 19.2038 71.4574C18.964 72.035 18.9009 72.6708 19.0225 73.2843C19.1441 73.8977 19.4449 74.4614 19.8869 74.9038C20.3289 75.3463 20.8922 75.6477 21.5055 75.77C22.1189 75.8922 22.7547 75.8298 23.3326 75.5906C23.9104 75.3515 24.4044 74.9463 24.7519 74.4263C25.0994 73.9063 25.2849 73.295 25.2849 72.6696C25.2867 72.2542 25.2063 71.8426 25.0482 71.4585C24.8902 71.0743 24.6577 70.7252 24.3642 70.4314C24.0706 70.1375 23.7218 69.9046 23.3378 69.7462C22.9538 69.5877 22.5423 69.5069 22.1269 69.5082Z" fill="#0F1012"/>
<path d="M11.5869 6.3242C12.2123 6.32487 12.8238 6.14003 13.3441 5.79306C13.8645 5.44609 14.2702 4.95259 14.51 4.37498C14.7498 3.79737 14.8129 3.16162 14.6913 2.54815C14.5697 1.93468 14.2689 1.37106 13.8269 0.928593C13.3849 0.486128 12.8216 0.1847 12.2082 0.0624436C11.5949 -0.0598131 10.9591 0.00259574 10.3812 0.241773C9.80336 0.480951 9.30941 0.886149 8.96189 1.40611C8.61436 1.92607 8.42887 2.53742 8.42887 3.16283C8.43155 3.85463 8.29732 4.54013 8.03391 5.17983C7.77051 5.81953 7.38314 6.4008 6.89411 6.89014C6.40509 7.37948 5.82407 7.76722 5.18454 8.03103C4.54501 8.29485 3.8596 8.42952 3.16779 8.42728C2.75242 8.42594 2.34088 8.50682 1.95691 8.66526C1.57294 8.8237 1.22412 9.05657 0.93056 9.35044C0.637001 9.64431 0.404507 9.99338 0.246477 10.3775C0.0884476 10.7617 0.00800802 11.1733 0.00979484 11.5887V29.5088C0.00800509 29.924 0.0884674 30.3354 0.246538 30.7194C0.404608 31.1033 0.637157 31.4522 0.930761 31.7458C1.22437 32.0394 1.57321 32.2719 1.95716 32.43C2.34112 32.5881 2.75258 32.6685 3.16779 32.6668C3.86032 32.6641 4.54654 32.7985 5.18687 33.0623C5.82721 33.3261 6.409 33.714 6.89869 34.2037C7.38839 34.6934 7.77632 35.2752 8.0401 35.9155C8.30388 36.5558 8.43831 37.2421 8.43563 37.9346C8.43964 38.5586 8.62842 39.1674 8.97816 39.6842C9.32789 40.201 9.82289 40.6026 10.4007 40.8383C10.9785 41.074 11.6131 41.1333 12.2245 41.0086C12.836 40.8839 13.3968 40.5809 13.8361 40.1378C14.2755 39.6947 14.5737 39.1313 14.6932 38.5188C14.8126 37.9063 14.7479 37.2722 14.5073 36.6965C14.2666 36.1207 13.8608 35.6292 13.3411 35.2839C12.8213 34.9386 12.2109 34.755 11.5869 34.7563C10.8948 34.759 10.209 34.6247 9.56907 34.361C8.92915 34.0974 8.34773 33.7098 7.85835 33.2204C7.36896 32.731 6.98129 32.1496 6.71768 31.5096C6.45406 30.8697 6.31972 30.1839 6.32241 29.4919V11.5887C6.31972 10.8966 6.45406 10.2108 6.71768 9.57087C6.98129 8.93094 7.36896 8.34953 7.85835 7.86015C8.34773 7.37076 8.92915 6.98309 9.56907 6.71947C10.209 6.45586 10.8948 6.32152 11.5869 6.3242Z" fill="#0F1012"/>
<path d="M22.1269 34.756C21.5015 34.7554 20.89 34.9402 20.3696 35.2872C19.8493 35.6341 19.4436 36.1276 19.2038 36.7052C18.964 37.2829 18.9009 37.9186 19.0225 38.5321C19.1441 39.1456 19.4449 39.7092 19.8869 40.1516C20.3289 40.5941 20.8922 40.8955 21.5055 41.0178C22.1189 41.14 22.7547 41.0776 23.3326 40.8385C23.9104 40.5993 24.4044 40.1941 24.7519 39.6741C25.0994 39.1542 25.2849 38.5428 25.2849 37.9174C25.2872 37.5019 25.207 37.0901 25.0492 36.7057C24.8913 36.3214 24.6588 35.9721 24.3652 35.6782C24.0715 35.3842 23.7225 35.1514 23.3383 34.9931C22.9542 34.8348 22.5424 34.7542 22.1269 34.756Z" fill="#0F1012"/>
<path d="M11.5872 69.5073C10.8951 69.51 10.2093 69.3757 9.56942 69.112C8.9295 68.8484 8.34808 68.4608 7.8587 67.9714C7.36931 67.482 6.98164 66.9006 6.71803 66.2606C6.45441 65.6207 6.32007 64.9349 6.32276 64.2429C6.32276 63.6176 6.13734 63.0064 5.78997 62.4865C5.44259 61.9666 4.94885 61.5614 4.37119 61.3221C3.79352 61.0828 3.15787 61.0202 2.54462 61.1422C1.93138 61.2642 1.36807 61.5653 0.925948 62.0074C0.483821 62.4496 0.182729 63.0129 0.0607463 63.6261C-0.0612362 64.2394 0.00137012 64.875 0.240647 65.4527C0.479924 66.0303 0.885126 66.5241 1.40501 66.8714C1.9249 67.2188 2.53612 67.4042 3.16138 67.4042C3.85375 67.4011 4.53989 67.5351 5.18021 67.7985C5.82052 68.0619 6.40234 68.4495 6.89208 68.939C7.38183 69.4284 7.7698 70.01 8.03363 70.6501C8.29745 71.2903 8.4319 71.9763 8.42922 72.6687C8.42988 73.2931 8.61566 73.9034 8.96307 74.4223C9.31048 74.9411 9.80393 75.3454 10.381 75.5839C10.9581 75.8224 11.593 75.8844 12.2054 75.7622C12.8177 75.64 13.3801 75.3389 13.8214 74.8972C14.2628 74.4554 14.5632 73.8927 14.6848 73.2802C14.8064 72.6677 14.7436 72.0329 14.5045 71.456C14.2654 70.8792 13.8606 70.3862 13.3413 70.0393C12.8221 69.6924 12.2117 69.5073 11.5872 69.5073Z" fill="#0F1012"/>
<path d="M199.053 41.0758C200.797 41.0758 202.211 39.6619 202.211 37.9178C202.211 36.1737 200.797 34.7598 199.053 34.7598C197.309 34.7598 195.895 36.1737 195.895 37.9178C195.895 39.6619 197.309 41.0758 199.053 41.0758Z" fill="#0F1012"/>
<path d="M218.007 8.42725C217.315 8.42993 216.63 8.2956 215.99 8.03198C215.35 7.76837 214.768 7.3807 214.279 6.89131C213.789 6.40193 213.402 5.82051 213.138 5.18059C212.875 4.54066 212.74 3.85489 212.743 3.1628C212.743 2.53754 212.558 1.92632 212.21 1.40643C211.863 0.886544 211.369 0.481343 210.791 0.242065C210.214 0.00278824 209.578 -0.0598168 208.965 0.0621657C208.352 0.184148 207.788 0.485239 207.346 0.927366C206.904 1.36949 206.603 1.9328 206.481 2.54604C206.359 3.15929 206.422 3.79494 206.661 4.3726C206.9 4.95027 207.305 5.44401 207.825 5.79139C208.345 6.13876 208.956 6.32417 209.582 6.32417C210.274 6.32104 210.96 6.45505 211.6 6.71847C212.241 6.98188 212.823 7.36948 213.312 7.85891C213.802 8.34834 214.19 8.92991 214.454 9.57005C214.718 10.2102 214.852 10.8963 214.849 11.5886V29.5087C214.852 30.2011 214.718 30.8872 214.454 31.5273C214.19 32.1675 213.802 32.749 213.312 33.2384C212.823 33.7279 212.241 34.1155 211.6 34.3789C210.96 34.6423 210.274 34.7763 209.582 34.7732C208.761 34.8 207.984 35.1447 207.413 35.7343C206.843 36.3239 206.524 37.1123 206.524 37.9329C206.524 38.7534 206.843 39.5418 207.413 40.1315C207.984 40.7211 208.761 41.0657 209.582 41.0926C210.274 41.0894 210.96 41.2234 211.6 41.4869C212.241 41.7503 212.823 42.1379 213.312 42.6273C213.802 43.1167 214.19 43.6983 214.454 44.3384C214.718 44.9786 214.852 45.6646 214.849 46.357V72.6861C214.849 73.5236 215.182 74.3269 215.774 74.9191C216.367 75.5113 217.17 75.844 218.007 75.844C218.845 75.844 219.648 75.5113 220.24 74.9191C220.833 74.3269 221.165 73.5236 221.165 72.6861V46.3401C221.167 45.9249 221.087 45.5134 220.929 45.1295C220.771 44.7455 220.538 44.3967 220.244 44.1031C219.951 43.8095 219.602 43.5769 219.218 43.4189C218.834 43.2608 218.423 43.1803 218.007 43.1821C216.634 43.1473 215.328 42.5772 214.369 41.5934C213.41 40.6096 212.873 39.29 212.873 37.916C212.873 36.542 213.41 35.2223 214.369 34.2385C215.328 33.2547 216.634 32.6846 218.007 32.6498C218.423 32.6516 218.834 32.5712 219.218 32.4131C219.602 32.255 219.951 32.0225 220.244 31.7289C220.538 31.4353 220.771 31.0864 220.929 30.7025C221.087 30.3185 221.167 29.907 221.165 29.4918V11.5886C221.167 11.1733 221.087 10.7616 220.929 10.3775C220.771 9.99335 220.538 9.64428 220.245 9.35041C219.951 9.05654 219.602 8.82367 219.218 8.66523C218.834 8.50679 218.423 8.42591 218.007 8.42725Z" fill="#0F1012"/>
<path d="M188.52 0.00524772C187.894 0.00457904 187.283 0.189507 186.762 0.536626C186.242 0.883746 185.836 1.37745 185.596 1.95526C185.357 2.53306 185.294 3.16899 185.416 3.78255C185.537 4.39611 185.839 4.95972 186.281 5.40205C186.723 5.84438 187.287 6.14555 187.9 6.26742C188.514 6.38929 189.15 6.3264 189.728 6.08671C190.306 5.84701 190.799 5.44129 191.146 4.92088C191.493 4.40048 191.678 3.78879 191.678 3.16324C191.68 2.74803 191.599 2.33657 191.441 1.95262C191.283 1.56866 191.05 1.21982 190.757 0.926213C190.463 0.632608 190.114 0.400061 189.73 0.241991C189.346 0.0839203 188.935 0.00345797 188.52 0.00524772Z" fill="#0F1012"/>
<path d="M188.52 41.0758C190.264 41.0758 191.678 39.6619 191.678 37.9178C191.678 36.1737 190.264 34.7598 188.52 34.7598C186.776 34.7598 185.362 36.1737 185.362 37.9178C185.362 39.6619 186.776 41.0758 188.52 41.0758Z" fill="#0F1012"/>
<path d="M177.988 0.00524772C177.572 0.00345797 177.161 0.0839203 176.777 0.241991C176.393 0.400061 176.044 0.632609 175.751 0.926213C175.457 1.21982 175.224 1.56866 175.066 1.95262C174.908 2.33657 174.828 2.74803 174.83 3.16324V72.6696C174.856 73.4897 175.201 74.2673 175.791 74.8379C176.38 75.4086 177.169 75.7276 177.989 75.7276C178.81 75.7276 179.598 75.4086 180.188 74.8379C180.778 74.2673 181.122 73.4897 181.149 72.6696V3.16324C181.15 2.74787 181.069 2.33634 180.911 1.95236C180.753 1.56839 180.52 1.21957 180.226 0.926013C179.932 0.632454 179.583 0.39996 179.199 0.24193C178.815 0.0839005 178.403 0.0034609 177.988 0.00524772Z" fill="#0F1012"/>
<path d="M345.784 0.00524772C345.369 0.00345797 344.957 0.0839203 344.573 0.241991C344.189 0.400061 343.84 0.632609 343.547 0.926213C343.253 1.21982 343.021 1.56866 342.863 1.95262C342.704 2.33657 342.624 2.74803 342.626 3.16324V72.6696C342.653 73.4897 342.997 74.2673 343.587 74.8379C344.177 75.4086 344.965 75.7276 345.785 75.7276C346.606 75.7276 347.394 75.4086 347.984 74.8379C348.574 74.2673 348.918 73.4897 348.945 72.6696V3.16324C348.946 2.74787 348.866 2.33634 348.707 1.95236C348.549 1.56839 348.316 1.21957 348.022 0.926013C347.728 0.632454 347.379 0.39996 346.995 0.24193C346.611 0.0839005 346.199 0.0034609 345.784 0.00524772Z" fill="#0F1012"/>
<path d="M335.255 41.0758C337 41.0758 338.413 39.6619 338.413 37.9178C338.413 36.1737 337 34.7598 335.255 34.7598C333.511 34.7598 332.097 36.1737 332.097 37.9178C332.097 39.6619 333.511 41.0758 335.255 41.0758Z" fill="#0F1012"/>
<path d="M314.19 41.0758C315.934 41.0758 317.348 39.6619 317.348 37.9178C317.348 36.1737 315.934 34.7598 314.19 34.7598C312.446 34.7598 311.032 36.1737 311.032 37.9178C311.032 39.6619 312.446 41.0758 314.19 41.0758Z" fill="#0F1012"/>
<path d="M303.661 0.00524772C303.246 0.0034609 302.834 0.0839005 302.45 0.24193C302.066 0.39996 301.717 0.632454 301.423 0.926013C301.129 1.21957 300.896 1.56839 300.738 1.95236C300.579 2.33634 300.498 2.74787 300.5 3.16324V72.6696C300.527 73.4897 300.871 74.2673 301.461 74.8379C302.051 75.4086 302.839 75.7276 303.659 75.7276C304.48 75.7276 305.268 75.4086 305.858 74.8379C306.448 74.2673 306.792 73.4897 306.819 72.6696V3.16324C306.821 2.74803 306.74 2.33657 306.582 1.95262C306.424 1.56866 306.192 1.21982 305.898 0.926213C305.605 0.632609 305.256 0.400061 304.872 0.241991C304.488 0.0839203 304.076 0.00345797 303.661 0.00524772Z" fill="#0F1012"/>
<path d="M22.1269 0.00524772C21.5014 0.00457904 20.8897 0.189507 20.3693 0.536626C19.8489 0.883746 19.4431 1.37745 19.2035 1.95526C18.9638 2.53306 18.9009 3.16899 19.0227 3.78255C19.1446 4.39611 19.4458 4.95972 19.8881 5.40205C20.3304 5.84438 20.8941 6.14555 21.5076 6.26742C22.1212 6.38929 22.7571 6.3264 23.3349 6.08671C23.9127 5.84701 24.4064 5.44129 24.7535 4.92088C25.1007 4.40048 25.2856 3.78879 25.2849 3.16324C25.2867 2.74803 25.2062 2.33657 25.0482 1.95262C24.8901 1.56866 24.6576 1.21982 24.3639 0.926213C24.0703 0.632608 23.7215 0.400061 23.3375 0.241991C22.9536 0.0839203 22.5421 0.00345797 22.1269 0.00524772Z" fill="#0F1012"/>
<path d="M199.052 0.00524772C198.427 0.00457904 197.815 0.189507 197.295 0.536626C196.774 0.883746 196.369 1.37745 196.129 1.95526C195.889 2.53306 195.826 3.16899 195.948 3.78255C196.07 4.39611 196.371 4.95972 196.814 5.40205C197.256 5.84438 197.819 6.14555 198.433 6.26742C199.047 6.38929 199.683 6.3264 200.26 6.08671C200.838 5.84701 201.332 5.44129 201.679 4.92088C202.026 4.40048 202.211 3.78879 202.21 3.16324C202.212 2.74803 202.132 2.33657 201.974 1.95262C201.816 1.56866 201.583 1.21982 201.289 0.926213C200.996 0.632608 200.647 0.400061 200.263 0.241991C199.879 0.0839203 199.468 0.00345797 199.052 0.00524772Z" fill="#0F1012"/>
<path d="M324.724 41.0758C326.468 41.0758 327.882 39.6619 327.882 37.9178C327.882 36.1737 326.468 34.7598 324.724 34.7598C322.98 34.7598 321.566 36.1737 321.566 37.9178C321.566 39.6619 322.98 41.0758 324.724 41.0758Z" fill="#0F1012"/>
<path d="M135.195 55.3544H116.775C113.329 55.3544 111.767 56.9064 111.764 60.3281C111.764 64.3043 111.804 68.2839 111.743 72.2602C111.696 75.3945 108.893 77.3522 106.026 76.3176C105.326 76.0819 104.705 75.6554 104.235 75.0861C103.764 74.5167 103.462 73.8273 103.362 73.0953C103.291 72.6481 103.26 72.1956 103.267 71.7429C103.267 67.8714 103.267 64 103.267 60.1252C103.267 57.1735 104.619 55.6993 107.541 55.3612C110.327 55.0231 111.747 53.4542 111.754 50.6073C111.754 45.3056 111.754 40.0006 111.754 34.699C111.754 31.6559 113.011 30.246 116.034 29.82C118.928 29.4142 120.264 27.8995 120.274 24.968C120.274 21.1304 120.274 17.2928 120.274 13.4721C120.274 10.3614 121.66 8.82639 124.717 8.53223C127.009 8.31245 128.456 6.89237 128.744 4.5898C129.153 1.26951 130.549 0.0286284 133.917 0.0353907C135.24 -0.00196078 136.564 0.0352903 137.883 0.146968C139.912 0.380268 141.264 1.83755 141.491 3.90005C141.859 7.13919 142.941 8.22454 146.147 8.58294C148.497 8.84329 150.008 10.517 150.028 12.9784C150.059 16.9547 150.028 20.9309 150.028 24.9105C150.028 27.9536 151.381 29.4582 154.403 29.8436C157.173 30.1817 158.552 31.7269 158.562 34.5299C158.562 39.8349 158.562 45.1366 158.562 50.4416C158.562 53.5556 159.932 55.0704 163.012 55.3882C165.511 55.6418 166.998 57.2276 167.012 59.7533C167.039 63.9054 167.039 68.0574 167.012 72.2095C167.012 74.7927 165.237 76.5813 162.802 76.605C160.368 76.6286 158.596 74.813 158.572 72.2467C158.539 68.3719 158.572 64.5004 158.572 60.6256C158.572 56.9064 157.064 55.3882 153.392 55.3848L135.195 55.3544ZM153.568 46.8272C150.863 45.9683 150.001 44.2304 150.042 41.8433C150.082 39.2646 150.082 36.6837 150.042 34.1005C150.001 31.71 148.503 30.1209 146.14 29.8436C142.833 29.4548 141.552 28.0212 141.548 24.6908C141.548 20.8193 141.569 16.9513 141.548 13.0799C141.528 10.216 139.834 8.55927 136.967 8.51532C135.885 8.51532 134.803 8.51532 133.724 8.51532C130.428 8.51532 128.825 10.1045 128.812 13.3808C128.795 17.2184 128.812 21.0526 128.812 24.8767C128.812 27.9198 127.459 29.421 124.44 29.8098C121.664 30.1682 120.328 31.6728 120.315 34.4927C120.315 36.7919 120.264 39.0978 120.315 41.397C120.379 43.9227 119.638 45.9041 116.737 46.8238C118.695 47.3817 119.814 48.4569 120.25 50.3436C120.399 50.0054 120.494 49.8296 120.565 49.6403C121.268 47.7536 122.648 46.8102 124.643 46.8069C131.652 46.8069 138.661 46.7663 145.667 46.8441C146.661 46.9096 147.616 47.2554 148.422 47.8415C149.132 48.3385 149.552 49.2548 150.153 50.0562C150.569 48.4535 151.699 47.4561 153.568 46.8272Z" fill="#0F1012"/>
<path d="M63.1845 38.425C63.1845 49.6189 63.1845 60.815 63.1845 72.0134C63.2004 72.7569 63.0634 73.4957 62.7822 74.1841C62.489 74.7886 61.9976 75.2743 61.3897 75.5604C60.7818 75.8465 60.0943 75.9157 59.4416 75.7563C58.7829 75.6269 58.1862 75.2811 57.7464 74.7739C57.3066 74.2667 57.0488 73.6272 57.0139 72.9567C56.9937 72.649 56.9937 72.3414 56.9937 72.0337C56.9937 49.5715 56.9937 27.1106 56.9937 4.65069C56.9937 2.40222 57.8626 1.19853 59.6715 0.93142C60.077 0.872581 60.4901 0.895497 60.8866 0.998817C61.2831 1.10214 61.6549 1.28377 61.9801 1.53302C62.3052 1.78226 62.5772 2.09407 62.78 2.45008C62.9828 2.80608 63.1123 3.19908 63.1609 3.60591C63.1986 4.04777 63.2111 4.49143 63.1981 4.9347L63.1845 38.425Z" fill="#0F1012"/>
<path d="M82.9299 7.13938C79.5487 7.13938 76.1878 7.15967 72.8168 7.13938C70.5515 7.12247 69.0773 5.39132 69.5337 3.32544C69.6326 2.76567 69.8955 2.24792 70.2893 1.83794C70.683 1.42796 71.1897 1.14426 71.745 1.02287C72.2432 0.912362 72.753 0.86241 73.2631 0.874104C79.7009 0.874104 86.1363 0.874104 92.5695 0.874104C92.8764 0.867297 93.1834 0.877456 93.4892 0.904534C95.3049 1.10402 96.4984 2.39224 96.4443 4.08282C96.4369 4.49351 96.348 4.89863 96.1827 5.27465C96.0174 5.65068 95.779 5.99011 95.4814 6.27324C95.1838 6.55636 94.8329 6.77753 94.4491 6.92389C94.0654 7.07026 93.6563 7.13891 93.2458 7.12585C89.797 7.16305 86.3583 7.136 82.9299 7.13938Z" fill="#0F1012"/>
<path d="M82.8797 69.5986C86.3184 69.5986 89.7604 69.5648 93.199 69.5986C95.5185 69.6291 96.9453 71.5935 96.2657 73.7067C95.8363 75.0423 94.7273 75.803 93.1077 75.8064C88.8542 75.8064 84.5974 75.8064 80.3405 75.8064C77.8553 75.8064 75.3702 75.8064 72.9019 75.8064C70.7955 75.8064 69.4802 74.5926 69.4802 72.7093C69.4802 70.826 70.8056 69.602 72.8884 69.5885C76.2256 69.5648 79.5628 69.5885 82.8966 69.5885L82.8797 69.5986Z" fill="#0F1012"/>
<path d="M80.7698 41.4814C78.0818 41.4814 75.3938 41.5118 72.7058 41.4814C70.8495 41.4577 69.5748 40.2811 69.47 38.6108C69.3483 36.6598 70.6534 35.2803 72.7328 35.2567C75.6609 35.2229 78.5856 35.2567 81.5238 35.2567C84.0766 35.2567 86.6293 35.2398 89.1821 35.2567C89.8203 35.2381 90.4476 35.4253 90.9712 35.7906C91.4948 36.1559 91.887 36.68 92.0899 37.2854C92.5497 38.4282 92.2962 39.8956 91.2615 40.6192C90.5136 41.1222 89.6428 41.4121 88.7426 41.4577C86.0917 41.5625 83.4342 41.4949 80.78 41.4949L80.7698 41.4814Z" fill="#0F1012"/>
<path d="M249.201 37.9824C249.201 45.2418 249.225 52.5011 249.201 59.7604C249.201 63.6927 245.854 66.4348 242.05 65.7282C239.251 65.2109 237.263 62.7156 237.246 59.6421C237.222 55.3244 237.246 51.01 237.246 46.6923C237.246 36.5488 237.246 26.4133 237.246 16.2856C237.246 12.3229 240.38 9.52329 244.126 10.0744C247.112 10.5106 249.198 12.9923 249.198 16.2146C249.216 23.4705 249.217 30.7265 249.201 37.9824Z" fill="#0F1012"/>
<path d="M269.12 75.814C263.856 75.814 258.594 75.8444 253.33 75.814C249.695 75.787 247.038 72.9874 247.217 69.471C247.304 68.1397 247.834 66.8758 248.722 65.8807C249.611 64.8856 250.807 64.2165 252.12 63.98C252.669 63.8932 253.224 63.8503 253.78 63.8515C264.011 63.8515 274.244 63.8515 284.477 63.8515C286.425 63.8515 288.169 64.3113 289.508 65.8193C291.199 67.7229 291.537 69.924 290.577 72.2097C289.562 74.5494 287.676 75.8005 285.106 75.8174C279.777 75.8377 274.449 75.814 269.12 75.814Z" fill="#0F1012"/>
<path d="M264.16 11.9709C260.501 11.9709 256.839 11.9946 253.181 11.9709C250.195 11.9472 247.896 9.98617 247.308 7.04457C247.07 5.71372 247.295 4.34152 247.946 3.15657C248.597 1.97163 249.634 1.0455 250.885 0.53247C251.665 0.214235 252.498 0.0445181 253.34 0.0320582C260.528 -0.00400746 267.718 -0.00964245 274.908 0.0151527C278.435 0.0151527 281.103 2.61864 281.113 5.99303C281.123 9.36742 278.462 11.954 274.929 11.9709C271.338 12.0013 267.744 11.9743 264.16 11.9709Z" fill="#0F1012"/>
<path d="M291.061 22.4457C291.061 24.6976 291.112 26.9562 291.061 29.208C290.993 31.7168 289.665 33.4885 287.419 34.4522C285.174 35.4158 283.054 35.0337 281.198 33.4378C280.579 32.9474 280.076 32.3259 279.725 31.6179C279.374 30.91 279.184 30.1332 279.169 29.3433C279.136 24.7686 279.085 20.1939 279.169 15.6225C279.234 12.4916 281.874 10.0605 284.988 10.0064C286.51 9.95248 287.993 10.4953 289.121 11.5193C290.248 12.5432 290.931 13.9671 291.024 15.4873C291.145 17.8 291.047 20.1262 291.047 22.4457H291.061Z" fill="#0F1012"/>
<path d="M144.27 238.778C144.292 239.535 144.024 240.271 143.521 240.837C143.019 241.402 142.319 241.755 141.565 241.822C142.294 241.903 142.969 242.244 143.466 242.784C143.963 243.323 144.248 244.023 144.27 244.756C144.29 243.966 144.621 243.215 145.19 242.666C145.759 242.116 146.522 241.813 147.313 241.822H177.77C179.115 241.822 180.405 242.356 181.357 243.307C182.308 244.258 182.842 245.548 182.842 246.893C182.842 248.238 182.308 249.528 181.357 250.479C180.405 251.431 179.115 251.965 177.77 251.965H139.195C137.85 251.965 136.56 251.431 135.609 250.479C134.657 249.528 134.123 248.238 134.123 246.893V230.664C134.123 229.319 134.657 228.029 135.609 227.077C136.56 226.126 137.85 225.592 139.195 225.592C140.002 225.592 140.776 225.271 141.347 224.701C141.917 224.13 142.238 223.356 142.238 222.549C142.238 221.204 142.772 219.914 143.723 218.963C144.674 218.012 145.964 217.477 147.31 217.477H154.41C155.217 217.477 155.991 217.157 156.562 216.586C157.132 216.015 157.453 215.241 157.453 214.434C157.453 213.089 157.987 211.799 158.938 210.848C159.89 209.897 161.18 209.362 162.525 209.362H169.625C170.432 209.362 171.206 209.042 171.777 208.471C172.348 207.9 172.668 207.126 172.668 206.319V192.119C172.668 191.312 172.348 190.537 171.777 189.967C171.206 189.396 170.432 189.076 169.625 189.076H147.316C146.509 189.076 145.735 189.396 145.165 189.967C144.594 190.537 144.273 191.312 144.273 192.119C144.273 193.122 143.976 194.102 143.419 194.936C142.861 195.77 142.069 196.42 141.142 196.804C140.216 197.188 139.196 197.289 138.212 197.093C137.228 196.897 136.325 196.414 135.615 195.705C134.906 194.996 134.423 194.092 134.227 193.108C134.032 192.124 134.132 191.104 134.516 190.178C134.9 189.251 135.55 188.459 136.384 187.902C137.218 187.344 138.198 187.047 139.202 187.047C140.009 187.047 140.783 186.726 141.353 186.156C141.924 185.585 142.245 184.811 142.245 184.004C142.245 182.659 142.779 181.369 143.73 180.418C144.681 179.466 145.971 178.932 147.316 178.932H169.652C170.997 178.932 172.287 179.466 173.238 180.418C174.19 181.369 174.724 182.659 174.724 184.004C174.724 184.811 175.045 185.585 175.615 186.156C176.186 186.726 176.96 187.047 177.767 187.047C179.112 187.047 180.402 187.581 181.353 188.532C182.304 189.483 182.839 190.773 182.839 192.119V206.319C182.839 207.665 182.304 208.955 181.353 209.906C180.402 210.857 179.112 211.391 177.767 211.391C176.96 211.391 176.186 211.712 175.615 212.282C175.045 212.853 174.724 213.627 174.724 214.434C174.724 215.779 174.19 217.069 173.238 218.02C172.287 218.972 170.997 219.506 169.652 219.506H162.552C161.745 219.506 160.971 219.827 160.4 220.397C159.829 220.968 159.509 221.742 159.509 222.549C159.509 223.894 158.974 225.184 158.023 226.135C157.072 227.086 155.782 227.621 154.437 227.621H147.337C146.53 227.621 145.756 227.941 145.185 228.512C144.614 229.083 144.294 229.857 144.294 230.664L144.27 238.778Z" fill="#0F1012"/>
<path d="M195.597 188.021C195.597 187.752 195.704 187.494 195.894 187.304C196.084 187.113 196.342 187.007 196.611 187.007C196.99 187.025 197.37 186.987 197.737 186.895C197.645 187.264 197.607 187.644 197.626 188.024V242.84C197.602 243.22 197.639 243.601 197.737 243.969C197.37 243.877 196.99 243.839 196.611 243.857C196.342 243.857 196.084 243.75 195.894 243.56C195.704 243.37 195.597 243.112 195.597 242.843V188.021ZM230.227 181.025C229.858 180.933 229.477 180.896 229.098 180.914H204.733C204.353 180.89 203.972 180.927 203.604 181.025C203.704 180.659 203.743 180.279 203.719 179.899C203.719 179.63 203.825 179.372 204.016 179.182C204.206 178.992 204.464 178.885 204.733 178.885H229.098C229.367 178.885 229.625 178.992 229.815 179.182C230.005 179.372 230.112 179.63 230.112 179.899C230.087 180.279 230.126 180.659 230.227 181.025ZM229.098 249.947C229.477 249.965 229.858 249.927 230.227 249.835C230.132 250.203 230.093 250.582 230.112 250.961C230.112 251.23 230.005 251.488 229.815 251.678C229.625 251.869 229.367 251.975 229.098 251.975H204.733C204.464 251.975 204.206 251.869 204.016 251.678C203.825 251.488 203.719 251.23 203.719 250.961C203.737 250.582 203.699 250.203 203.604 249.835C203.972 249.933 204.353 249.971 204.733 249.947H229.098ZM236.096 243.969C236.197 243.601 236.236 243.22 236.211 242.84V188.021C236.23 187.641 236.191 187.26 236.096 186.892C236.464 186.99 236.846 187.027 237.226 187.003C237.495 187.003 237.753 187.11 237.943 187.3C238.133 187.491 238.24 187.749 238.24 188.018V242.84C238.24 243.109 238.133 243.367 237.943 243.557C237.753 243.747 237.495 243.854 237.226 243.854C236.846 243.831 236.464 243.87 236.096 243.969Z" fill="#0F1012"/>
<path d="M257.059 187.003C258.404 187.003 259.694 186.468 260.645 185.517C261.596 184.566 262.131 183.276 262.131 181.931C262.131 181.329 262.309 180.741 262.643 180.24C262.978 179.74 263.453 179.35 264.009 179.12C264.565 178.889 265.177 178.829 265.767 178.947C266.358 179.064 266.9 179.354 267.325 179.779C267.751 180.205 268.041 180.747 268.158 181.337C268.276 181.928 268.215 182.54 267.985 183.096C267.755 183.652 267.365 184.127 266.864 184.461C266.364 184.796 265.776 184.974 265.174 184.974C263.829 184.974 262.539 185.508 261.587 186.46C260.636 187.411 260.102 188.701 260.102 190.046C260.102 190.648 259.923 191.236 259.589 191.736C259.255 192.237 258.779 192.627 258.223 192.857C257.667 193.088 257.056 193.148 256.465 193.03C255.875 192.913 255.333 192.623 254.907 192.198C254.482 191.772 254.192 191.23 254.074 190.64C253.957 190.049 254.017 189.437 254.248 188.881C254.478 188.325 254.868 187.85 255.368 187.516C255.869 187.181 256.457 187.003 257.059 187.003ZM254.016 225.582C254.016 224.775 254.336 224.001 254.907 223.43C255.478 222.859 256.252 222.539 257.059 222.539C258.404 222.539 259.694 222.004 260.645 221.053C261.596 220.102 262.131 218.812 262.131 217.467C262.131 216.865 262.309 216.277 262.643 215.776C262.978 215.276 263.453 214.886 264.009 214.656C264.565 214.425 265.177 214.365 265.767 214.482C266.358 214.6 266.9 214.89 267.325 215.315C267.751 215.741 268.041 216.283 268.158 216.873C268.276 217.464 268.215 218.075 267.985 218.632C267.755 219.188 267.365 219.663 266.864 219.997C266.364 220.332 265.776 220.51 265.174 220.51C263.829 220.51 262.539 221.044 261.587 221.996C260.636 222.947 260.102 224.237 260.102 225.582V240.797C260.102 242.142 260.636 243.432 261.587 244.383C262.539 245.334 263.829 245.869 265.174 245.869C265.776 245.869 266.364 246.047 266.864 246.382C267.365 246.716 267.755 247.191 267.985 247.747C268.215 248.303 268.276 248.915 268.158 249.505C268.041 250.096 267.751 250.638 267.325 251.063C266.9 251.489 266.358 251.779 265.767 251.896C265.177 252.014 264.565 251.953 264.009 251.723C263.453 251.493 262.978 251.103 262.643 250.602C262.309 250.102 262.131 249.514 262.131 248.912C262.131 247.567 261.596 246.277 260.645 245.325C259.694 244.374 258.404 243.84 257.059 243.84C256.252 243.84 255.478 243.519 254.907 242.949C254.336 242.378 254.016 241.604 254.016 240.797V225.582ZM275.334 178.881C275.936 178.881 276.524 179.06 277.025 179.394C277.525 179.729 277.915 180.204 278.145 180.76C278.376 181.316 278.436 181.928 278.319 182.518C278.201 183.108 277.911 183.651 277.486 184.076C277.06 184.502 276.518 184.791 275.928 184.909C275.337 185.026 274.726 184.966 274.17 184.736C273.613 184.505 273.138 184.115 272.804 183.615C272.469 183.115 272.291 182.526 272.291 181.924C272.291 181.524 272.37 181.127 272.524 180.757C272.677 180.388 272.902 180.052 273.186 179.769C273.47 179.486 273.806 179.262 274.177 179.11C274.547 178.958 274.944 178.88 275.344 178.881H275.334ZM275.334 214.414C275.936 214.414 276.524 214.592 277.025 214.927C277.525 215.261 277.915 215.736 278.145 216.292C278.376 216.848 278.436 217.46 278.319 218.051C278.201 218.641 277.911 219.183 277.486 219.609C277.06 220.034 276.518 220.324 275.928 220.441C275.337 220.559 274.726 220.499 274.17 220.268C273.613 220.038 273.138 219.648 272.804 219.147C272.469 218.647 272.291 218.059 272.291 217.457C272.291 217.056 272.37 216.66 272.524 216.29C272.677 215.92 272.902 215.584 273.186 215.302C273.47 215.019 273.806 214.795 274.177 214.643C274.547 214.49 274.944 214.413 275.344 214.414H275.334ZM275.334 245.886C275.936 245.886 276.524 246.064 277.025 246.398C277.525 246.733 277.915 247.208 278.145 247.764C278.376 248.32 278.436 248.932 278.319 249.522C278.201 250.113 277.911 250.655 277.486 251.08C277.06 251.506 276.518 251.796 275.928 251.913C275.337 252.031 274.726 251.97 274.17 251.74C273.613 251.51 273.138 251.12 272.804 250.619C272.469 250.119 272.291 249.53 272.291 248.929C272.291 248.528 272.37 248.132 272.524 247.762C272.677 247.392 272.902 247.056 273.186 246.773C273.47 246.491 273.806 246.267 274.177 246.114C274.547 245.962 274.944 245.884 275.344 245.886H275.334ZM290.549 190.049C290.549 188.704 290.015 187.414 289.064 186.463C288.113 185.512 286.823 184.978 285.477 184.978C284.876 184.978 284.287 184.799 283.787 184.465C283.286 184.13 282.896 183.655 282.666 183.099C282.436 182.543 282.376 181.931 282.493 181.341C282.61 180.751 282.9 180.208 283.326 179.783C283.751 179.357 284.294 179.067 284.884 178.95C285.474 178.833 286.086 178.893 286.642 179.123C287.198 179.353 287.673 179.743 288.008 180.244C288.342 180.744 288.521 181.333 288.521 181.934C288.521 183.28 289.055 184.57 290.006 185.521C290.957 186.472 292.247 187.006 293.592 187.006C294.399 187.006 295.173 187.327 295.744 187.897C296.315 188.468 296.635 189.242 296.635 190.049V209.322C296.635 210.129 296.315 210.903 295.744 211.474C295.173 212.044 294.399 212.365 293.592 212.365C292.247 212.365 290.957 212.899 290.006 213.85C289.055 214.801 288.521 216.091 288.521 217.437C288.521 218.038 288.342 218.627 288.008 219.127C287.673 219.628 287.198 220.018 286.642 220.248C286.086 220.478 285.474 220.539 284.884 220.421C284.294 220.304 283.751 220.014 283.326 219.588C282.9 219.163 282.61 218.621 282.493 218.03C282.376 217.44 282.436 216.828 282.666 216.272C282.896 215.716 283.286 215.241 283.787 214.906C284.287 214.572 284.876 214.394 285.477 214.394C286.823 214.394 288.113 213.859 289.064 212.908C290.015 211.957 290.549 210.667 290.549 209.322V190.049ZM285.477 245.886C286.079 245.886 286.668 246.064 287.168 246.398C287.669 246.733 288.059 247.208 288.289 247.764C288.519 248.32 288.579 248.932 288.462 249.522C288.345 250.113 288.055 250.655 287.629 251.08C287.204 251.506 286.661 251.796 286.071 251.913C285.481 252.031 284.869 251.97 284.313 251.74C283.757 251.51 283.282 251.12 282.947 250.619C282.613 250.119 282.434 249.53 282.434 248.929C282.434 248.528 282.514 248.13 282.668 247.76C282.822 247.39 283.047 247.054 283.332 246.771C283.616 246.488 283.954 246.264 284.325 246.112C284.696 245.96 285.093 245.883 285.494 245.886H285.477ZM295.621 245.886C296.223 245.886 296.811 246.064 297.312 246.398C297.812 246.733 298.202 247.208 298.432 247.764C298.663 248.32 298.723 248.932 298.606 249.522C298.488 250.113 298.198 250.655 297.773 251.08C297.347 251.506 296.805 251.796 296.215 251.913C295.624 252.031 295.012 251.97 294.456 251.74C293.9 251.51 293.425 251.12 293.091 250.619C292.756 250.119 292.578 249.53 292.578 248.929C292.578 248.527 292.658 248.129 292.812 247.758C292.967 247.387 293.193 247.05 293.479 246.767C293.764 246.484 294.103 246.261 294.475 246.109C294.847 245.958 295.246 245.882 295.648 245.886H295.621Z" fill="#0F1012"/>
<path d="M308.391 187.003C309.198 187.003 309.972 186.683 310.543 186.112C311.114 185.541 311.434 184.767 311.434 183.96C311.434 182.957 311.732 181.977 312.289 181.142C312.846 180.308 313.638 179.658 314.565 179.274C315.492 178.891 316.512 178.79 317.496 178.986C318.479 179.182 319.383 179.665 320.092 180.374C320.802 181.083 321.285 181.987 321.48 182.971C321.676 183.955 321.576 184.974 321.192 185.901C320.808 186.828 320.158 187.62 319.324 188.177C318.49 188.734 317.509 189.032 316.506 189.032C315.699 189.032 314.925 189.353 314.354 189.923C313.784 190.494 313.463 191.268 313.463 192.075C313.463 193.078 313.166 194.059 312.608 194.893C312.051 195.727 311.259 196.377 310.332 196.761C309.405 197.144 308.386 197.245 307.402 197.049C306.418 196.854 305.514 196.37 304.805 195.661C304.096 194.952 303.613 194.048 303.417 193.064C303.221 192.081 303.322 191.061 303.706 190.134C304.09 189.207 304.74 188.415 305.574 187.858C306.408 187.301 307.388 187.003 308.391 187.003ZM308.391 243.857C307.388 243.857 306.408 243.56 305.574 243.003C304.74 242.445 304.09 241.653 303.706 240.726C303.322 239.8 303.221 238.78 303.417 237.796C303.613 236.812 304.096 235.909 304.805 235.199C305.514 234.49 306.418 234.007 307.402 233.811C308.386 233.616 309.405 233.716 310.332 234.1C311.259 234.484 312.051 235.134 312.608 235.968C313.166 236.802 313.463 237.782 313.463 238.786C313.463 239.593 313.784 240.367 314.354 240.937C314.925 241.508 315.699 241.829 316.506 241.829C317.509 241.829 318.49 242.126 319.324 242.683C320.158 243.241 320.808 244.033 321.192 244.959C321.576 245.886 321.676 246.906 321.48 247.89C321.285 248.874 320.802 249.777 320.092 250.487C319.383 251.196 318.479 251.679 317.496 251.875C316.512 252.07 315.492 251.97 314.565 251.586C313.638 251.202 312.846 250.552 312.289 249.718C311.732 248.884 311.434 247.903 311.434 246.9C311.434 246.093 311.114 245.319 310.543 244.749C309.972 244.178 309.198 243.857 308.391 243.857ZM316.506 210.353C317.509 210.353 318.49 210.651 319.324 211.208C320.158 211.765 320.808 212.558 321.192 213.484C321.576 214.411 321.676 215.431 321.48 216.415C321.285 217.398 320.802 218.302 320.092 219.011C319.383 219.721 318.479 220.204 317.496 220.399C316.512 220.595 315.492 220.495 314.565 220.111C313.638 219.727 312.846 219.077 312.289 218.243C311.732 217.409 311.434 216.428 311.434 215.425C311.434 214.759 311.566 214.099 311.821 213.483C312.076 212.867 312.451 212.308 312.922 211.837C313.394 211.365 313.954 210.992 314.57 210.738C315.186 210.483 315.846 210.353 316.513 210.353H316.506ZM339.856 223.54C339.856 222.733 339.536 221.959 338.965 221.388C338.394 220.818 337.62 220.497 336.813 220.497C335.468 220.497 334.178 219.963 333.227 219.011C332.276 218.06 331.742 216.77 331.742 215.425C331.742 214.08 332.276 212.79 333.227 211.839C334.178 210.888 335.468 210.353 336.813 210.353C337.62 210.353 338.394 210.033 338.965 209.462C339.536 208.891 339.856 208.117 339.856 207.31V192.095C339.856 191.288 339.536 190.514 338.965 189.943C338.394 189.373 337.62 189.052 336.813 189.052C335.81 189.052 334.83 188.755 333.996 188.197C333.162 187.64 332.511 186.848 332.128 185.921C331.744 184.995 331.643 183.975 331.839 182.991C332.035 182.007 332.518 181.103 333.227 180.394C333.936 179.685 334.84 179.202 335.824 179.006C336.808 178.81 337.827 178.911 338.754 179.295C339.681 179.679 340.473 180.329 341.03 181.163C341.588 181.997 341.885 182.977 341.885 183.98C341.885 184.788 342.206 185.562 342.776 186.132C343.347 186.703 344.121 187.023 344.928 187.023C346.273 187.023 347.563 187.558 348.514 188.509C349.465 189.46 350 190.75 350 192.095V207.31C350 208.656 349.465 209.946 348.514 210.897C347.563 211.848 346.273 212.382 344.928 212.382C344.121 212.382 343.347 212.703 342.776 213.273C342.206 213.844 341.885 214.618 341.885 215.425C341.885 216.232 342.206 217.006 342.776 217.577C343.347 218.148 344.121 218.468 344.928 218.468C346.273 218.468 347.563 219.003 348.514 219.954C349.465 220.905 350 222.195 350 223.54V238.755C350 240.1 349.465 241.39 348.514 242.341C347.563 243.292 346.273 243.827 344.928 243.827C344.121 243.827 343.347 244.147 342.776 244.718C342.206 245.289 341.885 246.063 341.885 246.87C341.885 247.873 341.588 248.854 341.03 249.688C340.473 250.522 339.681 251.172 338.754 251.556C337.827 251.939 336.808 252.04 335.824 251.844C334.84 251.648 333.936 251.165 333.227 250.456C332.518 249.747 332.035 248.843 331.839 247.859C331.643 246.876 331.744 245.856 332.128 244.929C332.511 244.002 333.162 243.21 333.996 242.653C334.83 242.096 335.81 241.798 336.813 241.798C337.62 241.798 338.394 241.478 338.965 240.907C339.536 240.336 339.856 239.562 339.856 238.755V223.54Z" fill="#0F1012"/>
</svg>
