<svg width="339" height="90" viewBox="0 0 339 90" fill="none" xmlns="http://www.w3.org/2000/svg">
<path d="M22.5114 24.0147C22.1322 24.0162 21.7564 23.9425 21.4057 23.7981C21.055 23.6536 20.7364 23.4412 20.4683 23.173C20.2001 22.9049 19.9877 22.5863 19.8432 22.2356C19.6988 21.8849 19.6251 21.5091 19.6266 21.1299C19.627 20.7872 19.5257 20.4521 19.3356 20.1669C19.1454 19.8818 18.875 19.6595 18.5585 19.5281C18.242 19.3967 17.8936 19.3621 17.5574 19.4287C17.2213 19.4954 16.9124 19.6602 16.67 19.9024C16.4275 20.1446 16.2623 20.4533 16.1953 20.7894C16.1283 21.1255 16.1625 21.4739 16.2936 21.7906C16.4247 22.1072 16.6467 22.3779 16.9316 22.5683C17.2165 22.7588 17.5515 22.8604 17.8943 22.8604C18.2737 22.8587 18.6496 22.9321 19.0005 23.0765C19.3514 23.2208 19.6702 23.4332 19.9386 23.7014C20.207 23.9696 20.4196 24.2883 20.5641 24.6391C20.7087 24.9899 20.7824 25.3658 20.7809 25.7452V35.5557C20.7824 35.9351 20.7087 36.3111 20.5641 36.6619C20.4196 37.0126 20.207 37.3313 19.9386 37.5995C19.6702 37.8677 19.3514 38.0801 19.0005 38.2245C18.6496 38.3688 18.2737 38.4422 17.8943 38.4405C17.5516 38.4405 17.2167 38.5421 16.9318 38.7325C16.6469 38.9228 16.4249 39.1934 16.2938 39.5099C16.1626 39.8265 16.1283 40.1748 16.1952 40.5108C16.262 40.8469 16.427 41.1556 16.6693 41.3978C16.9116 41.6401 17.2202 41.8051 17.5563 41.872C17.8923 41.9388 18.2407 41.9045 18.5572 41.7734C18.8737 41.6423 19.1443 41.4202 19.3347 41.1353C19.525 40.8504 19.6266 40.5155 19.6266 40.1729C19.6251 39.7936 19.6988 39.4178 19.8432 39.0672C19.9877 38.7165 20.2001 38.3979 20.4683 38.1297C20.7364 37.8616 21.055 37.6491 21.4057 37.5047C21.7564 37.3602 22.1322 37.2866 22.5114 37.2881C22.739 37.2888 22.9645 37.2445 23.1749 37.1577C23.3854 37.0709 23.5765 36.9433 23.7374 36.7822C23.8982 36.6212 24.0256 36.4299 24.1122 36.2194C24.1988 36.0089 24.2429 35.7833 24.2419 35.5557V25.7452C24.2429 25.5177 24.1988 25.2922 24.1122 25.0818C24.0256 24.8714 23.8981 24.6802 23.7373 24.5194C23.5764 24.3585 23.3852 24.231 23.1748 24.1444C22.9644 24.0578 22.7389 24.0137 22.5114 24.0147Z" fill="#E8F452"/>
<path d="M22.5114 4.96985C22.1322 4.97132 21.7564 4.8977 21.4057 4.75325C21.055 4.6088 20.7364 4.39636 20.4683 4.12819C20.2001 3.86002 19.9877 3.54142 19.8432 3.19075C19.6988 2.84009 19.6251 2.4643 19.6266 2.08505C19.6266 1.74242 19.525 1.40749 19.3347 1.1226C19.1443 0.837719 18.8737 0.615678 18.5572 0.48456C18.2407 0.353442 17.8923 0.319136 17.5563 0.385979C17.2202 0.452823 16.9116 0.617814 16.6693 0.860089C16.427 1.10236 16.262 1.41104 16.1952 1.74709C16.1283 2.08313 16.1626 2.43145 16.2938 2.748C16.4249 3.06455 16.6469 3.3351 16.9318 3.52546C17.2167 3.71581 17.5516 3.81741 17.8943 3.81741C18.2737 3.8157 18.6496 3.88913 19.0005 4.03347C19.3514 4.17782 19.6702 4.39022 19.9386 4.65841C20.207 4.92661 20.4196 5.24529 20.5641 5.59608C20.7087 5.94686 20.7824 6.3228 20.7809 6.70221C20.7813 7.04439 20.8831 7.37879 21.0734 7.66312C21.2638 7.94746 21.5342 8.16897 21.8505 8.29967C22.1667 8.43036 22.5146 8.46437 22.8502 8.39739C23.1857 8.3304 23.4939 8.16544 23.7357 7.92335C23.9775 7.68126 24.1422 7.37291 24.2088 7.03728C24.2754 6.70165 24.241 6.35379 24.11 6.03769C23.979 5.72159 23.7572 5.45143 23.4726 5.26136C23.1881 5.0713 22.8536 4.96985 22.5114 4.96985Z" fill="#E8F452"/>
<path d="M12.1246 38.4405C11.7819 38.4402 11.4468 38.5415 11.1617 38.7316C10.8766 38.9217 10.6542 39.1922 10.5228 39.5087C10.3914 39.8252 10.3569 40.1736 10.4235 40.5097C10.4901 40.8459 10.655 41.1547 10.8972 41.3972C11.1394 41.6397 11.448 41.8048 11.7841 41.8718C12.1202 41.9388 12.4686 41.9046 12.7853 41.7736C13.102 41.6425 13.3726 41.4205 13.5631 41.1355C13.7535 40.8506 13.8551 40.5156 13.8551 40.1729C13.8561 39.9453 13.812 39.7197 13.7255 39.5092C13.6389 39.2987 13.5115 39.1074 13.3506 38.9464C13.1897 38.7854 12.9986 38.6578 12.7882 38.5709C12.5778 38.4841 12.3523 38.4398 12.1246 38.4405Z" fill="#E8F452"/>
<path d="M6.34951 3.81741C6.69222 3.81778 7.02734 3.71649 7.31246 3.52636C7.59759 3.33623 7.81992 3.0658 7.95133 2.74928C8.08273 2.43277 8.1173 2.08439 8.05066 1.74822C7.98403 1.41205 7.81919 1.1032 7.57698 0.860744C7.33478 0.618284 7.02611 0.453109 6.69001 0.386115C6.35392 0.319121 6.0055 0.35332 5.68885 0.484383C5.37219 0.615447 5.10153 0.837486 4.91109 1.12241C4.72065 1.40734 4.61901 1.74234 4.61901 2.08505C4.62047 2.46414 4.54692 2.83978 4.40258 3.19032C4.25824 3.54086 4.04597 3.85938 3.778 4.12753C3.51002 4.39568 3.19164 4.60815 2.84119 4.75271C2.49074 4.89728 2.11516 4.97107 1.73606 4.96985C1.50845 4.96911 1.28294 5.01343 1.07253 5.10025C0.86212 5.18708 0.670976 5.31468 0.510112 5.47572C0.349249 5.63675 0.221848 5.82803 0.135251 6.03853C0.0486548 6.24903 0.00457581 6.47459 0.00555495 6.70221V16.522C0.00457421 16.7495 0.0486657 16.975 0.135284 17.1854C0.221903 17.3958 0.349335 17.587 0.510223 17.7478C0.671111 17.9087 0.862269 18.0362 1.07267 18.1228C1.28306 18.2094 1.50853 18.2535 1.73606 18.2525C2.11555 18.251 2.49158 18.3247 2.84247 18.4692C3.19336 18.6138 3.51217 18.8264 3.78051 19.0947C4.04885 19.3631 4.26142 19.6819 4.40597 20.0327C4.55052 20.3836 4.62418 20.7597 4.62271 21.1392C4.62491 21.4811 4.72836 21.8147 4.92 22.0979C5.11165 22.3811 5.3829 22.6012 5.69951 22.7303C6.01612 22.8595 6.3639 22.892 6.69895 22.8236C7.034 22.7553 7.3413 22.5893 7.58205 22.3465C7.82281 22.1036 7.98623 21.7949 8.05169 21.4593C8.11714 21.1237 8.0817 20.7762 7.94984 20.4607C7.81797 20.1452 7.59559 19.8758 7.31077 19.6866C7.02595 19.4974 6.69146 19.3968 6.34951 19.3975C5.97026 19.399 5.59447 19.3254 5.24381 19.1809C4.89315 19.0365 4.57455 18.824 4.30638 18.5559C4.0382 18.2877 3.82577 17.9691 3.68131 17.6184C3.53686 17.2678 3.46325 16.892 3.46472 16.5127V6.70221C3.46325 6.32296 3.53686 5.94717 3.68131 5.59651C3.82577 5.24584 4.0382 4.92724 4.30638 4.65907C4.57455 4.3909 4.89315 4.17846 5.24381 4.03401C5.59447 3.88955 5.97026 3.81594 6.34951 3.81741Z" fill="#E8F452"/>
<path d="M12.1246 19.3975C11.7819 19.3972 11.4468 19.4985 11.1617 19.6886C10.8766 19.8787 10.6542 20.1492 10.5228 20.4657C10.3914 20.7822 10.3569 21.1306 10.4235 21.4667C10.4901 21.8029 10.655 22.1118 10.8972 22.3542C11.1394 22.5967 11.448 22.7618 11.7841 22.8288C12.1202 22.8958 12.4686 22.8616 12.7853 22.7306C13.102 22.5995 13.3726 22.3775 13.5631 22.0925C13.7535 21.8076 13.8551 21.4726 13.8551 21.1299C13.8564 20.9022 13.8125 20.6766 13.726 20.4659C13.6394 20.2553 13.5121 20.0639 13.3511 19.9029C13.1902 19.7418 12.999 19.6142 12.7885 19.5274C12.5779 19.4407 12.3523 19.3966 12.1246 19.3975Z" fill="#E8F452"/>
<path d="M6.34952 38.4405C5.97027 38.442 5.59448 38.3684 5.24382 38.2239C4.89315 38.0795 4.57455 37.867 4.30638 37.5989C4.03821 37.3307 3.82577 37.0121 3.68132 36.6614C3.53686 36.3108 3.46325 35.935 3.46472 35.5557C3.46472 35.2131 3.36312 34.8782 3.17277 34.5933C2.98241 34.3084 2.71185 34.0864 2.39531 33.9552C2.07876 33.8241 1.73044 33.7898 1.39439 33.8567C1.05835 33.9235 0.749672 34.0885 0.507397 34.3308C0.265123 34.573 0.100131 34.8817 0.0332875 35.2178C-0.033556 35.5538 0.000750792 35.9021 0.131869 36.2187C0.262987 36.5352 0.485028 36.8058 0.769913 36.9961C1.0548 37.1865 1.38973 37.2881 1.73236 37.2881C2.11177 37.2864 2.48775 37.3598 2.83863 37.5042C3.18951 37.6485 3.50833 37.8609 3.7767 38.1291C4.04507 38.3973 4.25767 38.716 4.40224 39.0668C4.54681 39.4175 4.62048 39.7935 4.61901 40.1729C4.61938 40.5151 4.72118 40.8495 4.91155 41.1338C5.10193 41.4181 5.37232 41.6397 5.68856 41.7704C6.0048 41.901 6.35269 41.9351 6.68826 41.8681C7.02382 41.8011 7.33199 41.6361 7.57382 41.394C7.81565 41.1519 7.98029 40.8436 8.04691 40.508C8.11353 40.1723 8.07915 39.8245 7.94812 39.5084C7.81709 39.1923 7.59528 38.9221 7.31074 38.732C7.0262 38.542 6.6917 38.4405 6.34952 38.4405Z" fill="#E8F452"/>
<path d="M109.076 22.8604C110.031 22.8604 110.806 22.0856 110.806 21.1299C110.806 20.1742 110.031 19.3994 109.076 19.3994C108.12 19.3994 107.345 20.1742 107.345 21.1299C107.345 22.0856 108.12 22.8604 109.076 22.8604Z" fill="#E8F452"/>
<path d="M119.462 4.96985C119.083 4.97132 118.707 4.8977 118.357 4.75325C118.006 4.6088 117.687 4.39636 117.419 4.12819C117.151 3.86002 116.939 3.54142 116.794 3.19075C116.65 2.84009 116.576 2.4643 116.578 2.08505C116.578 1.74242 116.476 1.40749 116.286 1.1226C116.095 0.837719 115.825 0.615678 115.508 0.48456C115.192 0.353442 114.843 0.319136 114.507 0.385979C114.171 0.452823 113.863 0.617814 113.62 0.860088C113.378 1.10236 113.213 1.41104 113.146 1.74709C113.079 2.08313 113.114 2.43145 113.245 2.748C113.376 3.06454 113.598 3.3351 113.883 3.52546C114.168 3.71581 114.503 3.81741 114.845 3.81741C115.225 3.8157 115.601 3.88913 115.951 4.03347C116.302 4.17782 116.621 4.39022 116.89 4.65841C117.158 4.92661 117.371 5.24529 117.515 5.59608C117.66 5.94686 117.733 6.3228 117.732 6.70221V16.522C117.733 16.9014 117.66 17.2773 117.515 17.6281C117.371 17.9789 117.158 18.2976 116.89 18.5658C116.621 18.834 116.302 19.0464 115.951 19.1907C115.601 19.3351 115.225 19.4085 114.845 19.4068C114.396 19.4215 113.97 19.6104 113.657 19.9335C113.344 20.2566 113.17 20.6886 113.17 21.1382C113.17 21.5879 113.344 22.0199 113.657 22.343C113.97 22.6661 114.396 22.855 114.845 22.8697C115.225 22.8679 115.601 22.9414 115.951 23.0857C116.302 23.2301 116.621 23.4425 116.89 23.7107C117.158 23.9789 117.371 24.2975 117.515 24.6483C117.66 24.9991 117.733 25.3751 117.732 25.7545V40.1821C117.732 40.6411 117.914 41.0813 118.239 41.4058C118.563 41.7303 119.003 41.9127 119.462 41.9127C119.921 41.9127 120.361 41.7303 120.686 41.4058C121.011 41.0813 121.193 40.6411 121.193 40.1821V25.7452C121.194 25.5177 121.15 25.2922 121.063 25.0818C120.977 24.8714 120.849 24.6802 120.688 24.5194C120.527 24.3585 120.336 24.231 120.126 24.1444C119.915 24.0578 119.69 24.0137 119.462 24.0147C118.71 23.9956 117.994 23.6832 117.469 23.1441C116.943 22.605 116.649 21.8819 116.649 21.129C116.649 20.376 116.943 19.6529 117.469 19.1138C117.994 18.5747 118.71 18.2623 119.462 18.2432C119.69 18.2442 119.915 18.2001 120.126 18.1135C120.336 18.0269 120.527 17.8995 120.688 17.7386C120.849 17.5777 120.977 17.3865 121.063 17.1761C121.15 16.9657 121.194 16.7403 121.193 16.5127V6.70221C121.194 6.47459 121.15 6.24904 121.063 6.03853C120.977 5.82803 120.849 5.63675 120.688 5.47572C120.527 5.31468 120.336 5.18708 120.126 5.10025C119.916 5.01343 119.69 4.96911 119.462 4.96985Z" fill="#E8F452"/>
<path d="M103.304 0.354546C102.961 0.35418 102.626 0.455516 102.341 0.645729C102.056 0.835942 101.834 1.10648 101.702 1.4231C101.571 1.73973 101.536 2.0882 101.603 2.42442C101.67 2.76064 101.835 3.06948 102.077 3.31187C102.32 3.55425 102.629 3.71928 102.965 3.78607C103.301 3.85285 103.65 3.81839 103.966 3.68704C104.283 3.55569 104.553 3.33337 104.744 3.0482C104.934 2.76303 105.035 2.42784 105.035 2.08505C105.036 1.85753 104.992 1.63206 104.905 1.42166C104.818 1.21126 104.691 1.0201 104.53 0.859213C104.369 0.698325 104.178 0.570895 103.968 0.484276C103.757 0.397657 103.532 0.353566 103.304 0.354546Z" fill="#E8F452"/>
<path d="M103.304 22.8604C104.26 22.8604 105.035 22.0856 105.035 21.1299C105.035 20.1742 104.26 19.3994 103.304 19.3994C102.348 19.3994 101.574 20.1742 101.574 21.1299C101.574 22.0856 102.348 22.8604 103.304 22.8604Z" fill="#E8F452"/>
<path d="M97.5328 0.354546C97.3052 0.353566 97.0798 0.397657 96.8694 0.484276C96.659 0.570895 96.4678 0.698325 96.3069 0.859213C96.146 1.0201 96.0186 1.21126 95.932 1.42166C95.8454 1.63206 95.8013 1.85753 95.8023 2.08505V40.1729C95.817 40.6223 96.0058 41.0484 96.3289 41.3611C96.652 41.6738 97.0841 41.8486 97.5337 41.8486C97.9833 41.8486 98.4154 41.6738 98.7385 41.3611C99.0616 41.0484 99.2504 40.6223 99.2651 40.1729V2.08505C99.2659 1.85744 99.2215 1.63193 99.1347 1.42152C99.0479 1.21111 98.9203 1.01997 98.7593 0.859104C98.5982 0.69824 98.407 0.570839 98.1964 0.484243C97.9859 0.397646 97.7604 0.353567 97.5328 0.354546Z" fill="#E8F452"/>
<path d="M189.481 0.354546C189.254 0.353566 189.028 0.397657 188.818 0.484276C188.607 0.570895 188.416 0.698325 188.255 0.859213C188.095 1.0201 187.967 1.21126 187.88 1.42166C187.794 1.63206 187.75 1.85753 187.751 2.08505V40.1729C187.765 40.6223 187.954 41.0484 188.277 41.3611C188.601 41.6738 189.033 41.8486 189.482 41.8486C189.932 41.8486 190.364 41.6738 190.687 41.3611C191.01 41.0484 191.199 40.6223 191.214 40.1729V2.08505C191.214 1.85744 191.17 1.63193 191.083 1.42152C190.996 1.21111 190.869 1.01997 190.708 0.859104C190.547 0.69824 190.355 0.570839 190.145 0.484243C189.934 0.397646 189.709 0.353567 189.481 0.354546Z" fill="#E8F452"/>
<path d="M183.712 22.8604C184.667 22.8604 185.442 22.0856 185.442 21.1299C185.442 20.1742 184.667 19.3994 183.712 19.3994C182.756 19.3994 181.981 20.1742 181.981 21.1299C181.981 22.0856 182.756 22.8604 183.712 22.8604Z" fill="#E8F452"/>
<path d="M172.169 22.8604C173.124 22.8604 173.899 22.0856 173.899 21.1299C173.899 20.1742 173.124 19.3994 172.169 19.3994C171.213 19.3994 170.438 20.1742 170.438 21.1299C170.438 22.0856 171.213 22.8604 172.169 22.8604Z" fill="#E8F452"/>
<path d="M166.399 0.354546C166.172 0.353567 165.946 0.397646 165.736 0.484243C165.525 0.570839 165.334 0.69824 165.173 0.859104C165.012 1.01997 164.884 1.21111 164.797 1.42152C164.71 1.63193 164.666 1.85744 164.667 2.08505V40.1729C164.682 40.6223 164.87 41.0484 165.193 41.3611C165.517 41.6738 165.949 41.8486 166.398 41.8486C166.848 41.8486 167.28 41.6738 167.603 41.3611C167.926 41.0484 168.115 40.6223 168.13 40.1729V2.08505C168.131 1.85753 168.087 1.63206 168 1.42166C167.913 1.21126 167.786 1.0201 167.625 0.859213C167.464 0.698325 167.273 0.570895 167.063 0.484276C166.852 0.397657 166.627 0.353566 166.399 0.354546Z" fill="#E8F452"/>
<path d="M12.1246 0.354546C11.7819 0.35418 11.4467 0.455516 11.1615 0.645729C10.8763 0.835942 10.654 1.10648 10.5227 1.4231C10.3913 1.73973 10.3568 2.0882 10.4236 2.42442C10.4904 2.76064 10.6554 3.06948 10.8978 3.31187C11.1402 3.55425 11.4491 3.71928 11.7853 3.78607C12.1215 3.85285 12.47 3.81839 12.7866 3.68704C13.1032 3.55569 13.3737 3.33337 13.564 3.0482C13.7542 2.76303 13.8555 2.42784 13.8551 2.08505C13.8561 1.85753 13.812 1.63206 13.7254 1.42166C13.6388 1.21126 13.5114 1.0201 13.3505 0.859213C13.1896 0.698325 12.9984 0.570895 12.788 0.484276C12.5776 0.397657 12.3522 0.353566 12.1246 0.354546Z" fill="#E8F452"/>
<path d="M109.076 0.354546C108.733 0.35418 108.398 0.455516 108.113 0.645729C107.827 0.835942 107.605 1.10648 107.474 1.4231C107.342 1.73973 107.308 2.0882 107.375 2.42442C107.441 2.76064 107.606 3.06948 107.849 3.31187C108.091 3.55425 108.4 3.71928 108.736 3.78607C109.073 3.85285 109.421 3.81839 109.738 3.68704C110.054 3.55569 110.325 3.33337 110.515 3.0482C110.705 2.76303 110.807 2.42784 110.806 2.08505C110.807 1.85753 110.763 1.63206 110.676 1.42166C110.59 1.21126 110.462 1.0201 110.302 0.859213C110.141 0.698325 109.949 0.570895 109.739 0.484276C109.529 0.397657 109.303 0.353566 109.076 0.354546Z" fill="#E8F452"/>
<path d="M177.94 22.8604C178.896 22.8604 179.671 22.0856 179.671 21.1299C179.671 20.1742 178.896 19.3994 177.94 19.3994C176.984 19.3994 176.21 20.1742 176.21 21.1299C176.21 22.0856 176.984 22.8604 177.94 22.8604Z" fill="#E8F452"/>
<path d="M231.341 0.714005C231.114 0.713025 230.888 0.757116 230.678 0.843735C230.468 0.930354 230.276 1.05778 230.116 1.21867C229.955 1.37956 229.827 1.57072 229.741 1.78112C229.654 1.99152 229.61 2.21698 229.611 2.44451V40.5323C229.603 40.7645 229.642 40.9958 229.726 41.2125C229.81 41.4292 229.936 41.6269 230.097 41.7938C230.259 41.9607 230.452 42.0934 230.666 42.184C230.88 42.2746 231.11 42.3214 231.342 42.3214C231.575 42.3214 231.804 42.2746 232.018 42.184C232.232 42.0934 232.426 41.9607 232.587 41.7938C232.749 41.6269 232.875 41.4292 232.959 41.2125C233.042 40.9958 233.081 40.7645 233.074 40.5323V2.44451C233.074 2.2169 233.03 1.99139 232.943 1.78098C232.857 1.57057 232.729 1.37943 232.568 1.21856C232.407 1.0577 232.216 0.930298 232.005 0.843702C231.795 0.757105 231.569 0.713026 231.341 0.714005Z" fill="#E8F452"/>
<path d="M297.321 23.2198C298.277 23.2198 299.052 22.4451 299.052 21.4893C299.052 20.5336 298.277 19.7588 297.321 19.7588C296.365 19.7588 295.591 20.5336 295.591 21.4893C295.591 22.4451 296.365 23.2198 297.321 23.2198Z" fill="#E8F452"/>
<path d="M303.093 0.713999C302.865 0.712773 302.639 0.756683 302.429 0.843192C302.218 0.929701 302.027 1.05709 301.866 1.21801C301.704 1.37892 301.577 1.57016 301.49 1.78068C301.403 1.9912 301.359 2.21682 301.36 2.44451V40.5323C301.353 40.7645 301.392 40.9958 301.475 41.2125C301.559 41.4292 301.685 41.6268 301.847 41.7937C302.008 41.9606 302.202 42.0934 302.416 42.184C302.629 42.2746 302.859 42.3213 303.092 42.3213C303.324 42.3213 303.554 42.2746 303.768 42.184C303.982 42.0934 304.175 41.9606 304.336 41.7937C304.498 41.6268 304.624 41.4292 304.708 41.2125C304.792 40.9958 304.831 40.7645 304.823 40.5323V2.44451C304.824 2.21698 304.78 1.99151 304.693 1.78111C304.607 1.57071 304.479 1.37955 304.318 1.21867C304.158 1.05778 303.966 0.930347 303.756 0.843728C303.546 0.75711 303.32 0.713018 303.093 0.713999Z" fill="#E8F452"/>
<path d="M285.78 23.2198C286.736 23.2198 287.511 22.4451 287.511 21.4893C287.511 20.5336 286.736 19.7588 285.78 19.7588C284.824 19.7588 284.05 20.5336 284.05 21.4893C284.05 22.4451 284.824 23.2198 285.78 23.2198Z" fill="#E8F452"/>
<path d="M280.007 0.714005C279.779 0.713025 279.554 0.757116 279.343 0.843735C279.133 0.930353 278.942 1.05778 278.781 1.21867C278.62 1.37956 278.493 1.57072 278.406 1.78112C278.319 1.99151 278.275 2.21698 278.276 2.44451V40.5323C278.276 40.9913 278.459 41.4315 278.783 41.756C279.108 42.0805 279.548 42.2628 280.007 42.2628C280.466 42.2628 280.906 42.0805 281.23 41.756C281.555 41.4315 281.737 40.9913 281.737 40.5323V2.44451C281.738 2.21698 281.694 1.99151 281.608 1.78112C281.521 1.57072 281.394 1.37956 281.233 1.21867C281.072 1.05778 280.881 0.930353 280.67 0.843735C280.46 0.757116 280.234 0.713025 280.007 0.714005Z" fill="#E8F452"/>
<path d="M291.55 23.2198C292.505 23.2198 293.28 22.4451 293.28 21.4893C293.28 20.5336 292.505 19.7588 291.55 19.7588C290.594 19.7588 289.819 20.5336 289.819 21.4893C289.819 22.4451 290.594 23.2198 291.55 23.2198Z" fill="#E8F452"/>
<path d="M203.214 34.2273C204.98 34.6831 206.021 35.754 206.519 37.4789C206.583 37.3587 206.64 37.235 206.69 37.1084C207.231 35.3816 208.611 34.2384 210.41 34.2162C213.983 34.1717 217.555 34.1606 221.125 34.2162C223.348 34.2514 225.016 36.0819 224.983 38.2923C224.981 38.8142 224.876 39.3307 224.674 39.8121C224.473 40.2935 224.178 40.7303 223.807 41.0974C223.436 41.4646 222.996 41.7549 222.513 41.9517C222.029 42.1485 221.512 42.248 220.99 42.2443C214.83 42.2616 208.669 42.2616 202.506 42.2443C200.255 42.2443 198.577 40.5768 198.501 38.309C198.475 37.5327 198.501 36.7563 198.501 35.98C198.501 25.7044 198.501 15.4289 198.501 5.15328C198.501 3.88412 198.782 2.74465 199.731 1.85902C201.004 0.671377 202.499 0.400869 204.09 1.04564C205.63 1.67003 206.427 2.89843 206.564 4.55297C206.592 4.89204 206.575 5.2348 206.575 5.57572C206.575 13.4853 206.54 21.3967 206.597 29.3063C206.599 31.5704 205.877 33.3861 203.214 34.2273Z" fill="white"/>
<path d="M261.823 19.1085C263.324 17.0408 266.35 17.152 267.638 19.1567C267.955 19.7003 268.159 20.303 268.236 20.9279C268.38 21.8821 268.623 22.1953 269.603 22.2953C271.691 22.5121 272.968 23.9313 272.972 26.0491C272.972 28.6306 272.972 31.2103 272.972 33.7882C272.972 35.9633 271.675 37.3659 269.513 37.5679C268.695 37.642 268.31 38.0014 268.266 38.7944C268.179 40.386 267.41 41.5217 265.916 42.0312C264.423 42.5408 263.031 42.1961 261.953 40.9455C261.913 40.9071 261.868 40.8741 261.82 40.8473C260.182 42.7168 257.54 42.7112 256.054 40.9807C255.289 41.3809 254.594 41.9071 253.814 42.1183C251.678 42.6945 249.671 41.1678 249.51 38.9575C249.438 37.9607 249.139 37.6512 248.12 37.5567C246.232 37.3715 244.946 36.0745 244.802 34.1773C244.737 33.3157 244.376 32.9322 243.573 32.8692C241.402 32.7006 240.118 31.3184 240.111 29.1025C240.099 25.6563 240.111 22.2119 240.111 18.7657C240.111 16.9129 240.111 15.0694 240.111 13.2222C240.111 10.9507 241.293 9.64815 243.56 9.39062C244.404 9.29612 244.737 8.94595 244.804 8.09366C244.954 6.14082 246.249 4.85498 248.224 4.69935C249.032 4.63635 249.443 4.27506 249.495 3.48762C249.599 1.88311 250.353 0.728817 251.88 0.211888C253.406 -0.305041 254.755 0.139629 255.819 1.37359C255.867 1.41554 255.918 1.45393 255.972 1.48846C256.292 1.02152 256.723 0.641527 257.226 0.382759C257.73 0.123991 258.289 -0.00541048 258.855 0.00622802C259.436 -0.00364866 260.01 0.131464 260.525 0.399333C261.041 0.667203 261.481 1.05937 261.807 1.54034C262.218 0.944357 262.802 0.488628 263.48 0.234467C264.158 -0.0196945 264.898 -0.0600939 265.599 0.118705C266.301 0.297504 266.931 0.686921 267.405 1.23457C267.878 1.78221 268.173 2.4618 268.249 3.18191C268.351 4.36029 268.592 4.603 269.755 4.70676C270.425 4.76739 271.064 5.01872 271.595 5.43101C272.127 5.8433 272.529 6.39927 272.755 7.03311C272.98 7.66695 273.019 8.35211 272.867 9.00747C272.716 9.66284 272.379 10.261 271.898 10.731C271.417 11.2011 270.811 11.5234 270.152 11.6599C269.493 11.7963 268.809 11.7411 268.181 11.5009C267.552 11.2606 267.006 10.8454 266.606 10.3042C266.207 9.7631 265.97 9.11878 265.926 8.44755C265.857 7.49706 265.555 7.10057 264.73 7.05054C263.55 6.97828 262.572 6.55029 261.84 5.60907C259.548 7.51744 257.833 7.52486 255.98 5.65724C255.537 5.98148 255.129 6.37427 254.646 6.61143C254.176 6.82385 253.676 6.96079 253.163 7.01719C252.246 7.14133 251.898 7.46001 251.831 8.36232C251.691 10.28 250.382 11.5788 248.444 11.7288C247.544 11.7992 247.159 12.1809 247.147 13.0869C247.14 18.4378 247.14 23.7893 247.147 29.1414C247.147 30.0678 247.537 30.4606 248.47 30.5384C250.42 30.6996 251.681 31.9724 251.826 33.9253C251.883 34.7035 252.226 35.1537 252.906 35.1852C253.494 35.1981 254.071 35.3434 254.595 35.6103C255.119 35.8772 255.576 36.2588 255.932 36.7267C256.673 35.7521 257.64 35.2167 258.85 35.213C260.06 35.2093 261.023 35.7688 261.814 36.736C262.591 35.6706 263.641 35.2333 264.903 35.1796C265.505 35.1537 265.911 34.6794 265.914 34.042C265.929 31.3098 265.929 28.5763 265.914 25.8416C265.914 25.1134 265.47 24.6965 264.699 24.6539C263.537 24.5928 262.576 24.1629 261.831 23.1809C260.936 24.2037 259.852 24.7651 258.481 24.6224C258.038 24.5799 257.609 24.4493 257.217 24.2384C256.826 24.0274 256.481 23.7403 256.202 23.394C254.976 21.9266 255.111 19.7681 256.493 18.549C258.118 17.1186 260.074 17.3039 261.823 19.1085Z" fill="#E8F452"/>
<path d="M325.348 3.59322C325.217 4.00408 324.988 4.37686 324.681 4.67935C324.374 4.98183 323.997 5.20491 323.584 5.32929C323.751 5.41452 323.825 5.45713 323.901 5.49048C324.854 5.92218 325.383 6.64662 325.395 7.70457C325.408 8.51794 325.395 9.33132 325.395 10.1447C325.395 19.9521 325.395 29.7577 325.395 39.5615C325.395 40.4397 325.209 41.2141 324.489 41.7848C324.192 42.0151 323.844 42.1689 323.474 42.2327C323.104 42.2965 322.724 42.2683 322.368 42.1506C322.012 42.0328 321.69 41.8292 321.431 41.5576C321.172 41.2861 320.984 40.9549 320.883 40.5935C320.801 40.2245 320.765 39.8467 320.776 39.4688C320.776 29.0395 320.75 18.6082 320.792 8.17888C320.792 6.4002 319.805 5.26444 317.957 5.32003C315.48 5.39599 312.999 5.35152 310.52 5.33485C308.929 5.32373 307.901 4.13794 308.134 2.63718C308.199 2.18408 308.404 1.76279 308.722 1.43271C309.039 1.10262 309.451 0.880399 309.902 0.797362C310.218 0.741726 310.54 0.715675 310.861 0.719545C319 0.719545 327.139 0.719545 335.279 0.719545C335.563 0.717328 335.846 0.736527 336.126 0.776981C336.685 0.854917 337.194 1.13891 337.555 1.57322C337.915 2.00753 338.1 2.56081 338.073 3.12447C338.02 4.30099 337.13 5.29409 335.95 5.31261C333.15 5.35523 330.347 5.34782 327.548 5.31261C326.593 5.3015 325.921 4.76789 325.534 3.88967C325.497 3.80444 325.452 3.72292 325.408 3.63954C325.409 3.62843 325.385 3.62102 325.348 3.59322Z" fill="white"/>
<path d="M74.0838 30.6848H63.9898C62.1018 30.6848 61.2459 31.5352 61.244 33.4102C61.244 35.5891 61.2662 37.7698 61.2329 39.9487C61.207 41.6663 59.671 42.739 58.0998 42.1721C57.7162 42.0429 57.3762 41.8092 57.1182 41.4972C56.8603 41.1853 56.6946 40.8074 56.6398 40.4064C56.6013 40.1613 56.5839 39.9133 56.5879 39.6652C56.5879 37.5438 56.5879 35.4223 56.5879 33.299C56.5879 31.6816 57.3291 30.8737 58.9299 30.6885C60.4566 30.5032 61.2347 29.6435 61.2384 28.0834C61.2384 25.1783 61.2384 22.2712 61.2384 19.3661C61.2384 17.6985 61.9277 16.9259 63.5841 16.6925C65.1701 16.4701 65.9019 15.6401 65.9075 14.0337C65.9075 11.9308 65.9075 9.82789 65.9075 7.73423C65.9075 6.02967 66.6671 5.1885 68.342 5.02731C69.5982 4.90688 70.3912 4.1287 70.5487 2.86695C70.7729 1.04751 71.5381 0.367538 73.3835 0.371243C74.1085 0.350775 74.8341 0.371188 75.5568 0.432385C76.6685 0.560227 77.4096 1.35878 77.5337 2.48898C77.7357 4.26396 78.3286 4.8587 80.085 5.0551C81.3727 5.19776 82.2009 6.1149 82.212 7.46373C82.2287 9.64261 82.212 11.8215 82.212 14.0022C82.212 15.6697 82.9532 16.4942 84.6096 16.7054C86.127 16.8907 86.8829 17.7375 86.8885 19.2734C86.8885 22.1804 86.8885 25.0856 86.8885 27.9927C86.8885 29.6991 87.6389 30.5291 89.3268 30.7033C90.696 30.8422 91.5112 31.7112 91.5186 33.0952C91.5334 35.3705 91.5334 37.6457 91.5186 39.9209C91.5186 41.3365 90.5459 42.3166 89.2119 42.3296C87.8779 42.3425 86.907 41.3476 86.894 39.9413C86.8755 37.818 86.894 35.6966 86.894 33.5733C86.894 31.5352 86.0677 30.7033 84.0556 30.7014L74.0838 30.6848ZM84.1519 26.012C82.6697 25.5414 82.1972 24.5891 82.2195 23.281C82.2417 21.8679 82.2417 20.4536 82.2195 19.0381C82.1972 17.7282 81.3764 16.8574 80.0813 16.7054C78.2693 16.4924 77.5671 15.7068 77.5652 13.8818C77.5652 11.7604 77.5764 9.64076 77.5652 7.51931C77.5541 5.95 76.6259 5.04213 75.0547 5.01804C74.4618 5.01804 73.8689 5.01804 73.2779 5.01804C71.4714 5.01804 70.5932 5.88886 70.5858 7.68421C70.5765 9.78713 70.5858 11.8882 70.5858 13.9837C70.5858 15.6512 69.8447 16.4739 68.1901 16.6869C66.669 16.8833 65.9371 17.7078 65.9297 19.253C65.9297 20.5129 65.9019 21.7765 65.9297 23.0364C65.9649 24.4205 65.5592 25.5062 63.9695 26.0102C65.0422 26.3159 65.6555 26.9051 65.8945 27.9389C65.976 27.7536 66.0279 27.6573 66.0668 27.5535C66.4522 26.5197 67.2081 26.0028 68.3013 26.0009C72.1421 26.0009 75.983 25.9787 79.8219 26.0213C80.3668 26.0572 80.8904 26.2467 81.332 26.5679C81.7211 26.8402 81.9508 27.3423 82.2806 27.7814C82.5085 26.9032 83.1273 26.3566 84.1519 26.012Z" fill="white"/>
<path d="M34.6231 21.4078C34.6231 27.5418 34.6231 33.677 34.6231 39.8134C34.6318 40.2209 34.5568 40.6257 34.4026 41.0029C34.242 41.3342 33.9727 41.6004 33.6396 41.7571C33.3065 41.9139 32.9297 41.9518 32.5721 41.8645C32.2111 41.7936 31.8842 41.6041 31.6432 41.3262C31.4021 41.0482 31.2609 40.6978 31.2418 40.3304C31.2307 40.1618 31.2307 39.9932 31.2307 39.8246C31.2307 27.5159 31.2307 15.2078 31.2307 2.90029C31.2307 1.66818 31.7068 1.00859 32.6981 0.862218C32.9203 0.829976 33.1466 0.842533 33.3639 0.89915C33.5812 0.955767 33.7849 1.0553 33.9631 1.19188C34.1413 1.32846 34.2903 1.49932 34.4015 1.69441C34.5126 1.88949 34.5835 2.10484 34.6101 2.32778C34.6308 2.5699 34.6376 2.81302 34.6305 3.05592L34.6231 21.4078Z" fill="white"/>
<path d="M45.4434 4.26395C43.5906 4.26395 41.7489 4.27507 39.9017 4.26395C38.6603 4.25469 37.8525 3.30606 38.1026 2.174C38.1568 1.86726 38.3009 1.58354 38.5166 1.35889C38.7324 1.13423 39.0101 0.978765 39.3144 0.91225C39.5874 0.851692 39.8667 0.82432 40.1463 0.830728C43.674 0.830728 47.2005 0.830728 50.7257 0.830728C50.8939 0.826998 51.0621 0.832565 51.2297 0.847403C52.2246 0.956718 52.8786 1.66263 52.849 2.58903C52.8449 2.81407 52.7962 3.03607 52.7056 3.24213C52.615 3.44818 52.4844 3.63418 52.3213 3.78932C52.1583 3.94447 51.966 4.06566 51.7557 4.14587C51.5454 4.22608 51.3212 4.26369 51.0963 4.25654C49.2064 4.27692 47.3221 4.2621 45.4434 4.26395Z" fill="white"/>
<path d="M45.4156 38.4906C47.2999 38.4906 49.1861 38.472 51.0703 38.4906C52.3414 38.5072 53.1232 39.5837 52.7508 40.7417C52.5155 41.4736 51.9078 41.8904 51.0203 41.8923C48.6895 41.8923 46.3568 41.8923 44.0242 41.8923C42.6624 41.8923 41.3006 41.8923 39.948 41.8923C38.7937 41.8923 38.073 41.2271 38.073 40.1951C38.073 39.1631 38.7993 38.4924 39.9406 38.485C41.7693 38.472 43.598 38.485 45.4249 38.485L45.4156 38.4906Z" fill="white"/>
<path d="M44.2595 23.0827C42.7865 23.0827 41.3135 23.0994 39.8406 23.0827C38.8234 23.0698 38.1249 22.425 38.0674 21.5097C38.0007 20.4407 38.7159 19.6847 39.8554 19.6717C41.4599 19.6532 43.0626 19.6717 44.6726 19.6717C46.0715 19.6717 47.4704 19.6625 48.8692 19.6717C49.2189 19.6616 49.5626 19.7641 49.8496 19.9643C50.1365 20.1645 50.3514 20.4517 50.4626 20.7834C50.7146 21.4097 50.5756 22.2138 50.0087 22.6103C49.5988 22.8859 49.1216 23.0448 48.6283 23.0698C47.1758 23.1272 45.7195 23.0901 44.265 23.0901L44.2595 23.0827Z" fill="white"/>
<path d="M136.556 21.1651C136.556 25.143 136.569 29.121 136.556 33.0989C136.556 35.2537 134.722 36.7563 132.638 36.3691C131.103 36.0856 130.014 34.7183 130.005 33.0341C129.992 30.6681 130.005 28.3039 130.005 25.9379C130.005 20.3795 130.005 14.8255 130.005 9.27573C130.005 7.10426 131.722 5.57015 133.775 5.87216C135.411 6.11117 136.554 7.47111 136.554 9.23682C136.564 13.2129 136.565 17.189 136.556 21.1651Z" fill="white"/>
<path d="M147.471 41.896C144.586 41.896 141.703 41.9127 138.818 41.896C136.827 41.8812 135.37 40.3471 135.469 38.4201C135.516 37.6907 135.807 36.9981 136.293 36.4528C136.78 35.9075 137.436 35.5408 138.155 35.4112C138.456 35.3637 138.76 35.3402 139.065 35.3408C144.671 35.3408 150.279 35.3408 155.886 35.3408C156.954 35.3408 157.91 35.5928 158.643 36.4191C159.57 37.4623 159.755 38.6684 159.229 39.9209C158.673 41.203 157.639 41.8886 156.231 41.8978C153.311 41.909 150.391 41.896 147.471 41.896Z" fill="white"/>
<path d="M144.753 6.91158C142.748 6.91158 140.742 6.92455 138.737 6.91158C137.101 6.89861 135.841 5.82399 135.519 4.21206C135.388 3.48279 135.512 2.73085 135.868 2.08153C136.225 1.43221 136.794 0.924716 137.479 0.643587C137.906 0.469202 138.363 0.376201 138.824 0.369374C142.763 0.349611 146.703 0.346523 150.643 0.36011C152.576 0.36011 154.037 1.78676 154.043 3.63584C154.049 5.48493 152.59 6.90232 150.654 6.91158C148.687 6.92826 146.717 6.91343 144.753 6.91158Z" fill="white"/>
<path d="M159.494 12.6515C159.494 13.8855 159.522 15.1232 159.494 16.3571C159.457 17.7319 158.729 18.7027 157.498 19.2308C156.268 19.7588 155.106 19.5495 154.089 18.675C153.75 18.4062 153.474 18.0656 153.282 17.6777C153.09 17.2898 152.986 16.8641 152.978 16.4312C152.959 13.9244 152.931 11.4176 152.978 8.9126C153.013 7.19691 154.46 5.86476 156.166 5.83511C157 5.80554 157.813 6.10302 158.431 6.66409C159.049 7.22517 159.423 8.00544 159.473 8.83849C159.54 10.1058 159.486 11.3805 159.486 12.6515H159.494Z" fill="white"/>
<path d="M113.487 82.7686C113.499 83.1829 113.352 83.5861 113.076 83.896C112.801 84.2058 112.418 84.399 112.005 84.4361C112.404 84.4805 112.774 84.6678 113.047 84.9632C113.319 85.2587 113.475 85.6426 113.487 86.0443C113.498 85.6108 113.679 85.199 113.991 84.898C114.303 84.597 114.721 84.4311 115.155 84.4361H131.845C132.582 84.4361 133.289 84.7289 133.81 85.2501C134.331 85.7713 134.624 86.4782 134.624 87.2153C134.624 87.9523 134.331 88.6592 133.81 89.1804C133.289 89.7016 132.582 89.9944 131.845 89.9944H110.706C109.969 89.9944 109.262 89.7016 108.741 89.1804C108.22 88.6592 107.927 87.9523 107.927 87.2153V78.3219C107.927 77.5848 108.22 76.8779 108.741 76.3567C109.262 75.8355 109.969 75.5427 110.706 75.5427C111.148 75.5427 111.573 75.367 111.885 75.0543C112.198 74.7416 112.374 74.3174 112.374 73.8752C112.374 73.1381 112.666 72.4312 113.188 71.91C113.709 71.3888 114.416 71.096 115.153 71.096H119.044C119.486 71.096 119.91 70.9203 120.223 70.6076C120.536 70.2949 120.711 69.8707 120.711 69.4285C120.711 68.6914 121.004 67.9845 121.525 67.4633C122.046 66.9421 122.753 66.6493 123.49 66.6493H127.381C127.824 66.6493 128.248 66.4736 128.56 66.1609C128.873 65.8482 129.049 65.424 129.049 64.9818V57.2C129.049 56.7578 128.873 56.3337 128.56 56.0209C128.248 55.7082 127.824 55.5325 127.381 55.5325H115.153C114.711 55.5325 114.286 55.7082 113.974 56.0209C113.661 56.3337 113.485 56.7578 113.485 57.2C113.485 57.7497 113.322 58.287 113.017 58.7441C112.712 59.2011 112.278 59.5573 111.77 59.7677C111.262 59.978 110.703 60.0331 110.164 59.9258C109.625 59.8186 109.13 59.5539 108.741 59.1652C108.352 58.7766 108.088 58.2813 107.98 57.7422C107.873 57.2031 107.928 56.6443 108.139 56.1365C108.349 55.6287 108.705 55.1946 109.162 54.8892C109.619 54.5839 110.156 54.4209 110.706 54.4209C111.148 54.4209 111.573 54.2452 111.885 53.9325C112.198 53.6197 112.374 53.1956 112.374 52.7533C112.374 52.0163 112.666 51.3094 113.188 50.7882C113.709 50.267 114.416 49.9742 115.153 49.9742H127.381C128.118 49.9742 128.825 50.267 129.346 50.7882C129.868 51.3094 130.16 52.0163 130.16 52.7533C130.16 53.1956 130.336 53.6197 130.649 53.9325C130.962 54.2452 131.386 54.4209 131.828 54.4209C132.565 54.4209 133.272 54.7137 133.793 55.2349C134.314 55.7561 134.607 56.463 134.607 57.2V64.9818C134.607 65.7189 134.314 66.4258 133.793 66.947C133.272 67.4681 132.565 67.761 131.828 67.761C131.386 67.761 130.962 67.9366 130.649 68.2494C130.336 68.5621 130.16 68.9862 130.16 69.4285C130.16 70.1655 129.868 70.8724 129.346 71.3937C128.825 71.9148 128.118 72.2076 127.381 72.2076H123.49C123.048 72.2076 122.624 72.3833 122.311 72.6961C121.999 73.0088 121.823 73.4329 121.823 73.8752C121.823 74.6122 121.53 75.3191 121.009 75.8403C120.488 76.3615 119.781 76.6543 119.044 76.6543H115.153C114.711 76.6543 114.286 76.83 113.974 77.1428C113.661 77.4555 113.485 77.8796 113.485 78.3219L113.487 82.7686Z" fill="#E8F452"/>
<path d="M141.603 54.9526C141.603 54.8052 141.662 54.6638 141.766 54.5596C141.87 54.4553 142.012 54.3968 142.159 54.3968C142.367 54.4072 142.576 54.3859 142.778 54.3338C142.727 54.5359 142.707 54.7444 142.717 54.9526V84.9938C142.704 85.2014 142.724 85.4098 142.778 85.6107C142.576 85.5601 142.367 85.5395 142.159 85.5496C142.012 85.5496 141.87 85.491 141.766 85.3868C141.662 85.2826 141.603 85.1412 141.603 84.9938V54.9526ZM160.58 51.1192C160.378 51.0686 160.17 51.048 159.963 51.058H146.617C146.409 51.0448 146.201 51.0655 146 51.1192C146.054 50.9182 146.074 50.7098 146.061 50.5022C146.061 50.3548 146.12 50.2134 146.224 50.1092C146.328 50.0049 146.47 49.9464 146.617 49.9464H159.97C160.117 49.9464 160.259 50.0049 160.363 50.1092C160.467 50.2134 160.526 50.3548 160.526 50.5022C160.513 50.7098 160.533 50.9182 160.587 51.1192H160.58ZM159.963 88.8883C160.17 88.8986 160.378 88.8774 160.58 88.8253C160.529 89.0275 160.508 89.236 160.518 89.4442C160.518 89.5916 160.46 89.733 160.356 89.8372C160.251 89.9414 160.11 90 159.963 90H146.617C146.47 90 146.328 89.9414 146.224 89.8372C146.12 89.733 146.061 89.5916 146.061 89.4442C146.071 89.236 146.051 89.0275 146 88.8253C146.201 88.8806 146.409 88.9019 146.617 88.8883H159.963ZM163.794 85.6107C163.848 85.4098 163.868 85.2014 163.855 84.9938V54.9526C163.865 54.7444 163.845 54.5359 163.794 54.3338C163.995 54.3891 164.205 54.4104 164.413 54.3968C164.56 54.3968 164.702 54.4553 164.806 54.5596C164.91 54.6638 164.969 54.8052 164.969 54.9526V84.9938C164.969 85.1412 164.91 85.2826 164.806 85.3868C164.702 85.491 164.56 85.5496 164.413 85.5496C164.207 85.5371 164.001 85.5578 163.802 85.6107H163.794Z" fill="white"/>
<path d="M175.298 54.3968C176.035 54.3968 176.742 54.104 177.263 53.5828C177.784 53.0616 178.077 52.3547 178.077 51.6176C178.077 51.2878 178.175 50.9654 178.358 50.6912C178.542 50.4169 178.802 50.2032 179.107 50.077C179.411 49.9508 179.747 49.9178 180.07 49.9821C180.394 50.0464 180.691 50.2053 180.924 50.4385C181.157 50.6717 181.316 50.9688 181.38 51.2923C181.445 51.6157 181.412 51.951 181.285 52.2557C181.159 52.5604 180.945 52.8208 180.671 53.0041C180.397 53.1873 180.075 53.2851 179.745 53.2851C179.008 53.2851 178.301 53.5779 177.78 54.0991C177.258 54.6203 176.966 55.3272 176.966 56.0643C176.966 56.3941 176.868 56.7165 176.685 56.9907C176.501 57.2649 176.241 57.4787 175.936 57.6049C175.631 57.7311 175.296 57.7641 174.973 57.6998C174.649 57.6354 174.352 57.4766 174.119 57.2434C173.886 57.0102 173.727 56.7131 173.663 56.3896C173.598 56.0661 173.631 55.7308 173.757 55.4262C173.884 55.1215 174.097 54.861 174.372 54.6778C174.646 54.4946 174.968 54.3968 175.298 54.3968ZM173.631 75.5353C173.631 75.093 173.806 74.6689 174.119 74.3561C174.432 74.0434 174.856 73.8678 175.298 73.8678C176.035 73.8678 176.742 73.5749 177.263 73.0537C177.784 72.5325 178.077 71.8257 178.077 71.0886C178.077 70.7588 178.175 70.4364 178.358 70.1621C178.542 69.8879 178.802 69.6742 179.107 69.548C179.411 69.4218 179.747 69.3887 180.07 69.4531C180.394 69.5174 180.691 69.6762 180.924 69.9095C181.157 70.1427 181.316 70.4398 181.38 70.7632C181.445 71.0867 181.412 71.422 181.285 71.7267C181.159 72.0314 180.945 72.2918 180.671 72.475C180.397 72.6583 180.075 72.7561 179.745 72.7561C179.008 72.7561 178.301 73.0489 177.78 73.5701C177.258 74.0913 176.966 74.7982 176.966 75.5353V83.8728C176.966 84.6099 177.258 85.3168 177.78 85.838C178.301 86.3592 179.008 86.652 179.745 86.652C180.075 86.652 180.397 86.7498 180.671 86.933C180.945 87.1163 181.159 87.3767 181.285 87.6814C181.412 87.9861 181.445 88.3214 181.38 88.6448C181.316 88.9683 181.157 89.2654 180.924 89.4986C180.691 89.7318 180.394 89.8907 180.07 89.955C179.747 90.0193 179.411 89.9863 179.107 89.8601C178.802 89.7339 178.542 89.5202 178.358 89.2459C178.175 88.9717 178.077 88.6493 178.077 88.3195C178.077 87.5824 177.784 86.8755 177.263 86.3543C176.742 85.8331 176.035 85.5403 175.298 85.5403C174.856 85.5403 174.432 85.3647 174.119 85.0519C173.806 84.7392 173.631 84.3151 173.631 83.8728V75.5353ZM185.314 49.9464C185.644 49.9464 185.966 50.0442 186.241 50.2274C186.515 50.4106 186.729 50.671 186.855 50.9757C186.981 51.2804 187.014 51.6157 186.95 51.9392C186.885 52.2627 186.727 52.5598 186.493 52.793C186.26 53.0262 185.963 53.185 185.64 53.2493C185.316 53.3137 184.981 53.2807 184.676 53.1545C184.371 53.0282 184.111 52.8145 183.928 52.5403C183.745 52.2661 183.647 51.9437 183.647 51.6139C183.647 51.1719 183.822 50.7481 184.134 50.4354C184.447 50.1228 184.87 49.9469 185.312 49.9464H185.314ZM185.314 69.4173C185.644 69.4173 185.966 69.5151 186.241 69.6984C186.515 69.8816 186.729 70.142 186.855 70.4467C186.981 70.7514 187.014 71.0867 186.95 71.4102C186.885 71.7336 186.727 72.0308 186.493 72.264C186.26 72.4972 185.963 72.656 185.64 72.7203C185.316 72.7847 184.981 72.7516 184.676 72.6254C184.371 72.4992 184.111 72.2855 183.928 72.0113C183.745 71.7371 183.647 71.4147 183.647 71.0849C183.647 70.6429 183.822 70.2191 184.134 69.9064C184.447 69.5937 184.87 69.4178 185.312 69.4173H185.314ZM185.314 86.6613C185.644 86.6613 185.966 86.7591 186.241 86.9423C186.515 87.1255 186.729 87.386 186.855 87.6907C186.981 87.9954 187.014 88.3306 186.95 88.6541C186.885 88.9776 186.727 89.2747 186.493 89.5079C186.26 89.7411 185.963 89.8999 185.64 89.9643C185.316 90.0286 184.981 89.9956 184.676 89.8694C184.371 89.7432 184.111 89.5294 183.928 89.2552C183.745 88.981 183.647 88.6586 183.647 88.3288C183.647 87.8869 183.822 87.463 184.134 87.1503C184.447 86.8377 184.87 86.6618 185.312 86.6613H185.314ZM193.652 56.0643C193.652 55.3272 193.359 54.6203 192.838 54.0991C192.317 53.5779 191.61 53.2851 190.873 53.2851C190.543 53.2851 190.22 53.1873 189.946 53.0041C189.672 52.8208 189.458 52.5604 189.332 52.2557C189.206 51.951 189.173 51.6157 189.237 51.2923C189.301 50.9688 189.46 50.6717 189.694 50.4385C189.927 50.2053 190.224 50.0464 190.547 49.9821C190.871 49.9178 191.206 49.9508 191.511 50.077C191.815 50.2032 192.076 50.4169 192.259 50.6912C192.442 50.9654 192.54 51.2878 192.54 51.6176C192.54 52.3547 192.833 53.0616 193.354 53.5828C193.875 54.104 194.582 54.3968 195.319 54.3968C195.762 54.3968 196.186 54.5724 196.498 54.8852C196.811 55.1979 196.987 55.622 196.987 56.0643V66.6345C196.987 67.0767 196.811 67.5008 196.498 67.8136C196.186 68.1263 195.762 68.302 195.319 68.302C194.582 68.302 193.875 68.5948 193.354 69.116C192.833 69.6372 192.54 70.3441 192.54 71.0812C192.54 71.411 192.442 71.7333 192.259 72.0076C192.076 72.2818 191.815 72.4955 191.511 72.6217C191.206 72.7479 190.871 72.781 190.547 72.7166C190.224 72.6523 189.927 72.4935 189.694 72.2603C189.46 72.0271 189.301 71.7299 189.237 71.4065C189.173 71.083 189.206 70.7477 189.332 70.443C189.458 70.1383 189.672 69.8779 189.946 69.6947C190.22 69.5114 190.543 69.4136 190.873 69.4136C191.61 69.4136 192.317 69.1208 192.838 68.5996C193.359 68.0784 193.652 67.3715 193.652 66.6345V56.0643ZM190.873 86.6613C191.202 86.6613 191.525 86.7591 191.799 86.9423C192.073 87.1255 192.287 87.386 192.413 87.6907C192.539 87.9954 192.572 88.3306 192.508 88.6541C192.444 88.9776 192.285 89.2747 192.052 89.5079C191.819 89.7411 191.521 89.8999 191.198 89.9643C190.874 90.0286 190.539 89.9956 190.234 89.8694C189.93 89.7432 189.669 89.5294 189.486 89.2552C189.303 88.981 189.205 88.6586 189.205 88.3288C189.205 88.1096 189.248 87.8927 189.332 87.6902C189.416 87.4878 189.539 87.3039 189.694 87.149C189.849 86.9942 190.033 86.8714 190.236 86.7877C190.438 86.704 190.655 86.661 190.874 86.6613H190.873ZM196.431 86.6613C196.761 86.6613 197.083 86.7591 197.357 86.9423C197.632 87.1255 197.845 87.386 197.972 87.6907C198.098 87.9954 198.131 88.3306 198.066 88.6541C198.002 88.9776 197.843 89.2747 197.61 89.5079C197.377 89.7411 197.08 89.8999 196.756 89.9643C196.433 90.0286 196.098 89.9956 195.793 89.8694C195.488 89.7432 195.228 89.5294 195.045 89.2552C194.861 88.981 194.764 88.6586 194.764 88.3288C194.763 88.1086 194.807 87.8905 194.892 87.6872C194.977 87.4839 195.101 87.2994 195.257 87.1444C195.414 86.9894 195.599 86.8668 195.803 86.7839C196.007 86.701 196.226 86.6593 196.446 86.6613H196.431Z" fill="#E8F452"/>
<path d="M203.422 54.3968C203.864 54.3968 204.288 54.2211 204.601 53.9084C204.913 53.5956 205.089 53.1715 205.089 52.7293C205.089 52.1796 205.252 51.6423 205.558 51.1852C205.863 50.7282 206.297 50.372 206.805 50.1616C207.313 49.9513 207.871 49.8962 208.411 50.0035C208.95 50.1107 209.445 50.3754 209.834 50.7641C210.222 51.1527 210.487 51.648 210.594 52.1871C210.701 52.7262 210.646 53.285 210.436 53.7928C210.226 54.3006 209.869 54.7347 209.412 55.0401C208.955 55.3455 208.418 55.5084 207.868 55.5084C207.426 55.5084 207.002 55.6841 206.689 55.9968C206.377 56.3096 206.201 56.7337 206.201 57.176C206.201 57.7256 206.038 58.263 205.732 58.72C205.427 59.177 204.993 59.5332 204.485 59.7436C203.977 59.9539 203.419 60.009 202.879 59.9017C202.34 59.7945 201.845 59.5298 201.457 59.1411C201.068 58.7525 200.803 58.2573 200.696 57.7181C200.589 57.179 200.644 56.6202 200.854 56.1124C201.064 55.6046 201.421 55.1705 201.878 54.8651C202.335 54.5598 202.872 54.3968 203.422 54.3968ZM203.422 85.5496C202.872 85.5496 202.335 85.3866 201.878 85.0812C201.421 84.7758 201.064 84.3418 200.854 83.834C200.644 83.3261 200.589 82.7673 200.696 82.2282C200.803 81.6891 201.068 81.1939 201.457 80.8052C201.845 80.4166 202.34 80.1519 202.879 80.0446C203.419 79.9374 203.977 79.9924 204.485 80.2028C204.993 80.4131 205.427 80.7693 205.732 81.2264C206.038 81.6834 206.201 82.2207 206.201 82.7704C206.201 83.2127 206.377 83.6368 206.689 83.9495C207.002 84.2622 207.426 84.4379 207.868 84.4379C208.418 84.4379 208.955 84.6009 209.412 84.9063C209.869 85.2117 210.226 85.6457 210.436 86.1536C210.646 86.6614 210.701 87.2202 210.594 87.7593C210.487 88.2984 210.222 88.7936 209.834 89.1823C209.445 89.571 208.95 89.8357 208.411 89.9429C207.871 90.0501 207.313 89.9951 206.805 89.7847C206.297 89.5744 205.863 89.2182 205.558 88.7611C205.252 88.3041 205.089 87.7668 205.089 87.2171C205.089 86.7749 204.913 86.3507 204.601 86.038C204.288 85.7253 203.864 85.5496 203.422 85.5496ZM207.868 67.1903C208.418 67.1903 208.955 67.3533 209.412 67.6587C209.869 67.9641 210.226 68.3981 210.436 68.9059C210.646 69.4138 210.701 69.9726 210.594 70.5117C210.487 71.0508 210.222 71.546 209.834 71.9347C209.445 72.3233 208.95 72.588 208.411 72.6953C207.871 72.8025 207.313 72.7475 206.805 72.5371C206.297 72.3268 205.863 71.9706 205.558 71.5135C205.252 71.0565 205.089 70.5192 205.089 69.9695C205.089 69.6042 205.161 69.2425 205.301 68.9051C205.441 68.5676 205.646 68.2611 205.904 68.003C206.163 67.7449 206.47 67.5402 206.807 67.4008C207.145 67.2613 207.507 67.1898 207.872 67.1903H207.868ZM220.664 74.4162C220.664 73.9739 220.488 73.5498 220.175 73.2371C219.863 72.9244 219.438 72.7487 218.996 72.7487C218.259 72.7487 217.552 72.4559 217.031 71.9347C216.51 71.4135 216.217 70.7066 216.217 69.9695C216.217 69.2324 216.51 68.5255 217.031 68.0043C217.552 67.4831 218.259 67.1903 218.996 67.1903C219.438 67.1903 219.863 67.0146 220.175 66.7019C220.488 66.3892 220.664 65.965 220.664 65.5228V57.1852C220.664 56.743 220.488 56.3188 220.175 56.0061C219.863 55.6934 219.438 55.5177 218.996 55.5177C218.447 55.5177 217.909 55.3547 217.452 55.0493C216.995 54.744 216.639 54.3099 216.429 53.8021C216.218 53.2942 216.163 52.7354 216.27 52.1963C216.378 51.6572 216.642 51.162 217.031 50.7733C217.42 50.3847 217.915 50.12 218.454 50.0127C218.993 49.9055 219.552 49.9605 220.06 50.1709C220.568 50.3812 221.002 50.7375 221.307 51.1945C221.612 51.6515 221.775 52.1889 221.775 52.7385C221.775 53.1808 221.951 53.6049 222.264 53.9176C222.577 54.2303 223.001 54.406 223.443 54.406C224.18 54.406 224.887 54.6988 225.408 55.22C225.929 55.7412 226.222 56.4481 226.222 57.1852V65.5228C226.222 66.2599 225.929 66.9668 225.408 67.488C224.887 68.0092 224.18 68.302 223.443 68.302C223.001 68.302 222.577 68.4777 222.264 68.7904C221.951 69.1031 221.775 69.5272 221.775 69.9695C221.775 70.4117 221.951 70.8359 222.264 71.1486C222.577 71.4613 223.001 71.637 223.443 71.637C224.18 71.637 224.887 71.9298 225.408 72.451C225.929 72.9722 226.222 73.6791 226.222 74.4162V82.7537C226.222 83.4908 225.929 84.1977 225.408 84.7189C224.887 85.2401 224.18 85.5329 223.443 85.5329C223.001 85.5329 222.577 85.7086 222.264 86.0213C221.951 86.334 221.775 86.7582 221.775 87.2004C221.775 87.7501 221.612 88.2874 221.307 88.7445C221.002 89.2015 220.568 89.5577 220.06 89.7681C219.552 89.9784 218.993 90.0335 218.454 89.9262C217.915 89.819 217.42 89.5543 217.031 89.1656C216.642 88.777 216.378 88.2817 216.27 87.7426C216.163 87.2035 216.218 86.6447 216.429 86.1369C216.639 85.6291 216.995 85.195 217.452 84.8896C217.909 84.5842 218.447 84.4213 218.996 84.4213C219.438 84.4213 219.863 84.2456 220.175 83.9328C220.488 83.6201 220.664 83.196 220.664 82.7537V74.4162Z" fill="white"/>
</svg>
