<svg width="126" height="90" viewBox="0 0 126 90" fill="none" xmlns="http://www.w3.org/2000/svg">
<g id="M_logotype_mobile_long">
<path id="Vector" d="M21.556 31.8033C21.4076 31.8027 21.2607 31.8314 21.1235 31.8879C20.9864 31.9443 20.8618 32.0274 20.7569 32.1323C20.6521 32.2371 20.569 32.3617 20.5125 32.4989C20.4561 32.636 20.4273 32.783 20.428 32.9313V57.7574C20.4376 58.0503 20.5607 58.3281 20.7713 58.5319C20.9819 58.7357 21.2635 58.8497 21.5566 58.8497C21.8496 58.8497 22.1312 58.7357 22.3418 58.5319C22.5524 58.3281 22.6755 58.0503 22.6851 57.7574V32.9313C22.6858 32.7829 22.657 32.6358 22.6005 32.4986C22.5439 32.3614 22.4608 32.2367 22.3558 32.1318C22.2508 32.0269 22.126 31.9439 21.9887 31.8875C21.8515 31.8311 21.7044 31.8025 21.556 31.8033Z" fill="#E8F452"/>
<path id="Vector_2" d="M64.5625 46.4731C65.1854 46.4731 65.6904 45.9681 65.6904 45.3451C65.6904 44.7222 65.1854 44.2172 64.5625 44.2172C63.9395 44.2172 63.4345 44.7222 63.4345 45.3451C63.4345 45.9681 63.9395 46.4731 64.5625 46.4731Z" fill="#E8F452"/>
<path id="Vector_3" d="M68.3243 31.8033C68.1759 31.8027 68.0289 31.8314 67.8917 31.8878C67.7545 31.9443 67.6298 32.0273 67.5249 32.1322C67.4199 32.237 67.3367 32.3616 67.2801 32.4988C67.2235 32.6359 67.1947 32.7829 67.1951 32.9313V57.7574C67.2047 58.0503 67.3278 58.3281 67.5384 58.5319C67.749 58.7357 68.0306 58.8497 68.3237 58.8497C68.6168 58.8497 68.8984 58.7357 69.109 58.5319C69.3196 58.3281 69.4427 58.0503 69.4523 57.7574V32.9313C69.4529 32.783 69.4242 32.636 69.3677 32.4989C69.3113 32.3617 69.2282 32.2371 69.1233 32.1323C69.0185 32.0274 68.8939 31.9443 68.7567 31.8879C68.6196 31.8314 68.4726 31.8027 68.3243 31.8033Z" fill="#E8F452"/>
<path id="Vector_4" d="M57.0396 46.4731C57.6625 46.4731 58.1676 45.9681 58.1676 45.3451C58.1676 44.7222 57.6625 44.2172 57.0396 44.2172C56.4166 44.2172 55.9116 44.7222 55.9116 45.3451C55.9116 45.9681 56.4166 46.4731 57.0396 46.4731Z" fill="#E8F452"/>
<path id="Vector_5" d="M53.2777 31.8033C53.1294 31.8027 52.9824 31.8314 52.8453 31.8879C52.7081 31.9443 52.5836 32.0274 52.4787 32.1323C52.3738 32.2371 52.2907 32.3617 52.2343 32.4989C52.1778 32.636 52.1491 32.783 52.1497 32.9313V57.7574C52.1593 58.0503 52.2824 58.3281 52.493 58.5319C52.7036 58.7357 52.9852 58.8497 53.2783 58.8497C53.5714 58.8497 53.853 58.7357 54.0636 58.5319C54.2742 58.3281 54.3973 58.0503 54.4069 57.7574V32.9313C54.4074 32.7829 54.3785 32.6359 54.3219 32.4988C54.2653 32.3616 54.1821 32.237 54.0771 32.1322C53.9722 32.0273 53.8475 31.9443 53.7103 31.8878C53.5731 31.8314 53.4261 31.8027 53.2777 31.8033Z" fill="#E8F452"/>
<path id="Vector_6" d="M60.8019 46.4731C61.4248 46.4731 61.9298 45.9681 61.9298 45.3451C61.9298 44.7222 61.4248 44.2172 60.8019 44.2172C60.1789 44.2172 59.6739 44.7222 59.6739 45.3451C59.6739 45.9681 60.1789 46.4731 60.8019 46.4731Z" fill="#E8F452"/>
<path id="Vector_7" d="M3.22196 53.6466C4.37288 53.9449 5.05159 54.6429 5.37766 55.7661C5.41856 55.6876 5.45524 55.6069 5.48756 55.5245C5.8402 54.399 6.73991 53.6538 7.91377 53.6393C10.241 53.6092 12.5694 53.6031 14.8965 53.6393C16.3457 53.6623 17.4326 54.8555 17.4109 56.2962C17.41 56.6365 17.3418 56.9733 17.2104 57.2872C17.0789 57.6011 16.8868 57.886 16.645 58.1254C16.4032 58.3649 16.1165 58.5542 15.8013 58.6826C15.4861 58.8109 15.1487 58.8758 14.8084 58.8734C10.7933 58.8839 6.77775 58.8839 2.76184 58.8734C1.29331 58.8734 0.200366 57.7865 0.153266 56.3131C0.136359 55.8083 0.153266 55.3023 0.153266 54.7963C0.153266 48.0985 0.153266 41.4008 0.153266 34.703C0.153266 33.8758 0.336833 33.1331 0.956369 32.5558C1.78604 31.7817 2.75942 31.6041 3.79682 32.0256C4.8016 32.4326 5.3209 33.2333 5.40906 34.3117C5.42717 34.5327 5.41631 34.7562 5.41631 34.9784C5.41631 40.1339 5.39336 45.2895 5.4308 50.4463C5.42838 51.9172 4.95739 53.0983 3.22196 53.6466Z" fill="white"/>
<path id="Vector_8" d="M41.4243 43.7932C42.4025 42.4455 44.3747 42.5179 45.214 43.8246C45.4212 44.1785 45.5539 44.571 45.6041 44.978C45.6983 45.5999 45.8577 45.804 46.4965 45.8704C47.8564 46.0117 48.6897 46.9368 48.6909 48.3172C48.6909 49.9983 48.6909 51.6797 48.6909 53.3616C48.6909 54.7794 47.8455 55.6936 46.4349 55.8241C45.9024 55.8736 45.6512 56.1079 45.6222 56.6248C45.5654 57.6622 45.0654 58.4025 44.0909 58.7346C43.1163 59.0667 42.2105 58.842 41.5076 58.0257C41.4812 58.0014 41.452 57.9803 41.4207 57.9629C40.3543 59.1802 38.631 59.1778 37.6624 58.0486C37.1636 58.3095 36.7108 58.6524 36.2023 58.7913C34.8099 59.1669 33.5032 58.1718 33.3969 56.7298C33.3498 56.0801 33.1554 55.8845 32.4912 55.818C31.2605 55.6973 30.4224 54.8519 30.3282 53.614C30.2859 53.0537 30.0517 52.8037 29.5275 52.7626C28.1121 52.6527 27.2752 51.7518 27.2704 50.3074C27.2643 48.0612 27.2704 45.8149 27.2704 43.5698C27.2704 42.3621 27.2704 41.1605 27.2704 39.9553C27.2704 38.4759 28.0409 37.6269 29.5203 37.459C30.0686 37.3974 30.2871 37.1692 30.3294 36.6136C30.4272 35.3395 31.2714 34.5026 32.56 34.4012C33.0853 34.3601 33.3534 34.1246 33.3872 33.6113C33.4561 32.5655 33.9464 31.8119 34.9415 31.4762C35.9366 31.1405 36.8158 31.4291 37.5102 32.2334C37.5415 32.2611 37.5751 32.2861 37.6105 32.3083C37.8187 32.0037 38.0995 31.7558 38.4276 31.5871C38.7558 31.4184 39.1208 31.3342 39.4896 31.3421C39.8679 31.3357 40.2417 31.4236 40.5774 31.598C40.9131 31.7724 41.2001 32.0277 41.4122 32.3409C41.6803 31.9524 42.0609 31.6554 42.5028 31.4897C42.9448 31.324 43.4269 31.2977 43.8842 31.4142C44.3416 31.5308 44.7523 31.7846 45.061 32.1416C45.3698 32.4985 45.5619 32.9415 45.6113 33.4109C45.6789 34.179 45.8347 34.3372 46.5932 34.406C47.0301 34.4448 47.4467 34.6081 47.7937 34.8765C48.1407 35.1448 48.4036 35.507 48.551 35.9202C48.6985 36.3333 48.7245 36.78 48.6258 37.2075C48.5272 37.6349 48.3081 38.0251 47.9945 38.3319C47.681 38.6386 47.286 38.849 46.8565 38.9382C46.427 39.0274 45.9809 38.9916 45.5712 38.8351C45.1614 38.6785 44.8051 38.4078 44.5444 38.055C44.2838 37.7021 44.1297 37.282 44.1005 36.8443C44.0558 36.2235 43.859 35.9663 43.3228 35.9337C42.5523 35.8866 41.9146 35.6076 41.4388 34.9941C39.9437 36.238 38.8254 36.2429 37.6177 35.0255C37.3291 35.2369 37.0634 35.4917 36.7482 35.6475C36.4419 35.7855 36.1159 35.8747 35.7821 35.912C35.1843 35.9929 34.956 36.1994 34.9125 36.7887C34.8208 38.0387 33.9693 38.8853 32.7049 38.9831C32.118 39.0278 31.8668 39.2765 31.8656 39.8683C31.8607 43.3561 31.8607 46.8442 31.8656 50.3328C31.8656 50.9366 32.118 51.1927 32.7266 51.2434C33.9983 51.3484 34.8195 52.1781 34.9137 53.451C34.9524 53.9582 35.1746 54.2517 35.6178 54.2722C36.0012 54.28 36.3779 54.3744 36.7196 54.5485C37.0614 54.7225 37.3593 54.9715 37.5912 55.277C38.0742 54.6418 38.7058 54.2915 39.4932 54.2891C40.2806 54.2867 40.9098 54.6514 41.4255 55.283C41.9315 54.5886 42.6151 54.3036 43.4375 54.2674C43.83 54.2505 44.0945 53.9425 44.0969 53.5271C44.1074 51.7462 44.1074 49.9644 44.0969 48.1819C44.0969 47.7073 43.8083 47.4344 43.3059 47.4078C42.5487 47.368 41.9207 47.0878 41.4364 46.4477C40.8519 47.1143 40.1454 47.4803 39.2517 47.3873C38.9631 47.3594 38.6831 47.2741 38.428 47.1364C38.1729 46.9987 37.9479 46.8113 37.7663 46.5854C36.9668 45.6301 37.0562 44.222 37.9559 43.4285C39.009 42.4938 40.2843 42.6206 41.4243 43.7932Z" fill="#E8F452"/>
<path id="Vector_9" d="M82.8307 33.6824C82.7454 33.9502 82.5961 34.1932 82.3958 34.3904C82.1955 34.5876 81.9502 34.733 81.681 34.814C81.7897 34.8696 81.838 34.8962 81.8875 34.9191C82.5083 35.2005 82.8537 35.6727 82.8609 36.3611C82.8694 36.8924 82.8609 37.4226 82.8609 37.9528C82.8609 44.3438 82.8609 50.7348 82.8609 57.1258C82.8609 57.6994 82.7402 58.203 82.2692 58.575C82.0761 58.7251 81.849 58.8254 81.6079 58.8669C81.3669 58.9084 81.1193 58.8899 80.8871 58.813C80.6549 58.7362 80.4453 58.6033 80.2766 58.4261C80.108 58.2489 79.9856 58.033 79.9202 57.7973C79.8696 57.5556 79.8493 57.3085 79.8599 57.0618C79.8599 50.2626 79.843 43.4646 79.8707 36.6666C79.8707 35.5072 79.227 34.7669 78.0242 34.8032C76.4095 34.8515 74.7913 34.8225 73.1754 34.8116C72.1392 34.8044 71.4677 34.0327 71.6199 33.0545C71.6622 32.759 71.7961 32.4842 72.0028 32.2688C72.2095 32.0535 72.4785 31.9084 72.772 31.854C72.9787 31.8188 73.188 31.8023 73.3976 31.8045C78.7025 31.8045 84.0078 31.8045 89.3135 31.8045C89.4986 31.8031 89.6835 31.8156 89.8666 31.842C90.2308 31.8928 90.5628 32.0779 90.7975 32.361C91.0321 32.6442 91.1524 33.0048 91.1347 33.3721C91.1009 34.1389 90.52 34.7851 89.7507 34.7971C87.9259 34.8261 86.0999 34.8213 84.2739 34.7971C83.6532 34.7899 83.2136 34.4421 82.9612 33.8696C82.937 33.8141 82.908 33.7609 82.879 33.7066C82.8706 33.7018 82.8561 33.6981 82.8307 33.6824Z" fill="white"/>
<path id="Vector_10" d="M14.6735 15.4238C14.4263 15.4247 14.1813 15.3768 13.9528 15.2826C13.7242 15.1884 13.5165 15.05 13.3417 14.8752C13.1669 14.7004 13.0285 14.4927 12.9343 14.2641C12.8402 14.0356 12.7922 13.7906 12.7931 13.5434C12.7934 13.3201 12.7274 13.1016 12.6034 12.9158C12.4795 12.7299 12.3032 12.585 12.0969 12.4994C11.8906 12.4137 11.6635 12.3912 11.4444 12.4346C11.2253 12.478 11.024 12.5855 10.8659 12.7434C10.7079 12.9012 10.6002 13.1024 10.5566 13.3215C10.5129 13.5406 10.5352 13.7677 10.6206 13.9741C10.7061 14.1805 10.8508 14.3569 11.0365 14.481C11.2222 14.6051 11.4406 14.6714 11.664 14.6714C11.9113 14.6703 12.1563 14.7182 12.385 14.8122C12.6138 14.9063 12.8216 15.0448 12.9965 15.2196C13.1714 15.3944 13.31 15.6021 13.4042 15.8308C13.4985 16.0594 13.5465 16.3044 13.5455 16.5518V22.9464C13.5465 23.1937 13.4985 23.4387 13.4042 23.6674C13.31 23.896 13.1714 24.1037 12.9965 24.2786C12.8216 24.4534 12.6138 24.5918 12.385 24.6859C12.1563 24.78 11.9113 24.8278 11.664 24.8267C11.4406 24.8267 11.2223 24.893 11.0366 25.017C10.8509 25.1411 10.7062 25.3175 10.6207 25.5238C10.5353 25.7301 10.5129 25.9572 10.5565 26.1762C10.6001 26.3952 10.7076 26.5964 10.8655 26.7543C11.0234 26.9123 11.2246 27.0198 11.4437 27.0634C11.6627 27.1069 11.8898 27.0846 12.0961 26.9991C12.3024 26.9137 12.4788 26.7689 12.6028 26.5832C12.7269 26.3975 12.7931 26.1792 12.7931 25.9559C12.7922 25.7087 12.8402 25.4638 12.9343 25.2352C13.0285 25.0066 13.1669 24.799 13.3417 24.6242C13.5165 24.4494 13.7242 24.3109 13.9528 24.2167C14.1813 24.1226 14.4263 24.0746 14.6735 24.0756C14.8218 24.076 14.9688 24.0471 15.106 23.9906C15.2431 23.934 15.3677 23.8508 15.4726 23.7458C15.5774 23.6409 15.6605 23.5162 15.7169 23.379C15.7734 23.2418 15.8021 23.0947 15.8015 22.9464V16.5518C15.8021 16.4034 15.7734 16.2565 15.7169 16.1193C15.6604 15.9822 15.5774 15.8576 15.4725 15.7527C15.3676 15.6479 15.243 15.5648 15.1059 15.5083C14.9688 15.4519 14.8218 15.4231 14.6735 15.4238Z" fill="#E8F452"/>
<path id="Vector_11" d="M14.6735 3.01013C14.4263 3.01109 14.1813 2.96311 13.9528 2.86895C13.7242 2.77479 13.5165 2.63632 13.3417 2.46153C13.1669 2.28673 13.0285 2.07906 12.9343 1.85049C12.8402 1.62193 12.7922 1.37698 12.7931 1.12979C12.7931 0.906456 12.7269 0.688141 12.6028 0.502449C12.4788 0.316757 12.3024 0.172028 12.0961 0.0865639C11.8898 0.00109939 11.6627 -0.0212617 11.4437 0.0223077C11.2246 0.0658771 11.0234 0.17342 10.8655 0.331338C10.7076 0.489256 10.6001 0.690455 10.5565 0.909494C10.5129 1.12853 10.5353 1.35557 10.6207 1.5619C10.7062 1.76823 10.8509 1.94458 11.0366 2.06866C11.2223 2.19273 11.4406 2.25896 11.664 2.25896C11.9113 2.25784 12.1563 2.30571 12.385 2.39979C12.6138 2.49388 12.8216 2.63232 12.9965 2.80713C13.1714 2.98195 13.31 3.18967 13.4042 3.41832C13.4985 3.64696 13.5465 3.892 13.5455 4.13931C13.5458 4.36234 13.6121 4.58031 13.7362 4.76564C13.8603 4.95098 14.0365 5.09536 14.2427 5.18055C14.4488 5.26574 14.6756 5.2879 14.8943 5.24424C15.113 5.20058 15.3139 5.09306 15.4715 4.93526C15.6291 4.77747 15.7364 4.57648 15.7799 4.35771C15.8233 4.13894 15.8009 3.9122 15.7155 3.70617C15.6301 3.50013 15.4855 3.32403 15.3 3.20015C15.1146 3.07626 14.8965 3.01013 14.6735 3.01013Z" fill="#E8F452"/>
<path id="Vector_12" d="M7.90327 24.8267C7.67989 24.8265 7.46146 24.8925 7.27561 25.0164C7.08976 25.1404 6.94484 25.3166 6.85919 25.5229C6.77354 25.7292 6.75101 25.9563 6.79444 26.1754C6.83787 26.3946 6.94532 26.5959 7.10319 26.7539C7.26106 26.9119 7.46226 27.0196 7.68133 27.0633C7.9004 27.1069 8.1275 27.0846 8.3339 26.9992C8.5403 26.9138 8.71672 26.7691 8.84085 26.5833C8.96498 26.3976 9.03124 26.1793 9.03124 25.9559C9.03188 25.8075 9.00314 25.6605 8.9467 25.5233C8.89026 25.3861 8.80721 25.2614 8.70236 25.1564C8.59751 25.0515 8.47292 24.9683 8.33577 24.9117C8.19862 24.8551 8.05163 24.8262 7.90327 24.8267Z" fill="#E8F452"/>
<path id="Vector_13" d="M4.13838 2.2589C4.36176 2.25914 4.58019 2.19311 4.76604 2.06918C4.95189 1.94525 5.09681 1.76899 5.18246 1.56268C5.26811 1.35637 5.29064 1.12929 5.24721 0.910173C5.20378 0.691056 5.09633 0.489743 4.93846 0.331704C4.78059 0.173666 4.57939 0.0660024 4.36032 0.022335C4.14125 -0.0213324 3.91415 0.000958698 3.70775 0.0863876C3.50135 0.171817 3.32493 0.316544 3.2008 0.502262C3.07667 0.68798 3.01041 0.906343 3.01041 1.12972C3.01137 1.37682 2.96343 1.62167 2.86934 1.85015C2.77526 2.07864 2.6369 2.28625 2.46223 2.46104C2.28756 2.63582 2.08004 2.77431 1.85161 2.86854C1.62318 2.96277 1.37837 3.01087 1.13127 3.01007C0.98291 3.00959 0.835919 3.03848 0.698773 3.09507C0.561626 3.15166 0.437036 3.23484 0.332183 3.3398C0.22733 3.44477 0.144289 3.56945 0.087844 3.70665C0.0313994 3.84386 0.00266812 3.99088 0.00330633 4.13924V10.5399C0.00266708 10.6882 0.0314064 10.8352 0.0878656 10.9723C0.144325 11.1095 0.227386 11.2341 0.332255 11.3389C0.437124 11.4438 0.561724 11.5269 0.698864 11.5833C0.836003 11.6398 0.982967 11.6685 1.13127 11.6679C1.37863 11.6669 1.62373 11.7149 1.85244 11.8092C2.08116 11.9034 2.28896 12.0419 2.46387 12.2168C2.63878 12.3917 2.77734 12.5995 2.87155 12.8283C2.96577 13.057 3.01379 13.3021 3.01283 13.5494C3.01426 13.7723 3.08169 13.9898 3.20661 14.1744C3.33152 14.3589 3.50833 14.5024 3.7147 14.5866C3.92107 14.6708 4.14776 14.6919 4.36615 14.6474C4.58454 14.6029 4.78484 14.4946 4.94176 14.3364C5.09869 14.1781 5.20521 13.9769 5.24788 13.7581C5.29054 13.5393 5.26744 13.3128 5.18149 13.1072C5.09554 12.9016 4.95059 12.726 4.76494 12.6027C4.57929 12.4793 4.36126 12.4137 4.13838 12.4142C3.89118 12.4152 3.64624 12.3672 3.41767 12.273C3.1891 12.1789 2.98143 12.0404 2.80664 11.8656C2.63184 11.6908 2.49337 11.4831 2.39921 11.2546C2.30506 11.026 2.25707 10.7811 2.25803 10.5339V4.13924C2.25707 3.89205 2.30506 3.6471 2.39921 3.41853C2.49337 3.18997 2.63184 2.9823 2.80664 2.8075C2.98143 2.6327 3.1891 2.49424 3.41767 2.40008C3.64624 2.30592 3.89118 2.25794 4.13838 2.2589Z" fill="#E8F452"/>
<path id="Vector_14" d="M7.90327 12.4143C7.67989 12.414 7.46146 12.4801 7.27561 12.604C7.08976 12.7279 6.94484 12.9042 6.85919 13.1105C6.77354 13.3168 6.75101 13.5439 6.79444 13.763C6.83787 13.9821 6.94532 14.1834 7.10319 14.3415C7.26106 14.4995 7.46226 14.6072 7.68133 14.6508C7.9004 14.6945 8.1275 14.6722 8.3339 14.5868C8.5403 14.5014 8.71672 14.3566 8.84085 14.1709C8.96498 13.9852 9.03124 13.7668 9.03124 13.5434C9.03204 13.395 9.00342 13.2479 8.94703 13.1107C8.89064 12.9734 8.8076 12.8486 8.70272 12.7436C8.59783 12.6386 8.47318 12.5555 8.33596 12.4989C8.19874 12.4424 8.05168 12.4136 7.90327 12.4143Z" fill="#E8F452"/>
<path id="Vector_15" d="M4.1387 24.8266C3.8915 24.8276 3.64655 24.7796 3.41799 24.6854C3.18942 24.5913 2.98175 24.4528 2.80695 24.278C2.63216 24.1032 2.49369 23.8955 2.39953 23.667C2.30537 23.4384 2.25739 23.1935 2.25835 22.9463C2.25835 22.7229 2.19212 22.5046 2.06805 22.3189C1.94397 22.1332 1.76762 21.9885 1.56129 21.903C1.35496 21.8176 1.12792 21.7952 0.908884 21.8388C0.689845 21.8824 0.488646 21.9899 0.330728 22.1478C0.17281 22.3057 0.0652667 22.5069 0.0216972 22.726C-0.0218722 22.945 0.000489376 23.1721 0.0859539 23.3784C0.171418 23.5847 0.316147 23.7611 0.501839 23.8851C0.687531 24.0092 0.905845 24.0754 1.12917 24.0754C1.37648 24.0743 1.62155 24.1222 1.85026 24.2163C2.07896 24.3104 2.28677 24.4488 2.4617 24.6236C2.63663 24.7984 2.7752 25.0062 2.86943 25.2348C2.96367 25.4634 3.01169 25.7085 3.01073 25.9558C3.01097 26.1788 3.07732 26.3968 3.20141 26.5821C3.3255 26.7675 3.50175 26.9118 3.70788 26.997C3.91401 27.0822 4.14077 27.1044 4.35949 27.0607C4.57821 27.0171 4.77909 26.9095 4.93671 26.7518C5.09434 26.594 5.20165 26.393 5.24508 26.1742C5.2885 25.9554 5.26609 25.7287 5.18068 25.5227C5.09528 25.3166 4.9507 25.1405 4.76523 25.0166C4.57977 24.8927 4.36173 24.8266 4.1387 24.8266Z" fill="#E8F452"/>
<path id="Vector_16" d="M71.0972 14.6714C71.7202 14.6714 72.2252 14.1664 72.2252 13.5434C72.2252 12.9205 71.7202 12.4155 71.0972 12.4155C70.4742 12.4155 69.9692 12.9205 69.9692 13.5434C69.9692 14.1664 70.4742 14.6714 71.0972 14.6714Z" fill="#E8F452"/>
<path id="Vector_17" d="M77.8674 3.01013C77.6202 3.01109 77.3752 2.96311 77.1467 2.86895C76.9181 2.77479 76.7104 2.63632 76.5357 2.46153C76.3609 2.28673 76.2224 2.07906 76.1282 1.85049C76.0341 1.62193 75.9861 1.37698 75.987 1.12979C75.987 0.906456 75.9208 0.688141 75.7967 0.502449C75.6727 0.316757 75.4963 0.172028 75.29 0.0865639C75.0837 0.00109939 74.8566 -0.0212617 74.6376 0.0223077C74.4185 0.0658771 74.2173 0.17342 74.0594 0.331338C73.9015 0.489256 73.794 0.690455 73.7504 0.909494C73.7068 1.12853 73.7292 1.35557 73.8147 1.5619C73.9001 1.76823 74.0448 1.94458 74.2305 2.06866C74.4162 2.19273 74.6345 2.25896 74.8579 2.25896C75.1052 2.25784 75.3502 2.30571 75.579 2.39979C75.8077 2.49388 76.0155 2.63232 76.1904 2.80713C76.3653 2.98195 76.5039 3.18967 76.5981 3.41832C76.6924 3.64696 76.7404 3.892 76.7394 4.13931V10.54C76.7404 10.7873 76.6924 11.0323 76.5981 11.261C76.5039 11.4896 76.3653 11.6973 76.1904 11.8721C76.0155 12.047 75.8077 12.1854 75.579 12.2795C75.3502 12.3736 75.1052 12.4214 74.8579 12.4203C74.5649 12.4299 74.2872 12.553 74.0834 12.7636C73.8796 12.9742 73.7656 13.2558 73.7656 13.5489C73.7656 13.842 73.8796 14.1236 74.0834 14.3342C74.2872 14.5448 74.5649 14.6679 74.8579 14.6775C75.1052 14.6763 75.3502 14.7242 75.579 14.8183C75.8077 14.9124 76.0155 15.0508 76.1904 15.2256C76.3653 15.4004 76.5039 15.6082 76.5981 15.8368C76.6924 16.0655 76.7404 16.3105 76.7394 16.5578V25.962C76.7394 26.2611 76.8583 26.548 77.0698 26.7596C77.2813 26.9711 77.5682 27.0899 77.8674 27.0899C78.1665 27.0899 78.4535 26.9711 78.665 26.7596C78.8765 26.548 78.9954 26.2611 78.9954 25.962V16.5518C78.996 16.4035 78.9673 16.2565 78.9108 16.1194C78.8543 15.9822 78.7713 15.8576 78.6664 15.7528C78.5615 15.6479 78.4369 15.5648 78.2998 15.5084C78.1627 15.4519 78.0157 15.4232 77.8674 15.4238C77.3768 15.4114 76.9105 15.2077 76.5679 14.8564C76.2253 14.505 76.0335 14.0336 76.0335 13.5429C76.0335 13.0521 76.2253 12.5807 76.5679 12.2294C76.9105 11.878 77.3768 11.6743 77.8674 11.6619C78.0157 11.6625 78.1627 11.6338 78.2998 11.5773C78.4369 11.5209 78.5615 11.4378 78.6664 11.333C78.7713 11.2281 78.8543 11.1035 78.9108 10.9663C78.9673 10.8292 78.996 10.6822 78.9954 10.5339V4.13931C78.996 3.99094 78.9673 3.84392 78.9108 3.70672C78.8544 3.56951 78.7713 3.44483 78.6665 3.33986C78.5616 3.2349 78.437 3.15172 78.2999 3.09513C78.1628 3.03854 78.0158 3.00965 77.8674 3.01013Z" fill="#E8F452"/>
<path id="Vector_18" d="M67.3349 0.00182623C67.1115 0.00158739 66.893 0.0676396 66.7071 0.191623C66.5212 0.315606 66.3763 0.491947 66.2907 0.698326C66.2051 0.904705 66.1826 1.13184 66.2262 1.35099C66.2697 1.57015 66.3773 1.77146 66.5353 1.92945C66.6932 2.08744 66.8946 2.195 67.1137 2.23854C67.3329 2.28207 67.56 2.2596 67.7664 2.17399C67.9728 2.08838 68.1491 1.94346 68.2731 1.75758C68.3971 1.57171 68.4631 1.35322 68.4629 1.12979C68.4635 0.981487 68.4348 0.834523 68.3783 0.697383C68.3219 0.560244 68.2388 0.435643 68.1339 0.330775C68.0291 0.225906 67.9045 0.142845 67.7673 0.0863855C67.6302 0.0299263 67.4832 0.00118697 67.3349 0.00182623Z" fill="#E8F452"/>
<path id="Vector_19" d="M67.3349 14.6714C67.9579 14.6714 68.4629 14.1664 68.4629 13.5434C68.4629 12.9205 67.9579 12.4155 67.3349 12.4155C66.712 12.4155 66.207 12.9205 66.207 13.5434C66.207 14.1664 66.712 14.6714 67.3349 14.6714Z" fill="#E8F452"/>
<path id="Vector_20" d="M63.5731 0.00182623C63.4248 0.00118697 63.2778 0.0299263 63.1407 0.0863855C63.0036 0.142845 62.879 0.225906 62.7741 0.330775C62.6692 0.435643 62.5862 0.560244 62.5297 0.697383C62.4732 0.834523 62.4445 0.981487 62.4451 1.12979V25.9559C62.4547 26.2489 62.5778 26.5266 62.7884 26.7304C62.999 26.9342 63.2806 27.0482 63.5737 27.0482C63.8668 27.0482 64.1484 26.9342 64.359 26.7304C64.5696 26.5266 64.6927 26.2489 64.7023 25.9559V1.12979C64.7028 0.98143 64.6739 0.834439 64.6173 0.697293C64.5607 0.560146 64.4775 0.435556 64.3726 0.330703C64.2676 0.22585 64.1429 0.142809 64.0057 0.0863639C63.8685 0.0299193 63.7215 0.00118802 63.5731 0.00182623Z" fill="#E8F452"/>
<path id="Vector_21" d="M123.507 0.00182623C123.358 0.00118697 123.211 0.0299263 123.074 0.0863855C122.937 0.142845 122.812 0.225906 122.708 0.330775C122.603 0.435643 122.52 0.560244 122.463 0.697383C122.407 0.834523 122.378 0.981487 122.379 1.12979V25.9559C122.388 26.2489 122.511 26.5266 122.722 26.7304C122.932 26.9342 123.214 27.0482 123.507 27.0482C123.8 27.0482 124.082 26.9342 124.292 26.7304C124.503 26.5266 124.626 26.2489 124.636 25.9559V1.12979C124.636 0.98143 124.607 0.834439 124.551 0.697293C124.494 0.560146 124.411 0.435556 124.306 0.330703C124.201 0.22585 124.076 0.142809 123.939 0.0863639C123.802 0.0299193 123.655 0.00118802 123.507 0.00182623Z" fill="#E8F452"/>
<path id="Vector_22" d="M119.746 14.6714C120.369 14.6714 120.874 14.1664 120.874 13.5434C120.874 12.9205 120.369 12.4155 119.746 12.4155C119.123 12.4155 118.618 12.9205 118.618 13.5434C118.618 14.1664 119.123 14.6714 119.746 14.6714Z" fill="#E8F452"/>
<path id="Vector_23" d="M112.222 14.6714C112.845 14.6714 113.35 14.1664 113.35 13.5434C113.35 12.9205 112.845 12.4155 112.222 12.4155C111.599 12.4155 111.094 12.9205 111.094 13.5434C111.094 14.1664 111.599 14.6714 112.222 14.6714Z" fill="#E8F452"/>
<path id="Vector_24" d="M108.461 0.00182623C108.313 0.00118802 108.166 0.0299193 108.029 0.0863639C107.891 0.142809 107.767 0.22585 107.662 0.330703C107.557 0.435556 107.474 0.560146 107.417 0.697293C107.36 0.834439 107.331 0.98143 107.332 1.12979V25.9559C107.342 26.2489 107.465 26.5266 107.675 26.7304C107.886 26.9342 108.167 27.0482 108.461 27.0482C108.754 27.0482 109.035 26.9342 109.246 26.7304C109.456 26.5266 109.58 26.2489 109.589 25.9559V1.12979C109.59 0.981487 109.561 0.834523 109.505 0.697383C109.448 0.560244 109.365 0.435643 109.26 0.330775C109.155 0.225906 109.031 0.142845 108.894 0.0863855C108.756 0.0299263 108.609 0.00118697 108.461 0.00182623Z" fill="#E8F452"/>
<path id="Vector_25" d="M7.90327 0.00182623C7.67984 0.00158739 7.46136 0.0676396 7.27548 0.191623C7.0896 0.315606 6.94469 0.491947 6.85907 0.698326C6.77346 0.904705 6.751 1.13184 6.79453 1.35099C6.83806 1.57015 6.94563 1.77146 7.10362 1.92945C7.26161 2.08744 7.46292 2.195 7.68207 2.23854C7.90122 2.28207 8.12836 2.2596 8.33474 2.17399C8.54112 2.08838 8.71746 1.94346 8.84144 1.75758C8.96542 1.57171 9.03148 1.35322 9.03124 1.12979C9.03188 0.981487 9.00314 0.834523 8.94668 0.697383C8.89022 0.560244 8.80716 0.435643 8.70229 0.330775C8.59742 0.225906 8.47282 0.142845 8.33568 0.0863855C8.19854 0.0299263 8.05158 0.00118697 7.90327 0.00182623Z" fill="#E8F452"/>
<path id="Vector_26" d="M71.0972 0.00182623C70.8737 0.00158739 70.6553 0.0676396 70.4694 0.191623C70.2835 0.315606 70.1386 0.491947 70.053 0.698326C69.9674 0.904705 69.9449 1.13184 69.9884 1.35099C70.032 1.57015 70.1395 1.77146 70.2975 1.92945C70.4555 2.08744 70.6568 2.195 70.876 2.23854C71.0951 2.28207 71.3223 2.2596 71.5286 2.17399C71.735 2.08838 71.9114 1.94346 72.0354 1.75758C72.1593 1.57171 72.2254 1.35322 72.2252 1.12979C72.2258 0.981487 72.197 0.834523 72.1406 0.697383C72.0841 0.560244 72.0011 0.435643 71.8962 0.330775C71.7913 0.225906 71.6667 0.142845 71.5296 0.0863855C71.3924 0.0299263 71.2455 0.00118697 71.0972 0.00182623Z" fill="#E8F452"/>
<path id="Vector_27" d="M115.984 14.6714C116.607 14.6714 117.112 14.1664 117.112 13.5434C117.112 12.9205 116.607 12.4155 115.984 12.4155C115.361 12.4155 114.856 12.9205 114.856 13.5434C114.856 14.1664 115.361 14.6714 115.984 14.6714Z" fill="#E8F452"/>
<path id="Vector_28" d="M48.2888 19.7714H41.7094C40.4788 19.7714 39.9209 20.3258 39.9197 21.5479C39.9197 22.9681 39.9341 24.3896 39.9124 25.8098C39.8955 26.9293 38.8943 27.6286 37.8702 27.259C37.6202 27.1748 37.3986 27.0225 37.2304 26.8191C37.0623 26.6158 36.9543 26.3695 36.9186 26.1081C36.8935 25.9483 36.8821 25.7867 36.8848 25.625C36.8848 24.2422 36.8848 22.8595 36.8848 21.4755C36.8848 20.4212 37.3678 19.8946 38.4113 19.7739C39.4064 19.6531 39.9136 19.0927 39.916 18.0759C39.916 16.1822 39.916 14.2874 39.916 12.3938C39.916 11.3069 40.3653 10.8033 41.4449 10.6511C42.4787 10.5062 42.9557 9.96513 42.9594 8.91808C42.9594 7.54737 42.9594 6.17666 42.9594 4.81199C42.9594 3.70093 43.4545 3.15265 44.5462 3.04758C45.3651 2.96908 45.8819 2.46186 45.9846 1.63944C46.1307 0.453502 46.6295 0.0102857 47.8323 0.0127011C48.3049 -0.000640061 48.7779 0.0126652 49.2489 0.052554C49.9735 0.135883 50.4566 0.656391 50.5375 1.39307C50.6692 2.55002 51.0556 2.93768 52.2005 3.0657C53.0398 3.15869 53.5796 3.75649 53.5869 4.63567C53.5978 6.0559 53.5869 7.47612 53.5869 8.89755C53.5869 9.98446 54.07 10.5219 55.1496 10.6595C56.1387 10.7803 56.6314 11.3322 56.6351 12.3334C56.6351 14.2282 56.6351 16.1219 56.6351 18.0167C56.6351 19.129 57.1242 19.67 58.2243 19.7835C59.1168 19.8741 59.6482 20.4405 59.653 21.3426C59.6627 22.8256 59.6627 24.3087 59.653 25.7917C59.653 26.7143 59.019 27.3532 58.1495 27.3617C57.28 27.3701 56.6471 26.7216 56.6387 25.805C56.6266 24.421 56.6387 23.0382 56.6387 21.6542C56.6387 20.3258 56.1001 19.7835 54.7885 19.7823L48.2888 19.7714ZM54.8513 16.7257C53.8852 16.4189 53.5772 15.7982 53.5917 14.9456C53.6062 14.0245 53.6062 13.1027 53.5917 12.18C53.5772 11.3262 53.0422 10.7586 52.1981 10.6595C51.017 10.5207 50.5593 10.0086 50.558 8.81905C50.558 7.43627 50.5653 6.05469 50.558 4.6719C50.5508 3.649 49.9458 3.05724 48.9216 3.04154C48.5352 3.04154 48.1487 3.04154 47.7635 3.04154C46.586 3.04154 46.0136 3.60915 46.0087 4.77939C46.0027 6.15009 46.0087 7.5196 46.0087 8.88547C46.0087 9.97238 45.5257 10.5086 44.4472 10.6475C43.4557 10.7755 42.9787 11.3129 42.9739 12.3201C42.9739 13.1413 42.9557 13.9649 42.9739 14.7862C42.9968 15.6883 42.7323 16.396 41.6961 16.7245C42.3954 16.9237 42.7951 17.3078 42.9509 17.9817C43.0041 17.8609 43.0379 17.7981 43.0632 17.7305C43.3144 17.0566 43.8072 16.7196 44.5197 16.7184C47.0232 16.7184 49.5267 16.7039 52.029 16.7317C52.3841 16.7551 52.7254 16.8786 53.0132 17.088C53.2669 17.2655 53.4166 17.5928 53.6316 17.879C53.7801 17.3066 54.1835 16.9503 54.8513 16.7257Z" fill="white"/>
<path id="Vector_29" d="M22.568 13.7246C22.568 17.7228 22.568 21.7218 22.568 25.7216C22.5737 25.9872 22.5247 26.2511 22.4243 26.497C22.3196 26.7129 22.144 26.8864 21.9269 26.9886C21.7098 27.0907 21.4642 27.1154 21.2311 27.0585C20.9958 27.0123 20.7827 26.8888 20.6256 26.7076C20.4685 26.5265 20.3765 26.298 20.364 26.0586C20.3568 25.9487 20.3568 25.8388 20.3568 25.7289C20.3568 17.7059 20.3568 9.68333 20.3568 1.66116C20.3568 0.858054 20.6671 0.428123 21.3132 0.332716C21.4581 0.311701 21.6056 0.319886 21.7472 0.356789C21.8888 0.393693 22.0216 0.458569 22.1378 0.547593C22.2539 0.636618 22.3511 0.747991 22.4235 0.875148C22.496 1.00231 22.5422 1.14268 22.5595 1.28799C22.573 1.44581 22.5775 1.60427 22.5728 1.7626L22.568 13.7246Z" fill="white"/>
<path id="Vector_30" d="M29.6206 2.54998C28.413 2.54998 27.2125 2.55723 26.0085 2.54998C25.1993 2.54394 24.6728 1.92561 24.8358 1.18773C24.8711 0.987791 24.9651 0.802859 25.1057 0.656423C25.2463 0.509988 25.4273 0.408656 25.6257 0.365301C25.8036 0.325829 25.9857 0.307987 26.1679 0.312164C28.4673 0.312164 30.7659 0.312164 33.0637 0.312164C33.1733 0.309732 33.283 0.313361 33.3922 0.323033C34.0407 0.394285 34.467 0.854409 34.4477 1.45825C34.4451 1.60493 34.4133 1.74964 34.3542 1.88394C34.2952 2.01825 34.2101 2.13949 34.1038 2.24061C33.9975 2.34174 33.8722 2.42074 33.7351 2.47302C33.598 2.52529 33.4519 2.54981 33.3052 2.54515C32.0734 2.55844 30.8452 2.54877 29.6206 2.54998Z" fill="white"/>
<path id="Vector_31" d="M29.6028 24.8592C30.831 24.8592 32.0605 24.8471 33.2887 24.8592C34.1171 24.8701 34.6268 25.5717 34.384 26.3265C34.2306 26.8036 33.8345 27.0753 33.2561 27.0765C31.7368 27.0765 30.2163 27.0765 28.6959 27.0765C27.8082 27.0765 26.9206 27.0765 26.039 27.0765C25.2866 27.0765 24.8168 26.6429 24.8168 25.9703C24.8168 25.2976 25.2902 24.8604 26.0342 24.8556C27.2261 24.8471 28.4181 24.8556 29.6089 24.8556L29.6028 24.8592Z" fill="white"/>
<path id="Vector_32" d="M28.8492 14.8163C27.8891 14.8163 26.929 14.8272 25.9689 14.8163C25.3059 14.8078 24.8506 14.3876 24.8132 13.791C24.7697 13.0942 25.2358 12.6014 25.9786 12.593C27.0244 12.5809 28.069 12.593 29.1185 12.593C30.0303 12.593 30.9421 12.5869 31.8539 12.593C32.0818 12.5863 32.3059 12.6532 32.4929 12.7837C32.6799 12.9142 32.82 13.1013 32.8925 13.3176C33.0567 13.7258 32.9662 14.2499 32.5966 14.5083C32.3295 14.688 32.0184 14.7916 31.6969 14.8078C30.7501 14.8453 29.8009 14.8211 28.8528 14.8211L28.8492 14.8163Z" fill="white"/>
<path id="Vector_33" d="M89.0094 13.5664C89.0094 16.1593 89.0178 18.7522 89.0094 21.345C89.0094 22.7496 87.8138 23.729 86.4551 23.4766C85.4552 23.2918 84.7451 22.4005 84.739 21.3028C84.7306 19.7606 84.739 18.2196 84.739 16.6774C84.739 13.0544 84.739 9.43416 84.739 5.81678C84.739 4.40139 85.8586 3.40143 87.1967 3.59828C88.263 3.75407 89.0082 4.64051 89.0082 5.79142C89.0146 8.38308 89.015 10.9748 89.0094 13.5664Z" fill="white"/>
<path id="Vector_34" d="M96.1238 27.079C94.2435 27.079 92.3644 27.0899 90.484 27.079C89.1858 27.0694 88.2365 26.0694 88.3005 24.8134C88.3316 24.3379 88.5208 23.8865 88.8382 23.5311C89.1555 23.1756 89.5827 22.9366 90.0517 22.8522C90.2478 22.8212 90.4461 22.8058 90.6446 22.8063C94.299 22.8063 97.9539 22.8063 101.609 22.8063C102.305 22.8063 102.928 22.9705 103.406 23.5091C104.01 24.1891 104.131 24.9752 103.788 25.7916C103.425 26.6273 102.752 27.0742 101.834 27.0802C99.9304 27.0875 98.0271 27.079 96.1238 27.079Z" fill="white"/>
<path id="Vector_35" d="M94.3519 4.27574C93.0452 4.27574 91.7373 4.2842 90.4306 4.27574C89.3642 4.26729 88.543 3.56684 88.3328 2.51616C88.2479 2.04081 88.3283 1.55069 88.5608 1.12746C88.7933 0.704224 89.1638 0.37343 89.6106 0.190186C89.8891 0.0765198 90.1865 0.0159009 90.4873 0.0114505C93.0548 -0.00143137 95.6228 -0.00344407 98.1911 0.0054122C99.4507 0.0054122 100.404 0.93532 100.407 2.14058C100.411 3.34584 99.4603 4.26971 98.1983 4.27574C96.9158 4.28661 95.632 4.27695 94.3519 4.27574Z" fill="white"/>
<path id="Vector_36" d="M103.96 8.01707C103.96 8.82138 103.978 9.62811 103.96 10.4324C103.936 11.3285 103.462 11.9613 102.66 12.3055C101.858 12.6497 101.101 12.5132 100.438 11.9432C100.216 11.768 100.037 11.546 99.9114 11.2932C99.7861 11.0403 99.7183 10.7629 99.713 10.4807C99.7009 8.84674 99.6828 7.21276 99.713 5.57999C99.7359 4.46168 100.679 3.59336 101.791 3.57404C102.335 3.55477 102.865 3.74867 103.267 4.11438C103.67 4.4801 103.914 4.98869 103.947 5.53168C103.991 6.35773 103.956 7.18861 103.956 8.01707H103.96Z" fill="white"/>
<path id="Vector_37" d="M51.5301 85.2864C51.5379 85.5565 51.4423 85.8195 51.2627 86.0215C51.0831 86.2235 50.8332 86.3494 50.564 86.3733C50.8243 86.4023 51.0654 86.5243 51.2429 86.7169C51.4204 86.9095 51.5224 87.1597 51.5301 87.4215C51.5374 87.1391 51.6555 86.8709 51.8588 86.6747C52.0622 86.4786 52.3345 86.3703 52.617 86.3733H63.4957C63.9762 86.3733 64.4369 86.5641 64.7767 86.9038C65.1164 87.2436 65.3072 87.7043 65.3072 88.1848C65.3072 88.6652 65.1164 89.126 64.7767 89.4657C64.4369 89.8054 63.9762 89.9963 63.4957 89.9963H49.7174C49.237 89.9963 48.7762 89.8054 48.4365 89.4657C48.0967 89.126 47.9059 88.6652 47.9059 88.1848V82.3879C47.9059 81.9075 48.0967 81.4467 48.4365 81.107C48.7762 80.7673 49.237 80.5764 49.7174 80.5764C50.0057 80.5764 50.2821 80.4619 50.486 80.2581C50.6898 80.0543 50.8043 79.7778 50.8043 79.4895C50.8043 79.0091 50.9952 78.5483 51.3349 78.2086C51.6746 77.8689 52.1354 77.678 52.6158 77.678H55.1519C55.4402 77.678 55.7166 77.5635 55.9205 77.3597C56.1243 77.1558 56.2388 76.8794 56.2388 76.5911C56.2388 76.1107 56.4297 75.6499 56.7694 75.3102C57.1091 74.9705 57.5699 74.7796 58.0503 74.7796H60.5864C60.8747 74.7796 61.1512 74.6651 61.355 74.4613C61.5588 74.2574 61.6734 73.981 61.6734 73.6927V68.6205C61.6734 68.3322 61.5588 68.0557 61.355 67.8519C61.1512 67.6481 60.8747 67.5336 60.5864 67.5336H52.6182C52.33 67.5336 52.0535 67.6481 51.8497 67.8519C51.6458 68.0557 51.5313 68.3322 51.5313 68.6205C51.5313 68.9788 51.4251 69.329 51.226 69.6269C51.027 69.9248 50.7441 70.157 50.413 70.2941C50.082 70.4312 49.7178 70.4671 49.3664 70.3972C49.015 70.3273 48.6922 70.1547 48.4389 69.9014C48.1855 69.6481 48.013 69.3253 47.9431 68.9739C47.8732 68.6225 47.9091 68.2582 48.0462 67.9272C48.1833 67.5962 48.4155 67.3133 48.7134 67.1143C49.0113 66.9152 49.3615 66.809 49.7198 66.809C50.0081 66.809 50.2845 66.6944 50.4884 66.4906C50.6922 66.2868 50.8067 66.0103 50.8067 65.7221C50.8067 65.2416 50.9976 64.7808 51.3373 64.4411C51.677 64.1014 52.1378 63.9105 52.6182 63.9105H60.5961C61.0766 63.9105 61.5373 64.1014 61.877 64.4411C62.2168 64.7808 62.4076 65.2416 62.4076 65.7221C62.4076 66.0103 62.5221 66.2868 62.726 66.4906C62.9298 66.6944 63.2063 66.809 63.4945 66.809C63.975 66.809 64.4357 66.9998 64.7755 67.3395C65.1152 67.6793 65.306 68.14 65.306 68.6205V73.6927C65.306 74.1731 65.1152 74.6339 64.7755 74.9736C64.4357 75.3133 63.975 75.5042 63.4945 75.5042C63.2063 75.5042 62.9298 75.6187 62.726 75.8226C62.5221 76.0264 62.4076 76.3028 62.4076 76.5911C62.4076 77.0716 62.2168 77.5323 61.877 77.872C61.5373 78.2118 61.0766 78.4026 60.5961 78.4026H58.06C57.7717 78.4026 57.4953 78.5171 57.2914 78.721C57.0876 78.9248 56.9731 79.2013 56.9731 79.4895C56.9731 79.97 56.7822 80.4307 56.4425 80.7705C56.1028 81.1102 55.642 81.301 55.1616 81.301H52.6255C52.3372 81.301 52.0607 81.4156 51.8569 81.6194C51.6531 81.8232 51.5386 82.0997 51.5386 82.3879L51.5301 85.2864Z" fill="#E8F452"/>
<path id="Vector_38" d="M69.8627 67.1569C69.8627 67.0608 69.9008 66.9686 69.9688 66.9007C70.0367 66.8327 70.1289 66.7946 70.225 66.7946C70.3603 66.8011 70.4958 66.7877 70.6271 66.7547C70.5942 66.8865 70.5807 67.0224 70.5873 67.1581V86.7369C70.5786 86.8726 70.5921 87.0088 70.6271 87.1402C70.4958 87.1073 70.3603 87.0939 70.225 87.1004C70.1289 87.1004 70.0367 87.0622 69.9688 86.9943C69.9008 86.9263 69.8627 86.8342 69.8627 86.7381V67.1569ZM82.2317 64.6582C82.0999 64.6253 81.964 64.6119 81.8283 64.6183H73.1258C72.9901 64.6097 72.8539 64.6232 72.7224 64.6582C72.7585 64.5274 72.7723 64.3914 72.7635 64.256C72.7635 64.16 72.8017 64.0678 72.8696 63.9999C72.9376 63.9319 73.0297 63.8937 73.1258 63.8937H81.8283C81.9244 63.8937 82.0165 63.9319 82.0845 63.9999C82.1524 64.0678 82.1906 64.16 82.1906 64.256C82.1818 64.3914 82.1956 64.5274 82.2317 64.6582ZM81.8283 89.2754C81.964 89.2819 82.0999 89.2684 82.2317 89.2355C82.1977 89.3667 82.1839 89.5023 82.1906 89.6377C82.1906 89.7338 82.1524 89.8259 82.0845 89.8939C82.0165 89.9618 81.9244 90 81.8283 90H73.1258C73.0297 90 72.9376 89.9618 72.8696 89.8939C72.8017 89.8259 72.7635 89.7338 72.7635 89.6377C72.7702 89.5023 72.7564 89.3667 72.7224 89.2355C72.8539 89.2706 72.9901 89.284 73.1258 89.2754H81.8283ZM84.3282 87.1402C84.3643 87.009 84.3781 86.8727 84.3692 86.7369V67.1569C84.376 67.0211 84.3621 66.8851 84.3282 66.7535C84.4596 66.7885 84.5958 66.8019 84.7315 66.7934C84.8276 66.7934 84.9198 66.8315 84.9877 66.8995C85.0557 66.9674 85.0938 67.0596 85.0938 67.1557V86.7369C85.0938 86.833 85.0557 86.9251 84.9877 86.9931C84.9198 87.061 84.8276 87.0992 84.7315 87.0992C84.5958 87.091 84.4595 87.1049 84.3282 87.1402Z" fill="white"/>
<path id="Vector_39" d="M91.8159 66.7934C92.2963 66.7934 92.7571 66.6025 93.0968 66.2628C93.4365 65.9231 93.6274 65.4623 93.6274 64.9819C93.6274 64.7669 93.6911 64.5567 93.8105 64.378C93.93 64.1993 94.0997 64.0599 94.2983 63.9777C94.4969 63.8954 94.7155 63.8739 94.9263 63.9158C95.1371 63.9578 95.3308 64.0613 95.4828 64.2133C95.6348 64.3653 95.7384 64.559 95.7803 64.7698C95.8222 64.9806 95.8007 65.1992 95.7184 65.3978C95.6362 65.5964 95.4969 65.7662 95.3181 65.8856C95.1394 66.005 94.9292 66.0688 94.7143 66.0688C94.2338 66.0688 93.7731 66.2596 93.4333 66.5993C93.0936 66.9391 92.9028 67.3998 92.9028 67.8803C92.9028 68.0952 92.839 68.3054 92.7196 68.4841C92.6001 68.6629 92.4304 68.8022 92.2318 68.8844C92.0332 68.9667 91.8146 68.9882 91.6038 68.9463C91.393 68.9043 91.1993 68.8008 91.0473 68.6488C90.8953 68.4968 90.7918 68.3032 90.7498 68.0923C90.7079 67.8815 90.7294 67.6629 90.8117 67.4643C90.8939 67.2657 91.0333 67.096 91.212 66.9765C91.3907 66.8571 91.6009 66.7934 91.8159 66.7934ZM90.7289 80.5729C90.7289 80.2846 90.8435 80.0082 91.0473 79.8044C91.2511 79.6005 91.5276 79.486 91.8159 79.486C92.2963 79.486 92.7571 79.2952 93.0968 78.9554C93.4365 78.6157 93.6274 78.1549 93.6274 77.6745C93.6274 77.4595 93.6911 77.2494 93.8105 77.0706C93.93 76.8919 94.0997 76.7526 94.2983 76.6703C94.4969 76.5881 94.7155 76.5665 94.9263 76.6085C95.1371 76.6504 95.3308 76.7539 95.4828 76.9059C95.6348 77.0579 95.7384 77.2516 95.7803 77.4625C95.8222 77.6733 95.8007 77.8918 95.7184 78.0904C95.6362 78.289 95.4969 78.4588 95.3181 78.5782C95.1394 78.6977 94.9292 78.7614 94.7143 78.7614C94.2338 78.7614 93.7731 78.9523 93.4333 79.292C93.0936 79.6317 92.9028 80.0925 92.9028 80.5729V86.0074C92.9028 86.4879 93.0936 86.9486 93.4333 87.2884C93.7731 87.6281 94.2338 87.8189 94.7143 87.8189C94.9292 87.8189 95.1394 87.8827 95.3181 88.0021C95.4969 88.1216 95.6362 88.2913 95.7184 88.4899C95.8007 88.6885 95.8222 88.9071 95.7803 89.1179C95.7384 89.3287 95.6348 89.5224 95.4828 89.6744C95.3308 89.8264 95.1371 89.9299 94.9263 89.9719C94.7155 90.0138 94.4969 89.9923 94.2983 89.91C94.0997 89.8278 93.93 89.6884 93.8105 89.5097C93.6911 89.331 93.6274 89.1208 93.6274 88.9059C93.6274 88.4254 93.4365 87.9646 93.0968 87.6249C92.7571 87.2852 92.2963 87.0943 91.8159 87.0943C91.5276 87.0943 91.2511 86.9798 91.0473 86.776C90.8435 86.5722 90.7289 86.2957 90.7289 86.0074V80.5729ZM98.3433 63.8925C98.5583 63.8925 98.7684 63.9563 98.9472 64.0757C99.1259 64.1951 99.2652 64.3649 99.3475 64.5635C99.4298 64.7621 99.4513 64.9806 99.4093 65.1915C99.3674 65.4023 99.2639 65.596 99.1119 65.748C98.9599 65.9 98.7662 66.0035 98.5554 66.0455C98.3445 66.0874 98.126 66.0659 97.9274 65.9836C97.7288 65.9013 97.559 65.762 97.4396 65.5833C97.3202 65.4045 97.2564 65.1944 97.2564 64.9794C97.2564 64.8364 97.2846 64.6948 97.3395 64.5627C97.3943 64.4305 97.4747 64.3106 97.576 64.2096C97.6774 64.1086 97.7976 64.0286 97.9299 63.9742C98.0622 63.9198 98.2039 63.8921 98.3469 63.8925H98.3433ZM98.3433 76.584C98.5583 76.584 98.7684 76.6477 98.9472 76.7671C99.1259 76.8866 99.2652 77.0563 99.3475 77.2549C99.4298 77.4535 99.4513 77.6721 99.4093 77.8829C99.3674 78.0938 99.2639 78.2874 99.1119 78.4394C98.9599 78.5914 98.7662 78.695 98.5554 78.7369C98.3445 78.7788 98.126 78.7573 97.9274 78.675C97.7288 78.5928 97.559 78.4535 97.4396 78.2747C97.3202 78.096 97.2564 77.8858 97.2564 77.6709C97.2564 77.5278 97.2846 77.3862 97.3395 77.2541C97.3943 77.122 97.4747 77.002 97.576 76.901C97.6774 76.8001 97.7976 76.7201 97.9299 76.6657C98.0622 76.6113 98.2039 76.5835 98.3469 76.584H98.3433ZM98.3433 87.825C98.5583 87.825 98.7684 87.8887 98.9472 88.0082C99.1259 88.1276 99.2652 88.2973 99.3475 88.4959C99.4298 88.6946 99.4513 88.9131 99.4093 89.1239C99.3674 89.3348 99.2639 89.5284 99.1119 89.6804C98.9599 89.8325 98.7662 89.936 98.5554 89.9779C98.3445 90.0198 98.126 89.9983 97.9274 89.9161C97.7288 89.8338 97.559 89.6945 97.4396 89.5157C97.3202 89.337 97.2564 89.1269 97.2564 88.9119C97.2564 88.7688 97.2846 88.6272 97.3395 88.4951C97.3943 88.363 97.4747 88.243 97.576 88.142C97.6774 88.0411 97.7976 87.9611 97.9299 87.9067C98.0622 87.8523 98.2039 87.8245 98.3469 87.825H98.3433ZM103.778 67.8815C103.778 67.401 103.587 66.9403 103.247 66.6005C102.908 66.2608 102.447 66.07 101.966 66.07C101.751 66.07 101.541 66.0062 101.362 65.8868C101.184 65.7674 101.044 65.5976 100.962 65.399C100.88 65.2004 100.858 64.9819 100.9 64.771C100.942 64.5602 101.046 64.3665 101.198 64.2145C101.35 64.0625 101.543 63.959 101.754 63.917C101.965 63.8751 102.184 63.8966 102.382 63.9789C102.581 64.0612 102.751 64.2005 102.87 64.3792C102.989 64.5579 103.053 64.7681 103.053 64.9831C103.053 65.4635 103.244 65.9243 103.584 66.264C103.924 66.6037 104.384 66.7946 104.865 66.7946C105.153 66.7946 105.429 66.9091 105.633 67.1129C105.837 67.3167 105.952 67.5932 105.952 67.8815V74.7652C105.952 75.0535 105.837 75.3299 105.633 75.5338C105.429 75.7376 105.153 75.8521 104.865 75.8521C104.384 75.8521 103.924 76.043 103.584 76.3827C103.244 76.7224 103.053 77.1832 103.053 77.6636C103.053 77.8786 102.989 78.0887 102.87 78.2675C102.751 78.4462 102.581 78.5855 102.382 78.6678C102.184 78.7501 101.965 78.7716 101.754 78.7296C101.543 78.6877 101.35 78.5842 101.198 78.4322C101.046 78.2802 100.942 78.0865 100.9 77.8757C100.858 77.6648 100.88 77.4463 100.962 77.2477C101.044 77.0491 101.184 76.8793 101.362 76.7599C101.541 76.6405 101.751 76.5767 101.966 76.5767C102.447 76.5767 102.908 76.3859 103.247 76.0461C103.587 75.7064 103.778 75.2457 103.778 74.7652V67.8815ZM101.966 87.825C102.181 87.825 102.391 87.8887 102.57 88.0082C102.749 88.1276 102.888 88.2973 102.971 88.4959C103.053 88.6946 103.074 88.9131 103.032 89.1239C102.99 89.3348 102.887 89.5284 102.735 89.6804C102.583 89.8325 102.389 89.936 102.178 89.9779C101.968 90.0198 101.749 89.9983 101.55 89.9161C101.352 89.8338 101.182 89.6945 101.063 89.5157C100.943 89.337 100.879 89.1269 100.879 88.9119C100.879 88.7686 100.908 88.6268 100.963 88.4945C101.018 88.3623 101.098 88.2422 101.2 88.1412C101.301 88.0402 101.422 87.9602 101.555 87.906C101.687 87.8517 101.829 87.8242 101.972 87.825H101.966ZM105.589 87.825C105.804 87.825 106.014 87.8887 106.193 88.0082C106.372 88.1276 106.511 88.2973 106.594 88.4959C106.676 88.6946 106.697 88.9131 106.655 89.1239C106.613 89.3348 106.51 89.5284 106.358 89.6804C106.206 89.8325 106.012 89.936 105.801 89.9779C105.591 90.0198 105.372 89.9983 105.173 89.9161C104.975 89.8338 104.805 89.6945 104.686 89.5157C104.566 89.337 104.502 89.1269 104.502 88.9119C104.502 88.7683 104.531 88.6262 104.586 88.4937C104.641 88.3612 104.722 88.241 104.824 88.1399C104.926 88.0388 105.047 87.959 105.18 87.9049C105.313 87.8509 105.455 87.8237 105.599 87.825H105.589Z" fill="#E8F452"/>
<path id="Vector_40" d="M110.151 66.7934C110.439 66.7934 110.715 66.6789 110.919 66.475C111.123 66.2712 111.238 65.9947 111.238 65.7065C111.238 65.3482 111.344 64.9979 111.543 64.7C111.742 64.4021 112.025 64.17 112.356 64.0328C112.687 63.8957 113.051 63.8599 113.402 63.9298C113.754 63.9997 114.077 64.1722 114.33 64.4255C114.583 64.6789 114.756 65.0017 114.826 65.3531C114.896 65.7044 114.86 66.0687 114.723 66.3997C114.586 66.7307 114.353 67.0136 114.055 67.2127C113.758 67.4117 113.407 67.518 113.049 67.518C112.761 67.518 112.484 67.6325 112.28 67.8363C112.077 68.0402 111.962 68.3166 111.962 68.6049C111.962 68.9632 111.856 69.3134 111.657 69.6113C111.458 69.9092 111.175 70.1414 110.844 70.2785C110.513 70.4156 110.149 70.4515 109.797 70.3816C109.446 70.3117 109.123 70.1391 108.87 69.8858C108.616 69.6325 108.444 69.3097 108.374 68.9583C108.304 68.6069 108.34 68.2426 108.477 67.9116C108.614 67.5806 108.846 67.2977 109.144 67.0987C109.442 66.8996 109.792 66.7934 110.151 66.7934ZM110.151 87.1004C109.792 87.1004 109.442 86.9941 109.144 86.7951C108.846 86.596 108.614 86.3131 108.477 85.9821C108.34 85.6511 108.304 85.2869 108.374 84.9355C108.444 84.5841 108.616 84.2613 108.87 84.0079C109.123 83.7546 109.446 83.5821 109.797 83.5122C110.149 83.4423 110.513 83.4782 110.844 83.6153C111.175 83.7524 111.458 83.9846 111.657 84.2825C111.856 84.5804 111.962 84.9306 111.962 85.2889C111.962 85.5771 112.077 85.8536 112.28 86.0574C112.484 86.2613 112.761 86.3758 113.049 86.3758C113.407 86.3758 113.758 86.482 114.055 86.6811C114.353 86.8801 114.586 87.163 114.723 87.4941C114.86 87.8251 114.896 88.1893 114.826 88.5407C114.756 88.8921 114.583 89.2149 114.33 89.4682C114.077 89.7216 113.754 89.8941 113.402 89.964C113.051 90.0339 112.687 89.998 112.356 89.8609C112.025 89.7238 111.742 89.4916 111.543 89.1937C111.344 88.8958 111.238 88.5456 111.238 88.1873C111.238 87.899 111.123 87.6226 110.919 87.4187C110.715 87.2149 110.439 87.1004 110.151 87.1004ZM113.049 75.1336C113.407 75.1336 113.758 75.2398 114.055 75.4389C114.353 75.6379 114.586 75.9208 114.723 76.2518C114.86 76.5828 114.896 76.9471 114.826 77.2985C114.756 77.6499 114.583 77.9726 114.33 78.226C114.077 78.4793 113.754 78.6519 113.402 78.7218C113.051 78.7917 112.687 78.7558 112.356 78.6187C112.025 78.4816 111.742 78.2494 111.543 77.9515C111.344 77.6536 111.238 77.3034 111.238 76.9451C111.238 76.707 111.284 76.4712 111.376 76.2513C111.467 76.0313 111.6 75.8315 111.769 75.6633C111.937 75.495 112.137 75.3616 112.357 75.2708C112.578 75.1799 112.813 75.1332 113.051 75.1336H113.049ZM121.389 79.8435C121.389 79.5552 121.275 79.2788 121.071 79.0749C120.867 78.8711 120.591 78.7566 120.302 78.7566C119.822 78.7566 119.361 78.5657 119.021 78.226C118.682 77.8863 118.491 77.4255 118.491 76.9451C118.491 76.4646 118.682 76.0039 119.021 75.6641C119.361 75.3244 119.822 75.1336 120.302 75.1336C120.591 75.1336 120.867 75.019 121.071 74.8152C121.275 74.6114 121.389 74.3349 121.389 74.0467V68.6121C121.389 68.3239 121.275 68.0474 121.071 67.8436C120.867 67.6397 120.591 67.5252 120.302 67.5252C119.944 67.5252 119.594 67.419 119.296 67.2199C118.998 67.0209 118.766 66.738 118.629 66.4069C118.492 66.0759 118.456 65.7117 118.526 65.3603C118.596 65.0089 118.768 64.6861 119.021 64.4328C119.275 64.1794 119.598 64.0069 119.949 63.937C120.3 63.8671 120.665 63.903 120.996 64.0401C121.327 64.1772 121.609 64.4094 121.809 64.7073C122.008 65.0052 122.114 65.3554 122.114 65.7137C122.114 66.002 122.228 66.2784 122.432 66.4823C122.636 66.6861 122.912 66.8006 123.201 66.8006C123.681 66.8006 124.142 66.9915 124.482 67.3312C124.821 67.6709 125.012 68.1317 125.012 68.6121V74.0467C125.012 74.5271 124.821 74.9879 124.482 75.3276C124.142 75.6673 123.681 75.8582 123.201 75.8582C122.912 75.8582 122.636 75.9727 122.432 76.1765C122.228 76.3803 122.114 76.6568 122.114 76.9451C122.114 77.2333 122.228 77.5098 122.432 77.7136C122.636 77.9175 122.912 78.032 123.201 78.032C123.681 78.032 124.142 78.2228 124.482 78.5625C124.821 78.9023 125.012 79.363 125.012 79.8435V85.278C125.012 85.7585 124.821 86.2192 124.482 86.5589C124.142 86.8987 123.681 87.0895 123.201 87.0895C122.912 87.0895 122.636 87.204 122.432 87.4079C122.228 87.6117 122.114 87.8882 122.114 88.1764C122.114 88.5347 122.008 88.8849 121.809 89.1828C121.609 89.4807 121.327 89.7129 120.996 89.85C120.665 89.9871 120.3 90.023 119.949 89.9531C119.598 89.8832 119.275 89.7107 119.021 89.4574C118.768 89.204 118.596 88.8812 118.526 88.5298C118.456 88.1784 118.492 87.8142 118.629 87.4832C118.766 87.1522 118.998 86.8693 119.296 86.6702C119.594 86.4712 119.944 86.3649 120.302 86.3649C120.591 86.3649 120.867 86.2504 121.071 86.0466C121.275 85.8427 121.389 85.5663 121.389 85.278V79.8435Z" fill="white"/>
</g>
</svg>
