<svg width="960" height="256" viewBox="0 0 960 256" fill="none" xmlns="http://www.w3.org/2000/svg">
<path d="M63.9234 68.1922C62.8465 68.1963 61.7794 67.9873 60.7837 67.5771C59.7879 67.1669 58.8832 66.5637 58.1217 65.8022C57.3602 65.0407 56.757 64.136 56.3468 63.1402C55.9366 62.1445 55.7276 61.0774 55.7317 60.0005C55.7328 59.0273 55.4452 58.0757 54.9053 57.2661C54.3654 56.4564 53.5974 55.8251 52.6987 55.452C51.7999 55.0788 50.8106 54.9807 49.8561 55.1699C48.9015 55.3591 48.0245 55.8272 47.336 56.5149C46.6475 57.2027 46.1785 58.0792 45.9882 59.0336C45.798 59.988 45.8951 60.9773 46.2673 61.8765C46.6394 62.7757 47.2699 63.5443 48.079 64.085C48.8881 64.6258 49.8394 64.9144 50.8125 64.9144C51.8899 64.9096 52.9575 65.1181 53.9539 65.528C54.9502 65.9378 55.8556 66.541 56.6176 67.3025C57.3797 68.0641 57.9834 68.969 58.3939 69.9651C58.8044 70.9612 59.0136 72.0287 59.0095 73.1061V100.964C59.0136 102.041 58.8044 103.109 58.3939 104.105C57.9834 105.101 57.3797 106.006 56.6176 106.768C55.8556 107.529 54.9502 108.132 53.9539 108.542C52.9575 108.952 51.8899 109.161 50.8125 109.156C49.8396 109.156 48.8885 109.444 48.0796 109.985C47.2706 110.525 46.6401 111.294 46.2678 112.192C45.8954 113.091 45.798 114.08 45.9878 115.035C46.1776 115.989 46.6461 116.865 47.3341 117.553C48.0221 118.241 48.8986 118.71 49.8528 118.9C50.8071 119.089 51.7962 118.992 52.695 118.62C53.5939 118.247 54.3622 117.617 54.9027 116.808C55.4432 115.999 55.7317 115.048 55.7317 114.075C55.7276 112.998 55.9366 111.931 56.3468 110.935C56.757 109.939 57.3602 109.035 58.1217 108.273C58.8832 107.512 59.7879 106.909 60.7837 106.498C61.7794 106.088 62.8465 105.879 63.9234 105.883C64.5697 105.885 65.2101 105.76 65.8076 105.513C66.405 105.266 66.9478 104.904 67.4046 104.447C67.8614 103.99 68.2232 103.446 68.4691 102.849C68.715 102.251 68.8401 101.61 68.8374 100.964V73.1061C68.8401 72.46 68.7149 71.8198 68.469 71.2223C68.223 70.6249 67.8612 70.0821 67.4043 69.6252C66.9474 69.1683 66.4046 68.8065 65.8072 68.5605C65.2097 68.3146 64.5695 68.1894 63.9234 68.1922Z" fill="#0F1012"/>
<path d="M63.9234 14.1124C62.8465 14.1166 61.7794 13.9075 60.7837 13.4974C59.7879 13.0872 58.8832 12.4839 58.1217 11.7224C57.3602 10.9609 56.757 10.0562 56.3468 9.06049C55.9366 8.06474 55.7276 6.99766 55.7317 5.92074C55.7317 4.94781 55.4432 3.99673 54.9027 3.18777C54.3622 2.37881 53.5939 1.74831 52.695 1.37598C51.7962 1.00366 50.8071 0.906243 49.8528 1.09605C48.8986 1.28586 48.0221 1.75437 47.3341 2.44233C46.6461 3.1303 46.1776 4.00682 45.9878 4.96105C45.798 5.91528 45.8954 6.90437 46.2678 7.80324C46.6401 8.70211 47.2706 9.47038 48.0796 10.0109C48.8885 10.5514 49.8396 10.84 50.8125 10.84C51.8899 10.8351 52.9575 11.0436 53.9539 11.4535C54.9502 11.8634 55.8556 12.4665 56.6176 13.2281C57.3797 13.9896 57.9834 14.8946 58.3939 15.8907C58.8044 16.8867 59.0136 17.9543 59.0095 19.0316C59.0105 20.0033 59.2996 20.9528 59.8402 21.7602C60.3807 22.5676 61.1486 23.1966 62.0466 23.5678C62.9446 23.9389 63.9324 24.0354 64.8853 23.8452C65.8382 23.655 66.7132 23.1866 67.3999 22.4992C68.0866 21.8117 68.5541 20.9362 68.7433 19.9831C68.9325 19.03 68.8349 18.0423 68.4628 17.1447C68.0907 16.2471 67.4609 15.4799 66.6529 14.9402C65.8449 14.4005 64.8951 14.1124 63.9234 14.1124Z" fill="#0F1012"/>
<path d="M34.4294 109.156C33.4562 109.155 32.5046 109.442 31.695 109.982C30.8853 110.522 30.254 111.29 29.8808 112.189C29.5077 113.088 29.4096 114.077 29.5988 115.031C29.788 115.986 30.2561 116.863 30.9438 117.552C31.6316 118.24 32.5081 118.709 33.4625 118.899C34.4168 119.09 35.4062 118.992 36.3054 118.62C37.2046 118.248 37.9731 117.618 38.5139 116.809C39.0547 115.999 39.3433 115.048 39.3433 114.075C39.3461 113.429 39.2209 112.788 38.975 112.19C38.7291 111.593 38.3674 111.05 37.9106 110.592C37.4538 110.135 36.911 109.773 36.3135 109.526C35.7161 109.28 35.0757 109.154 34.4294 109.156Z" fill="#0F1012"/>
<path d="M18.0305 10.8399C19.0036 10.841 19.9552 10.5534 20.7649 10.0135C21.5745 9.47357 22.2058 8.70566 22.579 7.80689C22.9521 6.90811 23.0503 5.91886 22.8611 4.96428C22.6718 4.0097 22.2038 3.13268 21.516 2.44419C20.8282 1.7557 19.9517 1.28667 18.9974 1.09644C18.043 0.906201 17.0536 1.00331 16.1544 1.37548C15.2553 1.74765 14.4867 2.37815 13.9459 3.18722C13.4052 3.9963 13.1165 4.94759 13.1165 5.92074C13.1207 6.99721 12.9118 8.06387 12.502 9.05926C12.0921 10.0547 11.4893 10.9591 10.7284 11.7206C9.96745 12.482 9.06338 13.0853 8.06824 13.4958C7.07311 13.9063 6.00658 14.1159 4.93011 14.1124C4.28377 14.1103 3.64341 14.2362 3.04594 14.4827C2.44846 14.7292 1.90569 15.0916 1.4489 15.5489C0.992113 16.0062 0.630344 16.5493 0.384444 17.1471C0.138545 17.7448 0.0133784 18.3853 0.0161587 19.0316V46.9159C0.0133738 47.562 0.138576 48.2022 0.384539 48.7997C0.630501 49.3971 0.992356 49.94 1.44921 50.3968C1.90607 50.8537 2.44889 51.2155 3.04633 51.4615C3.64378 51.7074 4.28402 51.8326 4.93011 51.8299C6.00772 51.8257 7.07549 52.0349 8.07187 52.4453C9.06825 52.8558 9.97354 53.4594 10.7355 54.2214C11.4975 54.9834 12.1011 55.8887 12.5116 56.885C12.922 57.8814 13.1312 58.9492 13.127 60.0268C13.1333 60.9978 13.427 61.9451 13.9712 62.7493C14.5154 63.5534 15.2857 64.1783 16.1847 64.5451C17.0838 64.9119 18.0713 65.0041 19.0227 64.8101C19.9741 64.6161 20.8467 64.1445 21.5304 63.455C22.214 62.7655 22.6781 61.8889 22.864 60.9359C23.0498 59.9828 22.9492 58.9961 22.5748 58.1002C22.2003 57.2043 21.5688 56.4395 20.7601 55.9022C19.9513 55.3649 19.0015 55.0792 18.0305 55.0813C16.9536 55.0855 15.8865 54.8764 14.8907 54.4662C13.895 54.056 12.9903 53.4528 12.2288 52.6913C11.4673 51.9298 10.864 51.0251 10.4539 50.0294C10.0437 49.0336 9.83462 47.9665 9.8388 46.8896V19.0316C9.83462 17.9547 10.0437 16.8876 10.4539 15.8919C10.864 14.8961 11.4673 13.9914 12.2288 13.2299C12.9903 12.4684 13.895 11.8652 14.8907 11.455C15.8865 11.0448 16.9536 10.8358 18.0305 10.8399Z" fill="#0F1012"/>
<path d="M34.4294 55.0813C33.4562 55.0802 32.5046 55.3679 31.695 55.9077C30.8853 56.4476 30.254 57.2156 29.8808 58.1143C29.5077 59.0131 29.4096 60.0024 29.5988 60.9569C29.788 61.9115 30.2561 62.7885 30.9438 63.477C31.6316 64.1655 32.5081 64.6346 33.4625 64.8248C34.4168 65.015 35.4062 64.9179 36.3054 64.5457C37.2046 64.1736 37.9731 63.5431 38.5139 62.734C39.0547 61.9249 39.3433 60.9736 39.3433 60.0005C39.3468 59.3539 39.2221 58.7131 38.9765 58.1151C38.7308 57.517 38.3691 56.9736 37.9121 56.5162C37.4552 56.0588 36.9122 55.6964 36.3144 55.4501C35.7166 55.2039 35.0759 55.0785 34.4294 55.0813Z" fill="#0F1012"/>
<path d="M18.0301 109.156C16.9532 109.16 15.8861 108.951 14.8903 108.541C13.8946 108.131 12.9899 107.527 12.2284 106.766C11.4669 106.004 10.8637 105.1 10.4535 104.104C10.0433 103.108 9.83425 102.041 9.83842 100.964C9.83842 99.9912 9.54992 99.0401 9.00939 98.2311C8.46886 97.4222 7.70058 96.7917 6.80171 96.4193C5.90285 96.047 4.91376 95.9496 3.95952 96.1394C3.00529 96.3292 2.12877 96.7977 1.44081 97.4857C0.752842 98.1737 0.284332 99.0502 0.0945233 100.004C-0.0952856 100.959 0.00213195 101.948 0.374455 102.847C0.746779 103.745 1.37729 104.514 2.18625 105.054C2.99521 105.595 3.94629 105.883 4.91921 105.883C5.99657 105.878 7.06423 106.087 8.06058 106.497C9.05693 106.907 9.96226 107.51 10.7243 108.271C11.4864 109.033 12.0901 109.938 12.5006 110.934C12.9111 111.93 13.1203 112.998 13.1161 114.075C13.1172 115.047 13.4063 115.996 13.9468 116.804C14.4874 117.611 15.2553 118.24 16.1533 118.611C17.0512 118.982 18.0391 119.079 18.992 118.889C19.9448 118.698 20.8199 118.23 21.5066 117.543C22.1933 116.855 22.6608 115.98 22.85 115.026C23.0392 114.073 22.9416 113.086 22.5695 112.188C22.1974 111.29 21.5676 110.523 20.7596 109.984C19.9516 109.444 19.0018 109.156 18.0301 109.156Z" fill="#0F1012"/>
<path d="M309.732 64.9144C312.445 64.9144 314.646 62.7144 314.646 60.0005C314.646 57.2866 312.445 55.0865 309.732 55.0865C307.018 55.0865 304.818 57.2866 304.818 60.0005C304.818 62.7144 307.018 64.9144 309.732 64.9144Z" fill="#0F1012"/>
<path d="M339.225 14.1124C338.148 14.1166 337.081 13.9075 336.085 13.4974C335.089 13.0872 334.185 12.4839 333.423 11.7224C332.662 10.9609 332.059 10.0562 331.648 9.06049C331.238 8.06474 331.029 6.99765 331.033 5.92074C331.033 4.94781 330.745 3.99673 330.204 3.18777C329.664 2.37881 328.895 1.74831 327.997 1.37598C327.098 1.00366 326.109 0.906243 325.154 1.09605C324.2 1.28586 323.324 1.75437 322.636 2.44233C321.948 3.1303 321.479 4.00682 321.289 4.96105C321.1 5.91528 321.197 6.90437 321.569 7.80324C321.942 8.70211 322.572 9.47038 323.381 10.0109C324.19 10.5514 325.141 10.8399 326.114 10.8399C327.191 10.8351 328.259 11.0436 329.255 11.4535C330.252 11.8634 331.157 12.4665 331.919 13.2281C332.681 13.9896 333.285 14.8946 333.695 15.8906C334.106 16.8867 334.315 17.9543 334.311 19.0316V46.9159C334.315 47.9933 334.106 49.0608 333.695 50.0569C333.285 51.053 332.681 51.9579 331.919 52.7195C331.157 53.481 330.252 54.0842 329.255 54.4941C328.259 54.9039 327.191 55.1125 326.114 55.1076C324.838 55.1493 323.628 55.6856 322.74 56.6031C321.852 57.5206 321.356 58.7474 321.356 60.0242C321.356 61.301 321.852 62.5277 322.74 63.4452C323.628 64.3627 324.838 64.899 326.114 64.9407C327.191 64.9359 328.259 65.1444 329.255 65.5543C330.252 65.9642 331.157 66.5673 331.919 67.3289C332.681 68.0904 333.285 68.9954 333.695 69.9914C334.106 70.9875 334.315 72.0551 334.311 73.1324V114.101C334.311 115.405 334.829 116.654 335.75 117.576C336.672 118.498 337.922 119.015 339.225 119.015C340.528 119.015 341.778 118.498 342.7 117.576C343.621 116.654 344.139 115.405 344.139 114.101V73.1061C344.142 72.46 344.016 71.8198 343.77 71.2223C343.525 70.6249 343.163 70.0821 342.706 69.6252C342.249 69.1684 341.706 68.8065 341.109 68.5605C340.511 68.3146 339.871 68.1894 339.225 68.1922C337.088 68.138 335.056 67.2509 333.564 65.7201C332.071 64.1892 331.236 62.1359 331.236 59.9979C331.236 57.8599 332.071 55.8065 333.564 54.2756C335.056 52.7448 337.088 51.8577 339.225 51.8036C339.871 51.8063 340.511 51.6811 341.109 51.4352C341.706 51.1892 342.249 50.8274 342.706 50.3705C343.163 49.9136 343.525 49.3708 343.77 48.7734C344.016 48.1759 344.142 47.5357 344.139 46.8896V19.0316C344.142 18.3853 344.016 17.7448 343.771 17.1471C343.525 16.5493 343.163 16.0062 342.706 15.5489C342.249 15.0916 341.707 14.7293 341.109 14.4827C340.512 14.2362 339.871 14.1103 339.225 14.1124Z" fill="#0F1012"/>
<path d="M293.343 1.00676C292.37 1.00571 291.418 1.29347 290.608 1.8336C289.799 2.37373 289.167 3.14195 288.794 4.04103C288.421 4.94012 288.324 5.92964 288.513 6.88436C288.703 7.83909 289.171 8.71609 289.86 9.40437C290.548 10.0926 291.425 10.5613 292.38 10.7509C293.334 10.9406 294.324 10.8427 295.223 10.4697C296.122 10.0967 296.89 9.46542 297.431 8.65565C297.971 7.84588 298.258 6.89408 298.257 5.9207C298.26 5.27462 298.135 4.63437 297.889 4.03693C297.643 3.43948 297.281 2.89667 296.824 2.43981C296.367 1.98295 295.825 1.6211 295.227 1.37513C294.63 1.12917 293.989 1.00397 293.343 1.00676Z" fill="#0F1012"/>
<path d="M293.342 64.9144C296.056 64.9144 298.256 62.7144 298.256 60.0005C298.256 57.2866 296.056 55.0865 293.342 55.0865C290.628 55.0865 288.428 57.2866 288.428 60.0005C288.428 62.7144 290.628 64.9144 293.342 64.9144Z" fill="#0F1012"/>
<path d="M276.954 1.00676C276.308 1.00397 275.668 1.12917 275.071 1.37513C274.473 1.6211 273.93 1.98295 273.473 2.43981C273.017 2.89667 272.655 3.43948 272.409 4.03693C272.163 4.63437 272.038 5.27462 272.04 5.9207V114.075C272.082 115.351 272.618 116.561 273.536 117.449C274.453 118.337 275.68 118.833 276.957 118.833C278.234 118.833 279.461 118.337 280.378 117.449C281.295 116.561 281.832 115.351 281.873 114.075V5.9207C281.876 5.27437 281.75 4.63401 281.503 4.03653C281.257 3.43906 280.894 2.89628 280.437 2.4395C279.98 1.98271 279.437 1.62094 278.839 1.37504C278.241 1.12914 277.601 1.00397 276.954 1.00676Z" fill="#0F1012"/>
<path d="M538.051 1.00676C537.405 1.00397 536.765 1.12917 536.167 1.37513C535.57 1.6211 535.027 1.98295 534.57 2.43981C534.113 2.89667 533.752 3.43948 533.506 4.03693C533.26 4.63437 533.134 5.27462 533.137 5.9207V114.075C533.179 115.351 533.715 116.561 534.633 117.449C535.55 118.337 536.777 118.833 538.054 118.833C539.331 118.833 540.557 118.337 541.475 117.449C542.392 116.561 542.929 115.351 542.97 114.075V5.9207C542.973 5.27437 542.847 4.63401 542.6 4.03653C542.354 3.43906 541.991 2.89628 541.534 2.4395C541.077 1.98271 540.534 1.62094 539.936 1.37504C539.338 1.12914 538.698 1.00397 538.051 1.00676Z" fill="#0F1012"/>
<path d="M521.668 64.9144C524.382 64.9144 526.582 62.7144 526.582 60.0005C526.582 57.2866 524.382 55.0865 521.668 55.0865C518.954 55.0865 516.754 57.2866 516.754 60.0005C516.754 62.7144 518.954 64.9144 521.668 64.9144Z" fill="#0F1012"/>
<path d="M488.89 64.9144C491.604 64.9144 493.804 62.7144 493.804 60.0005C493.804 57.2866 491.604 55.0865 488.89 55.0865C486.176 55.0865 483.976 57.2866 483.976 60.0005C483.976 62.7144 486.176 64.9144 488.89 64.9144Z" fill="#0F1012"/>
<path d="M472.508 1.00676C471.861 1.00397 471.221 1.12914 470.623 1.37504C470.025 1.62094 469.482 1.98271 469.025 2.4395C468.568 2.89628 468.205 3.43906 467.959 4.03653C467.712 4.63401 467.586 5.27437 467.588 5.9207V114.075C467.63 115.351 468.166 116.561 469.084 117.449C470.001 118.337 471.228 118.833 472.505 118.833C473.782 118.833 475.009 118.337 475.926 117.449C476.844 116.561 477.38 115.351 477.422 114.075V5.9207C477.424 5.27462 477.299 4.63437 477.053 4.03693C476.807 3.43948 476.445 2.89667 475.989 2.43981C475.532 1.98295 474.989 1.6211 474.391 1.37513C473.794 1.12917 473.154 1.00397 472.508 1.00676Z" fill="#0F1012"/>
<path d="M34.4294 1.00676C33.456 1.00571 32.5042 1.29347 31.6944 1.8336C30.8846 2.37373 30.2533 3.14195 29.8803 4.04103C29.5074 4.94012 29.4095 5.92964 29.5991 6.88436C29.7888 7.83909 30.2574 8.71609 30.9457 9.40437C31.634 10.0926 32.511 10.5613 33.4657 10.7509C34.4204 10.9406 35.4099 10.8427 36.309 10.4697C37.2081 10.0967 37.9763 9.46542 38.5165 8.65565C39.0566 7.84588 39.3443 6.89408 39.3433 5.9207C39.3461 5.27462 39.2209 4.63437 38.9749 4.03693C38.729 3.43948 38.3671 2.89667 37.9103 2.43981C37.4534 1.98295 36.9106 1.6211 36.3131 1.37513C35.7157 1.12917 35.0754 1.00397 34.4294 1.00676Z" fill="#0F1012"/>
<path d="M309.731 1.00676C308.758 1.00571 307.806 1.29347 306.996 1.8336C306.187 2.37373 305.555 3.14195 305.182 4.04103C304.809 4.94012 304.712 5.92964 304.901 6.88436C305.091 7.83909 305.559 8.71609 306.248 9.40437C306.936 10.0926 307.813 10.5613 308.768 10.7509C309.722 10.9406 310.712 10.8427 311.611 10.4697C312.51 10.0967 313.278 9.46542 313.818 8.65565C314.359 7.84588 314.646 6.89408 314.645 5.9207C314.648 5.27462 314.523 4.63437 314.277 4.03693C314.031 3.43948 313.669 2.89667 313.212 2.43981C312.755 1.98295 312.213 1.6211 311.615 1.37513C311.018 1.12917 310.377 1.00397 309.731 1.00676Z" fill="#0F1012"/>
<path d="M505.279 64.9144C507.993 64.9144 510.193 62.7144 510.193 60.0005C510.193 57.2866 507.993 55.0865 505.279 55.0865C502.566 55.0865 500.365 57.2866 500.365 60.0005C500.365 62.7144 502.566 64.9144 505.279 64.9144Z" fill="#0F1012"/>
<path d="M656.917 2.02748C656.271 2.02469 655.631 2.14989 655.033 2.39585C654.436 2.64182 653.893 3.00367 653.436 3.46053C652.979 3.91739 652.617 4.4602 652.372 5.05765C652.126 5.65509 652 6.29534 652.003 6.94142V115.096C651.982 115.755 652.093 116.412 652.33 117.027C652.568 117.642 652.926 118.204 653.385 118.678C653.844 119.152 654.393 119.528 655 119.786C655.607 120.043 656.26 120.176 656.92 120.176C657.579 120.176 658.232 120.043 658.839 119.786C659.447 119.528 659.996 119.152 660.455 118.678C660.913 118.204 661.272 117.642 661.509 117.027C661.747 116.412 661.858 115.755 661.836 115.096V6.94142C661.838 6.29509 661.713 5.65473 661.466 5.05725C661.219 4.45978 660.857 3.917 660.4 3.46022C659.943 3.00343 659.399 2.64166 658.802 2.39576C658.204 2.14986 657.563 2.02469 656.917 2.02748Z" fill="#0F1012"/>
<path d="M844.273 65.9351C846.987 65.9351 849.187 63.7351 849.187 61.0212C849.187 58.3073 846.987 56.1072 844.273 56.1072C841.559 56.1072 839.359 58.3073 839.359 61.0212C839.359 63.7351 841.559 65.9351 844.273 65.9351Z" fill="#0F1012"/>
<path d="M860.662 2.02747C860.016 2.02399 859.375 2.14868 858.777 2.39433C858.179 2.63998 857.635 3.00172 857.178 3.45865C856.721 3.91558 856.358 4.45863 856.112 5.05642C855.866 5.65421 855.74 6.29489 855.743 6.94142V115.096C855.722 115.755 855.833 116.412 856.07 117.027C856.308 117.642 856.666 118.204 857.125 118.678C857.584 119.152 858.133 119.528 858.74 119.786C859.347 120.043 860 120.176 860.66 120.176C861.319 120.176 861.972 120.043 862.579 119.786C863.187 119.528 863.736 119.152 864.195 118.678C864.653 118.204 865.012 117.642 865.249 117.027C865.487 116.412 865.598 115.755 865.576 115.096V6.94142C865.579 6.29533 865.454 5.65509 865.208 5.05764C864.962 4.4602 864.6 3.91738 864.143 3.46053C863.686 3.00367 863.144 2.64181 862.546 2.39585C861.949 2.14989 861.308 2.02469 860.662 2.02747Z" fill="#0F1012"/>
<path d="M811.502 65.9351C814.216 65.9351 816.416 63.7351 816.416 61.0212C816.416 58.3073 814.216 56.1072 811.502 56.1072C808.788 56.1072 806.588 58.3073 806.588 61.0212C806.588 63.7351 808.788 65.9351 811.502 65.9351Z" fill="#0F1012"/>
<path d="M795.107 2.02748C794.461 2.02469 793.821 2.14989 793.224 2.39585C792.626 2.64182 792.083 3.00367 791.626 3.46053C791.17 3.91739 790.808 4.4602 790.562 5.05765C790.316 5.65509 790.191 6.29534 790.193 6.94142V115.096C790.193 116.399 790.711 117.649 791.633 118.57C792.554 119.492 793.804 120.01 795.107 120.01C796.411 120.01 797.66 119.492 798.582 118.57C799.504 117.649 800.021 116.399 800.021 115.096V6.94142C800.024 6.29534 799.899 5.65509 799.653 5.05765C799.407 4.4602 799.045 3.91739 798.588 3.46053C798.131 3.00367 797.589 2.64182 796.991 2.39585C796.394 2.14989 795.753 2.02469 795.107 2.02748Z" fill="#0F1012"/>
<path d="M827.884 65.9351C830.598 65.9351 832.798 63.7351 832.798 61.0212C832.798 58.3073 830.598 56.1072 827.884 56.1072C825.171 56.1072 822.97 58.3073 822.97 61.0212C822.97 63.7351 825.171 65.9351 827.884 65.9351Z" fill="#0F1012"/>
<path d="M577.047 97.1918C582.061 98.4861 585.018 101.527 586.433 106.425C586.614 106.084 586.775 105.732 586.917 105.373C588.453 100.47 592.373 97.2234 597.482 97.1602C607.625 97.034 617.769 97.0024 627.907 97.1602C634.22 97.2602 638.956 102.458 638.861 108.735C638.856 110.217 638.559 111.684 637.986 113.05C637.413 114.417 636.576 115.658 635.522 116.7C634.469 117.743 633.22 118.567 631.847 119.126C630.475 119.685 629.005 119.967 627.523 119.957C610.031 120.006 592.536 120.006 575.037 119.957C568.645 119.957 563.878 115.222 563.663 108.782C563.589 106.578 563.663 104.373 563.663 102.169C563.663 72.9903 563.663 43.8118 563.663 14.6332C563.663 11.0293 564.462 7.79369 567.156 5.27885C570.77 1.90642 575.016 1.13829 579.536 2.96918C583.908 4.74221 586.17 8.23037 586.559 12.9286C586.638 13.8914 586.591 14.8647 586.591 15.8328C586.591 38.2928 586.491 60.7581 586.654 83.2181C586.659 89.6473 584.607 94.8032 577.047 97.1918Z" fill="#0F1012"/>
<path d="M743.474 54.2605C747.736 48.3891 756.327 48.7047 759.984 54.3973C760.886 55.941 761.464 57.6524 761.683 59.427C762.093 62.1365 762.783 63.0257 765.566 63.3098C771.495 63.9253 775.12 67.9554 775.131 73.9689C775.131 81.2995 775.131 88.6249 775.131 95.9449C775.131 102.122 771.448 106.104 765.308 106.678C762.988 106.888 761.893 107.909 761.767 110.161C761.52 114.68 759.337 117.905 755.096 119.352C750.855 120.799 746.904 119.82 743.842 116.269C743.729 116.16 743.601 116.066 743.464 115.99C738.813 121.299 731.31 121.283 727.091 116.369C724.918 117.505 722.945 118.999 720.73 119.599C714.664 121.235 708.966 116.9 708.508 110.624C708.303 107.793 707.456 106.915 704.562 106.646C699.201 106.12 695.55 102.437 695.14 97.0498C694.955 94.6033 693.929 93.5143 691.651 93.3354C685.485 92.8566 681.839 88.9318 681.818 82.6394C681.787 72.8536 681.818 63.073 681.818 53.2872C681.818 48.026 681.818 42.7911 681.818 37.5457C681.818 31.0955 685.175 27.3969 691.615 26.6656C694.008 26.3973 694.955 25.4029 695.145 22.9828C695.571 17.4375 699.249 13.7862 704.857 13.3443C707.151 13.1654 708.319 12.1395 708.466 9.90346C708.761 5.34727 710.902 2.06955 715.237 0.601677C719.572 -0.866194 723.403 0.396491 726.423 3.90044C726.56 4.01956 726.706 4.12858 726.859 4.22664C727.767 2.90071 728.991 1.82168 730.42 1.08688C731.849 0.352086 733.439 -0.0153636 735.046 0.0176851C736.695 -0.0103607 738.325 0.373304 739.788 1.13395C741.251 1.89459 742.502 3.00819 743.427 4.37395C744.594 2.6816 746.253 1.38751 748.178 0.665792C750.103 -0.0559245 752.203 -0.170643 754.196 0.337075C756.188 0.844792 757.978 1.95058 759.323 3.50567C760.668 5.06076 761.504 6.99054 761.72 9.03536C762.009 12.3815 762.693 13.0707 765.997 13.3653C767.9 13.5375 769.713 14.2512 771.223 15.4219C772.732 16.5926 773.875 18.1714 774.515 19.9712C775.155 21.7711 775.266 23.7167 774.835 25.5776C774.403 27.4386 773.448 29.137 772.081 30.4719C770.715 31.8067 768.994 32.722 767.124 33.1094C765.253 33.4968 763.311 33.3402 761.526 32.6579C759.742 31.9757 758.191 30.7965 757.056 29.2599C755.921 27.7233 755.25 25.8937 755.122 23.9877C754.928 21.2887 754.07 20.1628 751.729 20.0207C748.378 19.8155 745.6 18.6002 743.521 15.9275C737.013 21.3465 732.141 21.3676 726.88 16.0643C725.623 16.985 724.465 18.1004 723.092 18.7738C721.759 19.377 720.338 19.7659 718.883 19.926C716.279 20.2785 715.29 21.1834 715.101 23.7456C714.701 29.191 710.986 32.8791 705.483 33.3052C702.926 33.5051 701.832 34.589 701.8 37.1617C701.779 52.356 701.779 67.552 701.8 82.7499C701.8 85.3805 702.905 86.4958 705.557 86.7168C711.091 87.1745 714.674 90.789 715.085 96.3343C715.248 98.544 716.221 99.8224 718.152 99.9119C719.821 99.9485 721.46 100.361 722.948 101.119C724.435 101.877 725.733 102.96 726.744 104.289C728.848 101.522 731.594 100.001 735.03 99.9908C738.465 99.9803 741.201 101.569 743.448 104.315C745.652 101.29 748.635 100.049 752.218 99.8961C753.928 99.8224 755.08 98.4756 755.091 96.6657C755.133 88.9072 755.133 81.1452 755.091 73.3797C755.091 71.312 753.828 70.1283 751.639 70.0073C748.341 69.8336 745.61 68.6131 743.495 65.8246C740.954 68.7288 737.876 70.3229 733.983 69.9178C732.726 69.7971 731.506 69.4263 730.395 68.8273C729.284 68.2283 728.303 67.4131 727.512 66.4297C724.029 62.2628 724.413 56.1335 728.338 52.6717C732.952 48.61 738.507 49.1361 743.474 54.2605Z" fill="#0F1012"/>
<path d="M923.859 10.2033C923.487 11.37 922.837 12.4286 921.964 13.2875C921.092 14.1464 920.023 14.7799 918.85 15.1331C919.324 15.3751 919.534 15.4961 919.75 15.5908C922.454 16.8166 923.959 18.8738 923.991 21.8779C924.027 24.1876 923.991 26.4972 923.991 28.8069C923.991 56.6561 923.991 84.5001 923.991 112.339C923.991 114.833 923.464 117.032 921.418 118.652C920.577 119.306 919.587 119.743 918.537 119.924C917.487 120.105 916.409 120.025 915.397 119.691C914.385 119.356 913.471 118.778 912.735 118.007C912 117.236 911.466 116.296 911.18 115.269C910.946 114.221 910.843 113.149 910.874 112.076C910.874 82.4605 910.801 52.84 910.922 23.2248C910.922 18.174 908.118 14.9489 902.872 15.1068C895.838 15.3225 888.793 15.1962 881.754 15.1488C877.234 15.1173 874.315 11.7501 874.977 7.48856C875.162 6.20193 875.745 5.00563 876.646 4.06833C877.546 3.13102 878.718 2.49999 879.997 2.2642C880.896 2.10621 881.809 2.03224 882.722 2.04323C905.833 2.04323 928.945 2.04323 952.059 2.04323C952.863 2.03693 953.667 2.09145 954.463 2.20633C956.05 2.42763 957.497 3.23405 958.52 4.46733C959.543 5.7006 960.069 7.27169 959.993 8.87225C959.84 12.2131 957.315 15.0331 953.964 15.0857C946.014 15.2067 938.054 15.1857 930.104 15.0857C927.395 15.0541 925.485 13.5389 924.385 11.0451C924.28 10.8031 924.154 10.5716 924.027 10.3349C924.033 10.3033 923.964 10.2823 923.859 10.2033Z" fill="#0F1012"/>
<path d="M210.369 87.1325H181.706C176.345 87.1325 173.914 89.5473 173.909 94.8717C173.909 101.059 173.972 107.251 173.877 113.438C173.804 118.316 169.442 121.362 164.981 119.752C163.891 119.385 162.926 118.721 162.193 117.836C161.461 116.95 160.99 115.877 160.835 114.738C160.725 114.042 160.676 113.338 160.687 112.633C160.687 106.609 160.687 100.585 160.687 94.556C160.687 89.963 162.792 87.6691 167.338 87.143C171.673 86.6169 173.882 84.1757 173.893 79.7458C173.893 71.4962 173.893 63.2414 173.893 54.9919C173.893 50.2568 175.85 48.0629 180.554 47.4C185.057 46.7686 187.135 44.4116 187.151 39.8502C187.151 33.8787 187.151 27.9073 187.151 21.9621C187.151 17.1218 189.308 14.7333 194.064 14.2755C197.631 13.9336 199.883 11.7239 200.33 8.14099C200.967 2.9745 203.14 1.04364 208.38 1.05416C210.439 0.996044 212.499 1.05401 214.551 1.22778C217.708 1.5908 219.813 3.85838 220.165 7.0677C220.739 12.1079 222.422 13.7968 227.41 14.3544C231.066 14.7596 233.418 17.3638 233.45 21.194C233.497 27.3811 233.45 33.5683 233.45 39.7607C233.45 44.4958 235.554 46.837 240.258 47.4368C244.567 47.9629 246.713 50.3673 246.729 54.7288C246.729 62.9836 246.729 71.2332 246.729 79.488C246.729 84.3335 248.86 86.6905 253.653 87.1851C257.541 87.5797 259.856 90.0472 259.877 93.9773C259.919 100.438 259.919 106.899 259.877 113.359C259.877 117.379 257.114 120.162 253.326 120.199C249.538 120.236 246.782 117.411 246.745 113.417C246.692 107.388 246.745 101.364 246.745 95.3347C246.745 89.5473 244.398 87.1851 238.685 87.1798L210.369 87.1325ZM238.958 73.8637C234.749 72.5274 233.408 69.8232 233.471 66.1088C233.534 62.0962 233.534 58.0802 233.471 54.0606C233.408 50.341 231.077 47.8682 227.399 47.4368C222.254 46.8318 220.26 44.601 220.255 39.4187C220.255 33.3947 220.286 27.3759 220.255 21.3518C220.223 16.8956 217.587 14.3176 213.126 14.2492C211.442 14.2492 209.759 14.2492 208.08 14.2492C202.951 14.2492 200.457 16.722 200.436 21.8201C200.409 27.7915 200.436 33.7577 200.436 39.7081C200.436 44.4432 198.331 46.7792 193.633 47.3842C189.314 47.9419 187.235 50.2831 187.214 54.6709C187.214 58.2485 187.135 61.8367 187.214 65.4143C187.314 69.3444 186.162 72.4274 181.648 73.8585C184.694 74.7266 186.436 76.3996 187.114 79.3354C187.346 78.8093 187.493 78.5357 187.604 78.2411C188.698 75.3053 190.845 73.8374 193.949 73.8322C204.855 73.8322 215.762 73.769 226.663 73.8901C228.21 73.992 229.697 74.5301 230.951 75.4421C232.055 76.2155 232.708 77.6413 233.644 78.8882C234.291 76.3944 236.049 74.8423 238.958 73.8637Z" fill="#0F1012"/>
<path d="M98.3159 60.7897C98.3159 78.2077 98.3159 95.6293 98.3159 113.054C98.3405 114.211 98.1274 115.361 97.6898 116.432C97.2336 117.373 96.4689 118.128 95.523 118.574C94.5771 119.019 93.5073 119.126 92.4917 118.878C91.4667 118.677 90.5383 118.139 89.854 117.35C89.1696 116.561 88.7685 115.565 88.7142 114.522C88.6826 114.043 88.6826 113.565 88.6826 113.086C88.6826 78.1341 88.6826 43.184 88.6826 8.23566C88.6826 4.73697 90.0347 2.86399 92.8495 2.44836C93.4804 2.3568 94.1233 2.39246 94.7402 2.55323C95.3571 2.714 95.9356 2.99663 96.4416 3.38446C96.9476 3.77229 97.3709 4.25748 97.6864 4.81144C98.002 5.3654 98.2035 5.97691 98.279 6.60996C98.3378 7.2975 98.3571 7.98785 98.3369 8.6776L98.3159 60.7897Z" fill="#0F1012"/>
<path d="M129.041 12.1079C123.78 12.1079 118.55 12.1395 113.305 12.1079C109.78 12.0816 107.486 9.38788 108.196 6.1733C108.35 5.30228 108.759 4.49663 109.372 3.85869C109.985 3.22075 110.773 2.7793 111.637 2.59043C112.412 2.41847 113.206 2.34074 114 2.35893C124.017 2.35893 134.031 2.35893 144.041 2.35893C144.518 2.34834 144.996 2.36415 145.472 2.40629C148.297 2.7167 150.154 4.72121 150.07 7.3518C150.059 7.99085 149.92 8.62123 149.663 9.20634C149.406 9.79145 149.035 10.3196 148.572 10.7602C148.109 11.2007 147.563 11.5449 146.966 11.7726C146.368 12.0004 145.732 12.1072 145.093 12.0869C139.727 12.1447 134.376 12.1027 129.041 12.1079Z" fill="#0F1012"/>
<path d="M128.962 109.298C134.313 109.298 139.669 109.245 145.019 109.298C148.628 109.345 150.849 112.402 149.791 115.69C149.123 117.768 147.397 118.952 144.877 118.957C138.259 118.957 131.635 118.957 125.011 118.957C121.144 118.957 117.277 118.957 113.436 118.957C110.159 118.957 108.112 117.069 108.112 114.138C108.112 111.208 110.174 109.303 113.415 109.282C118.608 109.245 123.801 109.282 128.988 109.282L128.962 109.298Z" fill="#0F1012"/>
<path d="M125.68 65.5458C121.497 65.5458 117.314 65.5931 113.132 65.5458C110.243 65.5089 108.26 63.678 108.097 61.079C107.907 58.0433 109.938 55.8967 113.174 55.8599C117.73 55.8073 122.281 55.8599 126.853 55.8599C130.825 55.8599 134.797 55.8336 138.769 55.8599C139.762 55.831 140.738 56.1223 141.553 56.6907C142.368 57.2592 142.978 58.0746 143.294 59.0166C144.01 60.7949 143.615 63.0783 142.005 64.2042C140.841 64.9869 139.486 65.438 138.085 65.5089C133.961 65.672 129.825 65.5668 125.695 65.5668L125.68 65.5458Z" fill="#0F1012"/>
<path d="M387.765 60.1004C387.765 71.3962 387.802 82.692 387.765 93.9877C387.765 100.107 382.557 104.373 376.638 103.274C372.282 102.469 369.188 98.586 369.162 93.8036C369.125 87.0851 369.162 80.3718 369.162 73.6533C369.162 57.8697 369.162 42.0984 369.162 26.3394C369.162 20.1733 374.039 15.817 379.868 16.6746C384.514 17.3533 387.76 21.215 387.76 26.2289C387.788 37.5194 387.79 48.8099 387.765 60.1004Z" fill="#0F1012"/>
<path d="M418.759 118.968C410.567 118.968 402.381 119.015 394.189 118.968C388.533 118.926 384.398 114.57 384.677 109.098C384.812 107.026 385.636 105.06 387.019 103.511C388.401 101.963 390.262 100.922 392.305 100.554C393.16 100.419 394.024 100.352 394.889 100.354C410.809 100.354 426.731 100.354 442.655 100.354C445.685 100.354 448.4 101.069 450.484 103.416C453.114 106.378 453.64 109.803 452.146 113.359C450.568 117 447.632 118.947 443.633 118.973C435.342 119.005 427.05 118.968 418.759 118.968Z" fill="#0F1012"/>
<path d="M411.04 19.6261C405.348 19.6261 399.65 19.6629 393.957 19.6261C389.312 19.5893 385.734 16.5378 384.819 11.9606C384.448 9.88971 384.799 7.75451 385.812 5.9107C386.825 4.0669 388.439 2.6258 390.385 1.82751C391.599 1.33232 392.894 1.06824 394.205 1.04885C405.39 0.992731 416.577 0.983963 427.766 1.02254C433.253 1.02254 437.404 5.07366 437.42 10.3243C437.436 15.575 433.295 19.5998 427.797 19.6261C422.21 19.6735 416.617 19.6314 411.04 19.6261Z" fill="#0F1012"/>
<path d="M452.899 35.9253C452.899 39.4293 452.978 42.9437 452.899 46.4477C452.794 50.3515 450.726 53.1083 447.233 54.6078C443.739 56.1072 440.44 55.5127 437.552 53.0294C436.588 52.2662 435.805 51.2992 435.259 50.1976C434.714 49.096 434.419 47.8873 434.395 46.6581C434.343 39.5397 434.264 32.4214 434.395 25.3082C434.495 20.4364 438.604 16.6536 443.45 16.5694C445.818 16.4854 448.126 17.3301 449.88 18.9234C451.634 20.5166 452.697 22.7323 452.841 25.0978C453.03 28.6964 452.878 32.3161 452.878 35.9253H452.899Z" fill="#0F1012"/>
<path d="M322.258 235.03C322.291 236.206 321.874 237.351 321.092 238.231C320.31 239.111 319.222 239.659 318.049 239.765C319.183 239.891 320.234 240.423 321.007 241.262C321.78 242.101 322.225 243.191 322.258 244.331C322.288 243.101 322.802 241.931 323.689 241.077C324.575 240.222 325.762 239.751 326.993 239.765H374.386C376.479 239.765 378.486 240.596 379.966 242.076C381.446 243.556 382.278 245.564 382.278 247.657C382.278 249.75 381.446 251.757 379.966 253.237C378.486 254.717 376.479 255.548 374.386 255.548H314.361C312.268 255.548 310.261 254.717 308.781 253.237C307.301 251.757 306.469 249.75 306.469 247.657V222.403C306.469 220.31 307.301 218.303 308.781 216.823C310.261 215.343 312.268 214.511 314.361 214.511C315.617 214.511 316.821 214.012 317.709 213.124C318.597 212.236 319.096 211.032 319.096 209.776C319.096 207.683 319.928 205.676 321.408 204.196C322.888 202.716 324.895 201.884 326.988 201.884H338.036C339.292 201.884 340.497 201.385 341.385 200.497C342.273 199.609 342.771 198.405 342.771 197.149C342.771 195.056 343.603 193.049 345.083 191.569C346.563 190.089 348.57 189.257 350.663 189.257H361.712C362.968 189.257 364.172 188.759 365.06 187.871C365.948 186.983 366.447 185.778 366.447 184.522V162.425C366.447 161.169 365.948 159.965 365.06 159.077C364.172 158.189 362.968 157.69 361.712 157.69H326.988C325.732 157.69 324.528 158.189 323.64 159.077C322.752 159.965 322.253 161.169 322.253 162.425C322.253 163.986 321.79 165.512 320.923 166.81C320.056 168.108 318.823 169.119 317.381 169.716C315.939 170.314 314.352 170.47 312.821 170.165C311.291 169.861 309.884 169.109 308.781 168.006C307.677 166.902 306.925 165.496 306.621 163.965C306.316 162.434 306.473 160.847 307.07 159.405C307.667 157.963 308.679 156.731 309.977 155.864C311.274 154.996 312.8 154.534 314.361 154.534C315.617 154.534 316.821 154.035 317.709 153.147C318.597 152.259 319.096 151.054 319.096 149.798C319.096 147.705 319.928 145.698 321.408 144.218C322.888 142.738 324.895 141.907 326.988 141.907H361.712C363.805 141.907 365.812 142.738 367.292 144.218C368.772 145.698 369.604 147.705 369.604 149.798C369.604 151.054 370.102 152.259 370.99 153.147C371.878 154.035 373.083 154.534 374.339 154.534C376.432 154.534 378.439 155.365 379.919 156.845C381.399 158.325 382.23 160.332 382.23 162.425V184.522C382.23 186.615 381.399 188.623 379.919 190.103C378.439 191.583 376.432 192.414 374.339 192.414C373.083 192.414 371.878 192.913 370.99 193.801C370.102 194.689 369.604 195.893 369.604 197.149C369.604 199.242 368.772 201.25 367.292 202.729C365.812 204.209 363.805 205.041 361.712 205.041H350.663C349.407 205.041 348.203 205.54 347.315 206.428C346.427 207.316 345.928 208.52 345.928 209.776C345.928 211.869 345.097 213.876 343.617 215.356C342.137 216.836 340.129 217.668 338.036 217.668H326.988C325.732 217.668 324.528 218.167 323.64 219.055C322.752 219.943 322.253 221.147 322.253 222.403L322.258 235.03Z" fill="#0F1012"/>
<path d="M402.097 156.043C402.097 155.625 402.263 155.223 402.559 154.927C402.855 154.631 403.257 154.465 403.676 154.465C404.267 154.495 404.859 154.434 405.433 154.286C405.289 154.86 405.231 155.452 405.259 156.043V241.348C405.222 241.938 405.28 242.53 405.433 243.1C404.859 242.957 404.267 242.898 403.676 242.927C403.257 242.927 402.855 242.76 402.559 242.464C402.263 242.168 402.097 241.767 402.097 241.348V156.043ZM455.982 145.158C455.41 145.015 454.82 144.956 454.23 144.984H416.334C415.744 144.947 415.153 145.006 414.582 145.158C414.734 144.587 414.793 143.996 414.756 143.406C414.756 142.987 414.922 142.586 415.218 142.29C415.514 141.994 415.915 141.828 416.334 141.828H454.251C454.67 141.828 455.071 141.994 455.367 142.29C455.663 142.586 455.83 142.987 455.83 143.406C455.792 143.996 455.851 144.587 456.003 145.158H455.982ZM454.23 252.407C454.82 252.437 455.411 252.376 455.982 252.229C455.839 252.803 455.78 253.395 455.809 253.986C455.809 254.404 455.642 254.806 455.346 255.102C455.05 255.398 454.649 255.564 454.23 255.564H416.334C415.915 255.564 415.514 255.398 415.218 255.102C414.922 254.806 414.756 254.404 414.756 253.986C414.784 253.395 414.726 252.803 414.582 252.229C415.152 252.385 415.744 252.446 416.334 252.407H454.23ZM465.11 243.1C465.263 242.53 465.321 241.938 465.284 241.348V156.043C465.312 155.452 465.254 154.86 465.11 154.286C465.682 154.443 466.276 154.504 466.868 154.465C467.286 154.465 467.688 154.631 467.984 154.927C468.28 155.223 468.446 155.625 468.446 156.043V241.348C468.446 241.767 468.28 242.168 467.984 242.464C467.688 242.76 467.286 242.927 466.868 242.927C466.283 242.891 465.697 242.95 465.131 243.1H465.11Z" fill="#0F1012"/>
<path d="M497.776 154.465C499.869 154.465 501.877 153.634 503.357 152.154C504.837 150.674 505.668 148.666 505.668 146.573C505.668 145.637 505.946 144.721 506.466 143.943C506.986 143.164 507.726 142.557 508.591 142.199C509.456 141.84 510.408 141.747 511.327 141.929C512.245 142.112 513.089 142.563 513.751 143.225C514.414 143.887 514.865 144.731 515.047 145.65C515.23 146.568 515.136 147.52 514.778 148.385C514.419 149.251 513.813 149.99 513.034 150.51C512.255 151.031 511.34 151.308 510.403 151.308C508.31 151.308 506.303 152.14 504.823 153.62C503.343 155.1 502.511 157.107 502.511 159.2C502.511 160.137 502.234 161.052 501.713 161.831C501.193 162.61 500.454 163.216 499.588 163.575C498.723 163.933 497.771 164.027 496.853 163.844C495.934 163.662 495.09 163.211 494.428 162.548C493.766 161.886 493.315 161.042 493.132 160.124C492.95 159.205 493.043 158.253 493.402 157.388C493.76 156.523 494.367 155.783 495.146 155.263C495.924 154.743 496.84 154.465 497.776 154.465ZM493.041 214.49C493.041 213.234 493.54 212.03 494.428 211.142C495.316 210.254 496.521 209.755 497.776 209.755C499.869 209.755 501.877 208.924 503.357 207.444C504.837 205.964 505.668 203.956 505.668 201.863C505.668 200.927 505.946 200.011 506.466 199.232C506.986 198.454 507.726 197.847 508.591 197.489C509.456 197.13 510.408 197.036 511.327 197.219C512.245 197.402 513.089 197.853 513.751 198.515C514.414 199.177 514.865 200.021 515.047 200.939C515.23 201.858 515.136 202.81 514.778 203.675C514.419 204.54 513.813 205.28 513.034 205.8C512.255 206.321 511.34 206.598 510.403 206.598C508.31 206.598 506.303 207.43 504.823 208.91C503.343 210.39 502.511 212.397 502.511 214.49V238.165C502.511 240.258 503.343 242.266 504.823 243.746C506.303 245.226 508.31 246.057 510.403 246.057C511.34 246.057 512.255 246.335 513.034 246.855C513.813 247.375 514.419 248.115 514.778 248.98C515.136 249.845 515.23 250.797 515.047 251.716C514.865 252.634 514.414 253.478 513.751 254.14C513.089 254.803 512.245 255.254 511.327 255.436C510.408 255.619 509.456 255.525 508.591 255.167C507.726 254.808 506.986 254.202 506.466 253.423C505.946 252.644 505.668 251.729 505.668 250.792C505.668 248.699 504.837 246.692 503.357 245.212C501.877 243.732 499.869 242.9 497.776 242.9C496.521 242.9 495.316 242.402 494.428 241.514C493.54 240.626 493.041 239.421 493.041 238.165V214.49ZM526.218 141.828C527.155 141.828 528.07 142.105 528.849 142.626C529.628 143.146 530.235 143.886 530.593 144.751C530.951 145.616 531.045 146.568 530.862 147.487C530.68 148.405 530.229 149.249 529.567 149.911C528.904 150.573 528.061 151.024 527.142 151.207C526.224 151.39 525.271 151.296 524.406 150.937C523.541 150.579 522.802 149.972 522.281 149.193C521.761 148.415 521.483 147.499 521.483 146.563C521.483 145.308 521.981 144.104 522.868 143.216C523.755 142.329 524.958 141.829 526.213 141.828H526.218ZM526.218 197.118C527.155 197.118 528.07 197.395 528.849 197.916C529.628 198.436 530.235 199.175 530.593 200.041C530.951 200.906 531.045 201.858 530.862 202.776C530.68 203.695 530.229 204.539 529.567 205.201C528.904 205.863 528.061 206.314 527.142 206.497C526.224 206.679 525.271 206.586 524.406 206.227C523.541 205.869 522.802 205.262 522.281 204.483C521.761 203.705 521.483 202.789 521.483 201.853C521.483 200.598 521.981 199.394 522.868 198.506C523.755 197.618 524.958 197.119 526.213 197.118H526.218ZM526.218 246.083C527.155 246.083 528.07 246.361 528.849 246.881C529.628 247.402 530.235 248.141 530.593 249.006C530.951 249.872 531.045 250.824 530.862 251.742C530.68 252.661 530.229 253.505 529.567 254.167C528.904 254.829 528.061 255.28 527.142 255.463C526.224 255.645 525.271 255.552 524.406 255.193C523.541 254.835 522.802 254.228 522.281 253.449C521.761 252.671 521.483 251.755 521.483 250.819C521.483 249.564 521.981 248.36 522.868 247.472C523.755 246.584 524.958 246.085 526.213 246.083H526.218ZM549.894 159.2C549.894 157.107 549.062 155.1 547.582 153.62C546.102 152.14 544.095 151.308 542.002 151.308C541.065 151.308 540.15 151.031 539.371 150.51C538.593 149.99 537.986 149.251 537.627 148.385C537.269 147.52 537.175 146.568 537.358 145.65C537.54 144.731 537.991 143.887 538.654 143.225C539.316 142.563 540.16 142.112 541.078 141.929C541.997 141.747 542.949 141.84 543.814 142.199C544.679 142.557 545.419 143.164 545.939 143.943C546.459 144.721 546.737 145.637 546.737 146.573C546.737 148.666 547.568 150.674 549.048 152.154C550.528 153.634 552.536 154.465 554.629 154.465C555.885 154.465 557.089 154.964 557.977 155.852C558.865 156.74 559.364 157.944 559.364 159.2V189.215C559.364 190.471 558.865 191.675 557.977 192.563C557.089 193.451 555.885 193.95 554.629 193.95C552.536 193.95 550.528 194.782 549.048 196.262C547.568 197.742 546.737 199.749 546.737 201.842C546.737 202.779 546.459 203.694 545.939 204.473C545.419 205.251 544.679 205.858 543.814 206.217C542.949 206.575 541.997 206.669 541.078 206.486C540.16 206.303 539.316 205.853 538.654 205.19C537.991 204.528 537.54 203.684 537.358 202.766C537.175 201.847 537.269 200.895 537.627 200.03C537.986 199.165 538.593 198.425 539.371 197.905C540.15 197.385 541.065 197.107 542.002 197.107C544.095 197.107 546.102 196.276 547.582 194.796C549.062 193.316 549.894 191.308 549.894 189.215V159.2ZM542.002 246.083C542.938 246.083 543.854 246.361 544.633 246.881C545.411 247.402 546.018 248.141 546.376 249.006C546.735 249.872 546.829 250.824 546.646 251.742C546.463 252.661 546.012 253.505 545.35 254.167C544.688 254.829 543.844 255.28 542.926 255.463C542.007 255.645 541.055 255.552 540.19 255.193C539.325 254.835 538.585 254.228 538.065 253.449C537.545 252.671 537.267 251.755 537.267 250.819C537.267 250.196 537.389 249.58 537.628 249.005C537.866 248.43 538.215 247.908 538.656 247.468C539.096 247.029 539.618 246.68 540.194 246.442C540.769 246.205 541.385 246.083 542.007 246.083H542.002ZM557.785 246.083C558.722 246.083 559.637 246.361 560.416 246.881C561.195 247.402 561.802 248.141 562.16 249.006C562.518 249.872 562.612 250.824 562.43 251.742C562.247 252.661 561.796 253.505 561.134 254.167C560.471 254.829 559.628 255.28 558.709 255.463C557.791 255.645 556.839 255.552 555.973 255.193C555.108 254.835 554.369 254.228 553.848 253.449C553.328 252.671 553.05 251.755 553.05 250.819C553.05 250.193 553.174 249.574 553.415 248.997C553.655 248.419 554.008 247.896 554.452 247.455C554.896 247.015 555.423 246.667 556.003 246.432C556.582 246.196 557.202 246.078 557.828 246.083H557.785Z" fill="#0F1012"/>
<path d="M577.636 154.465C578.892 154.465 580.096 153.966 580.984 153.078C581.872 152.19 582.371 150.986 582.371 149.73C582.371 148.169 582.834 146.643 583.701 145.346C584.568 144.048 585.801 143.036 587.243 142.439C588.685 141.842 590.272 141.685 591.802 141.99C593.333 142.294 594.739 143.046 595.843 144.15C596.947 145.253 597.698 146.66 598.003 148.19C598.307 149.721 598.151 151.308 597.554 152.75C596.957 154.192 595.945 155.425 594.647 156.292C593.349 157.159 591.824 157.622 590.263 157.622C589.007 157.622 587.803 158.121 586.915 159.009C586.027 159.897 585.528 161.101 585.528 162.357C585.528 163.918 585.065 165.444 584.198 166.741C583.331 168.039 582.098 169.051 580.656 169.648C579.214 170.245 577.627 170.402 576.096 170.097C574.565 169.793 573.159 169.041 572.056 167.937C570.952 166.834 570.2 165.427 569.896 163.897C569.591 162.366 569.748 160.779 570.345 159.337C570.942 157.895 571.954 156.662 573.251 155.795C574.549 154.928 576.075 154.465 577.636 154.465ZM577.636 242.927C576.075 242.927 574.549 242.464 573.251 241.597C571.954 240.73 570.942 239.497 570.345 238.055C569.748 236.613 569.591 235.026 569.896 233.495C570.2 231.964 570.952 230.558 572.056 229.455C573.159 228.351 574.565 227.599 576.096 227.295C577.627 226.99 579.214 227.147 580.656 227.744C582.098 228.341 583.331 229.353 584.198 230.651C585.065 231.948 585.528 233.474 585.528 235.035C585.528 236.291 586.027 237.495 586.915 238.383C587.803 239.271 589.007 239.77 590.263 239.77C591.824 239.77 593.349 240.233 594.647 241.1C595.945 241.967 596.957 243.2 597.554 244.642C598.151 246.084 598.307 247.671 598.003 249.201C597.698 250.732 596.947 252.138 595.843 253.242C594.739 254.346 593.333 255.097 591.802 255.402C590.272 255.706 588.685 255.55 587.243 254.953C585.801 254.356 584.568 253.344 583.701 252.046C582.834 250.748 582.371 249.223 582.371 247.662C582.371 246.406 581.872 245.202 580.984 244.314C580.096 243.426 578.892 242.927 577.636 242.927ZM590.263 190.794C591.824 190.794 593.349 191.256 594.647 192.124C595.945 192.991 596.957 194.223 597.554 195.665C598.151 197.107 598.307 198.694 598.003 200.225C597.698 201.756 596.947 203.162 595.843 204.266C594.739 205.369 593.333 206.121 591.802 206.426C590.272 206.73 588.685 206.574 587.243 205.976C585.801 205.379 584.568 204.368 583.701 203.07C582.834 201.772 582.371 200.246 582.371 198.685C582.371 197.648 582.575 196.621 582.973 195.663C583.37 194.705 583.952 193.834 584.686 193.101C585.42 192.368 586.291 191.787 587.25 191.391C588.209 190.995 589.236 190.792 590.273 190.794H590.263ZM626.597 211.312C626.597 210.056 626.098 208.852 625.21 207.964C624.322 207.076 623.117 206.577 621.861 206.577C619.768 206.577 617.761 205.746 616.281 204.266C614.801 202.786 613.97 200.778 613.97 198.685C613.97 196.592 614.801 194.585 616.281 193.105C617.761 191.625 619.768 190.794 621.861 190.794C623.117 190.794 624.322 190.295 625.21 189.407C626.098 188.519 626.597 187.314 626.597 186.059V162.383C626.597 161.127 626.098 159.923 625.21 159.035C624.322 158.147 623.117 157.648 621.861 157.648C620.301 157.648 618.775 157.185 617.477 156.318C616.179 155.451 615.168 154.218 614.57 152.776C613.973 151.334 613.817 149.748 614.121 148.217C614.426 146.686 615.177 145.28 616.281 144.176C617.385 143.072 618.791 142.321 620.322 142.016C621.853 141.712 623.439 141.868 624.882 142.465C626.324 143.063 627.556 144.074 628.423 145.372C629.29 146.67 629.753 148.196 629.753 149.756C629.753 151.012 630.252 152.217 631.14 153.105C632.028 153.993 633.232 154.491 634.488 154.491C636.581 154.491 638.589 155.323 640.069 156.803C641.549 158.283 642.38 160.29 642.38 162.383V186.059C642.38 188.152 641.549 190.159 640.069 191.639C638.589 193.119 636.581 193.95 634.488 193.95C633.232 193.95 632.028 194.449 631.14 195.337C630.252 196.225 629.753 197.43 629.753 198.685C629.753 199.941 630.252 201.146 631.14 202.034C632.028 202.922 633.232 203.42 634.488 203.42C636.581 203.42 638.589 204.252 640.069 205.732C641.549 207.212 642.38 209.219 642.38 211.312V234.988C642.38 237.081 641.549 239.088 640.069 240.568C638.589 242.048 636.581 242.879 634.488 242.879C633.232 242.879 632.028 243.378 631.14 244.266C630.252 245.154 629.753 246.359 629.753 247.614C629.753 249.175 629.29 250.701 628.423 251.999C627.556 253.297 626.324 254.308 624.882 254.906C623.439 255.503 621.853 255.659 620.322 255.355C618.791 255.05 617.385 254.298 616.281 253.195C615.177 252.091 614.426 250.685 614.121 249.154C613.817 247.623 613.973 246.036 614.57 244.594C615.168 243.152 616.179 241.92 617.477 241.053C618.775 240.186 620.301 239.723 621.861 239.723C623.117 239.723 624.322 239.224 625.21 238.336C626.098 237.448 626.597 236.243 626.597 234.988V211.312Z" fill="#0F1012"/>
</svg>
