<svg width="42" height="32" viewBox="0 0 42 32" fill="none" xmlns="http://www.w3.org/2000/svg">
<path d="M1.21861e-05 5.03471C-0.00072566 4.86564 0.03205 4.69809 0.096445 4.54176C0.16084 4.38543 0.255578 4.24341 0.375183 4.12391C0.494789 4.00441 0.636891 3.90979 0.793279 3.84553C0.949666 3.78127 1.11724 3.74864 1.28631 3.74953C1.56796 3.75071 1.84706 3.6961 2.1075 3.58888C2.36795 3.48165 2.60458 3.32391 2.80376 3.12477C3.00294 2.92563 3.16071 2.68902 3.26799 2.42859C3.37526 2.16817 3.42991 1.88908 3.42878 1.60743C3.42871 1.35314 3.50405 1.10454 3.64528 0.893074C3.78651 0.681608 3.98728 0.516778 4.2222 0.419432C4.45712 0.322085 4.71563 0.296595 4.96504 0.346187C5.21445 0.395778 5.44355 0.518223 5.62336 0.698034C5.80317 0.877844 5.92561 1.10694 5.97521 1.35635C6.0248 1.60576 5.99931 1.86427 5.90196 2.09919C5.80461 2.33411 5.63978 2.53488 5.42832 2.67611C5.21685 2.81734 4.96825 2.89269 4.71396 2.89261C4.43233 2.89144 4.15325 2.94604 3.89283 3.05327C3.6324 3.1605 3.39579 3.31824 3.19664 3.51739C2.9975 3.71654 2.83976 3.95315 2.73252 4.21357C2.62529 4.474 2.57069 4.75308 2.57187 5.03471V12.3183C2.57064 12.6 2.6252 12.8791 2.73241 13.1395C2.83963 13.4 2.99736 13.6367 3.19651 13.8358C3.39566 14.035 3.63229 14.1928 3.89274 14.3001C4.15319 14.4073 4.4323 14.4619 4.71396 14.4608C4.96815 14.4608 5.21663 14.5361 5.42797 14.6773C5.63932 14.8186 5.80405 15.0193 5.90132 15.2541C5.99859 15.489 6.02404 15.7474 5.97445 15.9967C5.92486 16.246 5.80246 16.475 5.62273 16.6547C5.44299 16.8344 5.21399 16.9568 4.96469 17.0064C4.71539 17.056 4.45698 17.0306 4.22214 16.9333C3.98731 16.836 3.78659 16.6713 3.64537 16.4599C3.50415 16.2486 3.42878 16.0001 3.42878 15.7459C3.42996 15.4643 3.37534 15.1852 3.26809 14.9247C3.16083 14.6643 3.00306 14.4276 2.80387 14.2285C2.60468 14.0293 2.36803 13.8716 2.10756 13.7644C1.8471 13.6572 1.56798 13.6026 1.28631 13.6038C1.11731 13.6045 0.949853 13.5717 0.793593 13.5074C0.637332 13.443 0.495365 13.3483 0.375883 13.2288C0.2564 13.1093 0.161768 12.9673 0.0974473 12.811C0.0331261 12.6548 0.000389111 12.4873 0.0011255 12.3183L1.21861e-05 5.03471ZM1.28631 25.1716C1.45532 25.1709 1.6228 25.2037 1.77908 25.2681C1.93536 25.3324 2.07735 25.4271 2.19687 25.5466C2.31638 25.6661 2.41105 25.8081 2.47541 25.9644C2.53977 26.1207 2.57255 26.2882 2.57187 26.4572C2.57069 26.7388 2.62529 27.0179 2.73252 27.2783C2.83976 27.5387 2.9975 27.7753 3.19664 27.9745C3.39579 28.1736 3.6324 28.3314 3.89283 28.4386C4.15325 28.5458 4.43233 28.6004 4.71396 28.5993C4.96825 28.5992 5.21685 28.6745 5.42832 28.8158C5.63978 28.957 5.80461 29.1578 5.90196 29.3927C5.99931 29.6276 6.0248 29.8861 5.97521 30.1355C5.92561 30.3849 5.80317 30.614 5.62336 30.7938C5.44355 30.9737 5.21445 31.0961 4.96504 31.1457C4.71563 31.1953 4.45712 31.1698 4.2222 31.0724C3.98728 30.9751 3.78651 30.8103 3.64528 30.5988C3.50405 30.3873 3.42871 30.1387 3.42878 29.8844C3.42996 29.6028 3.37534 29.3237 3.26809 29.0632C3.16083 28.8028 3.00306 28.5661 2.80387 28.367C2.60468 28.1678 2.36803 28.0101 2.10756 27.9029C1.8471 27.7957 1.56798 27.7411 1.28631 27.7424C0.949191 27.7366 0.627817 27.5987 0.391437 27.3583C0.155058 27.1178 0.0225961 26.7941 0.0225961 26.457C0.0225961 26.1198 0.155058 25.7961 0.391437 25.5557C0.627817 25.3153 0.949191 25.1773 1.28631 25.1716ZM8.99742 0.321875C9.25167 0.321875 9.50022 0.397271 9.71163 0.53853C9.92304 0.679789 10.0878 0.880564 10.1851 1.11547C10.2824 1.35037 10.3079 1.60886 10.2583 1.85823C10.2087 2.1076 10.0862 2.33667 9.90644 2.51645C9.72665 2.69624 9.49759 2.81868 9.24821 2.86828C8.99884 2.91789 8.74036 2.89243 8.50545 2.79513C8.27055 2.69783 8.06977 2.53305 7.92852 2.32165C7.78726 2.11024 7.71186 1.86169 7.71186 1.60743C7.71112 1.4384 7.74387 1.2709 7.80822 1.1146C7.87256 0.958295 7.96723 0.816284 8.08675 0.696762C8.20627 0.57724 8.34828 0.482576 8.50458 0.418231C8.66089 0.353887 8.82839 0.321138 8.99742 0.321875ZM8.99742 14.4615C9.25159 14.4616 9.50003 14.537 9.71132 14.6783C9.92262 14.8195 10.0873 15.0203 10.1845 15.2551C10.2817 15.49 10.3071 15.7484 10.2575 15.9976C10.2079 16.2469 10.0854 16.4759 9.90568 16.6556C9.72592 16.8353 9.49693 16.9576 9.24763 17.0072C8.99834 17.0568 8.73995 17.0313 8.50514 16.934C8.27032 16.8367 8.06963 16.672 7.92843 16.4607C7.78723 16.2493 7.71186 16.0009 7.71186 15.7467C7.71103 15.5776 7.7437 15.41 7.80801 15.2537C7.87231 15.0973 7.96697 14.9552 8.0865 14.8357C8.20604 14.7161 8.34809 14.6214 8.50444 14.557C8.66079 14.4927 8.82834 14.46 8.99742 14.4608V14.4615ZM8.99742 28.6011C9.25169 28.6011 9.50025 28.6765 9.71167 28.8178C9.92309 28.9591 10.0879 29.1599 10.1851 29.3948C10.2824 29.6297 10.3079 29.8882 10.2582 30.1376C10.2086 30.387 10.0861 30.6161 9.90631 30.7958C9.72648 30.9756 9.49739 31.098 9.24799 31.1476C8.99859 31.1971 8.7401 31.1716 8.5052 31.0743C8.2703 30.9769 8.06955 30.8121 7.92833 30.6006C7.78712 30.3892 7.71179 30.1406 7.71186 29.8863C7.71088 29.7171 7.74345 29.5495 7.80769 29.393C7.87192 29.2365 7.96656 29.0943 8.08611 28.9746C8.20566 28.8549 8.34776 28.7601 8.50418 28.6957C8.6606 28.6312 8.82825 28.5985 8.99742 28.5993V28.6011ZM13.282 0.321875C13.451 0.321187 13.6184 0.353971 13.7747 0.418338C13.931 0.482704 14.0729 0.577377 14.1924 0.696894C14.3119 0.816411 14.4065 0.958406 14.4708 1.11468C14.5352 1.27096 14.5679 1.43843 14.5672 1.60743C14.566 1.88906 14.6206 2.16814 14.7278 2.42857C14.8351 2.68899 14.9928 2.9256 15.1919 3.12475C15.3911 3.3239 15.6277 3.48164 15.8881 3.58887C16.1485 3.6961 16.4276 3.75071 16.7093 3.74953C16.9636 3.74909 17.2124 3.82412 17.4241 3.96512C17.6358 4.10613 17.801 4.30677 17.8986 4.54166C17.9962 4.77655 18.022 5.03512 17.9726 5.28465C17.9232 5.53418 17.8009 5.76345 17.6212 5.94345C17.4414 6.12344 17.2123 6.24607 16.9629 6.29582C16.7134 6.34556 16.4548 6.32018 16.2198 6.22289C15.9848 6.12559 15.7839 5.96076 15.6426 5.74926C15.5013 5.53775 15.4259 5.28908 15.4259 5.03471C15.4271 4.75308 15.3725 4.474 15.2653 4.21357C15.158 3.95315 15.0003 3.71654 14.8012 3.51739C14.602 3.31824 14.3654 3.1605 14.105 3.05327C13.8446 2.94604 13.5655 2.89144 13.2838 2.89261C13.1132 2.89551 12.9437 2.86441 12.7852 2.80112C12.6267 2.73782 12.4824 2.6436 12.3607 2.52396C12.239 2.40431 12.1424 2.26163 12.0764 2.10424C12.0104 1.94685 11.9764 1.7779 11.9764 1.60724C11.9764 1.43658 12.0104 1.26763 12.0764 1.11024C12.1424 0.952853 12.239 0.810174 12.3607 0.690529C12.4824 0.570884 12.6267 0.476668 12.7852 0.413374C12.9437 0.35008 13.1132 0.318975 13.2838 0.321875H13.282ZM15.4241 19.1747C15.4253 18.8931 15.3707 18.614 15.2634 18.3535C15.1562 18.0931 14.9985 17.8564 14.7993 17.6573C14.6002 17.4581 14.3636 17.3003 14.1031 17.193C13.8427 17.0858 13.5636 17.0311 13.282 17.0322C13.0278 17.0322 12.7793 16.9569 12.568 16.8156C12.3566 16.6744 12.1919 16.4737 12.0946 16.2389C11.9974 16.004 11.9719 15.7456 12.0215 15.4963C12.0711 15.247 12.1935 15.018 12.3732 14.8383C12.553 14.6586 12.782 14.5362 13.0313 14.4866C13.2806 14.437 13.539 14.4624 13.7738 14.5597C14.0086 14.657 14.2094 14.8217 14.3506 15.033C14.4918 15.2444 14.5672 15.4929 14.5672 15.7471C14.566 16.0287 14.6206 16.3078 14.7278 16.5682C14.8351 16.8286 14.9928 17.0652 15.1919 17.2644C15.3911 17.4635 15.6277 17.6213 15.8881 17.7285C16.1485 17.8357 16.4276 17.8903 16.7093 17.8892C16.8783 17.8885 17.0458 17.9212 17.202 17.9856C17.3583 18.05 17.5003 18.1446 17.6198 18.2641C17.7393 18.3837 17.834 18.5257 17.8984 18.6819C17.9627 18.8382 17.9955 19.0057 17.9948 19.1747V26.4583C17.9955 26.6273 17.9626 26.7947 17.8983 26.9509C17.8339 27.1072 17.7392 27.2491 17.6197 27.3686C17.5002 27.4881 17.3582 27.5827 17.202 27.647C17.0457 27.7114 16.8782 27.7442 16.7093 27.7435C16.4276 27.7423 16.1485 27.7969 15.8881 27.9041C15.6277 28.0114 15.3911 28.1691 15.1919 28.3682C14.9928 28.5674 14.8351 28.804 14.7278 29.0644C14.6206 29.3248 14.566 29.6039 14.5672 29.8856C14.5672 30.1399 14.4919 30.3884 14.3507 30.5999C14.2094 30.8114 14.0087 30.9762 13.7737 31.0736C13.5388 31.1709 13.2803 31.1964 13.0309 31.1468C12.7815 31.0972 12.5524 30.9748 12.3726 30.795C12.1928 30.6151 12.0703 30.386 12.0207 30.1366C11.9711 29.8872 11.9966 29.6287 12.094 29.3938C12.1913 29.1589 12.3562 28.9581 12.5676 28.8169C12.7791 28.6756 13.0277 28.6003 13.282 28.6004C13.5639 28.6018 13.8432 28.5473 14.1039 28.4401C14.3646 28.3328 14.6014 28.175 14.8008 27.9758C15.0001 27.7765 15.158 27.5397 15.2653 27.279C15.3726 27.0184 15.4272 26.739 15.4259 26.4572L15.4241 19.1747Z" fill="#E4F40F"/>
<path d="M25.13 25.8114C26.4894 26.1636 27.2917 26.9875 27.6762 28.3157C27.7356 28.1877 27.7809 28.1123 27.8061 28.0311C28.2232 26.701 29.2865 25.8207 30.6726 25.8044C33.4226 25.7698 36.1741 25.7621 38.9241 25.8044C40.6398 25.8318 41.9172 27.2413 41.893 28.9477C41.87 30.6441 40.5377 31.9872 38.8179 31.9909C34.0733 32.003 29.3287 32.003 24.5841 31.9909C22.8491 31.9868 21.5572 30.7024 21.4982 28.96C21.4782 28.3632 21.4915 27.765 21.4915 27.1675C21.4915 19.2537 21.4899 11.3399 21.4867 3.4259C21.4867 2.44912 21.7042 1.57031 22.4349 0.888561C23.415 -0.0251332 24.5659 -0.234815 25.7924 0.262484C26.98 0.744938 27.592 1.69166 27.6963 2.96423C27.7178 3.22401 27.7052 3.48862 27.7052 3.751C27.7052 9.84329 27.6781 15.9356 27.723 22.0271C27.7371 23.7673 27.1804 25.1631 25.13 25.8114Z" fill="white"/>
</svg>
