<svg width="24" height="18" viewBox="0 0 24 18" fill="none" xmlns="http://www.w3.org/2000/svg">
<g id="short logotype">
<path id="Vector" d="M6.85467e-06 2.97119C-0.000408184 2.87608 0.0180281 2.78184 0.0542503 2.6939C0.0904725 2.60597 0.143762 2.52608 0.211041 2.45886C0.278319 2.39164 0.358251 2.33842 0.446219 2.30227C0.534187 2.26613 0.628446 2.24777 0.723549 2.24827C0.881978 2.24893 1.03897 2.21822 1.18547 2.1579C1.33197 2.09759 1.46508 2.00886 1.57711 1.89685C1.68915 1.78483 1.7779 1.65174 1.83824 1.50525C1.89858 1.35876 1.92932 1.20177 1.92869 1.04334C1.92865 0.900303 1.97103 0.760465 2.05047 0.641516C2.12991 0.522567 2.24285 0.42985 2.37499 0.375092C2.50713 0.320335 2.65254 0.305997 2.79284 0.333892C2.93313 0.361787 3.062 0.430663 3.16314 0.531806C3.26428 0.632949 3.33316 0.761817 3.36105 0.902109C3.38895 1.0424 3.37461 1.18781 3.31985 1.31996C3.2651 1.4521 3.17238 1.56503 3.05343 1.64448C2.93448 1.72392 2.79464 1.7663 2.6516 1.76626C2.49318 1.76559 2.3362 1.79631 2.18971 1.85663C2.04323 1.91695 1.91013 2.00567 1.79811 2.1177C1.68609 2.22972 1.59736 2.36281 1.53704 2.5093C1.47673 2.65579 1.44601 2.81277 1.44667 2.97119V7.0682C1.44598 7.22664 1.47668 7.38364 1.53698 7.53015C1.59729 7.67667 1.68601 7.80978 1.79804 7.92183C1.91006 8.03387 2.04316 8.12262 2.18967 8.18295C2.33617 8.24328 2.49317 8.274 2.6516 8.27334C2.79458 8.27334 2.93435 8.31574 3.05323 8.39517C3.17212 8.47461 3.26478 8.58751 3.31949 8.71961C3.37421 8.8517 3.38852 8.99706 3.36063 9.13729C3.33274 9.27752 3.26388 9.40633 3.16278 9.50743C3.06168 9.60853 2.93287 9.67739 2.79264 9.70528C2.65241 9.73317 2.50705 9.71886 2.37496 9.66414C2.24286 9.60943 2.12996 9.51677 2.05052 9.39788C1.97109 9.279 1.92869 9.13923 1.92869 8.99625C1.92935 8.83782 1.89863 8.68082 1.8383 8.53432C1.77797 8.38781 1.68922 8.25471 1.57718 8.14269C1.46513 8.03066 1.33202 7.94194 1.1855 7.88163C1.03899 7.82133 0.881986 7.79063 0.723549 7.79132C0.628489 7.79171 0.534292 7.77327 0.446396 7.73706C0.358499 7.70086 0.278643 7.6476 0.211434 7.58038C0.144225 7.51315 0.0909947 7.43328 0.0548141 7.34537C0.0186334 7.25746 0.000218875 7.16326 0.000633092 7.0682L6.85467e-06 2.97119ZM0.723549 14.2982C0.81862 14.2978 0.912826 14.3162 1.00073 14.3525C1.08864 14.3887 1.16851 14.4419 1.23574 14.5091C1.30296 14.5764 1.35621 14.6562 1.39242 14.7441C1.42862 14.832 1.44706 14.9262 1.44667 15.0213C1.44601 15.1797 1.47673 15.3367 1.53704 15.4832C1.59736 15.6297 1.68609 15.7628 1.79811 15.8748C1.91013 15.9868 2.04323 16.0756 2.18971 16.1359C2.3362 16.1962 2.49318 16.2269 2.6516 16.2262C2.79464 16.2262 2.93448 16.2686 3.05343 16.348C3.17238 16.4275 3.2651 16.5404 3.31985 16.6726C3.37461 16.8047 3.38895 16.9501 3.36105 17.0904C3.33316 17.2307 3.26428 17.3596 3.16314 17.4607C3.062 17.5618 2.93313 17.6307 2.79284 17.6586C2.65254 17.6865 2.50713 17.6722 2.37499 17.6174C2.24285 17.5627 2.12991 17.4699 2.05047 17.351C1.97103 17.232 1.92865 17.0922 1.92869 16.9492C1.92935 16.7907 1.89863 16.6337 1.8383 16.4872C1.77797 16.3407 1.68922 16.2076 1.57718 16.0956C1.46513 15.9836 1.33202 15.8949 1.1855 15.8345C1.03899 15.7742 0.881986 15.7435 0.723549 15.7442C0.53392 15.741 0.353147 15.6634 0.220183 15.5282C0.08722 15.3929 0.0127103 15.2109 0.0127103 15.0212C0.0127103 14.8316 0.08722 14.6495 0.220183 14.5143C0.353147 14.379 0.53392 14.3014 0.723549 14.2982ZM5.06105 0.320217C5.20407 0.320217 5.34388 0.362627 5.46279 0.442085C5.58171 0.521543 5.67439 0.634479 5.72913 0.766613C5.78386 0.898747 5.79818 1.04414 5.77028 1.18442C5.74237 1.32469 5.6735 1.45354 5.57237 1.55467C5.47124 1.6558 5.34239 1.72467 5.20212 1.75257C5.06185 1.78047 4.91645 1.76615 4.78432 1.71142C4.65218 1.65669 4.53925 1.56401 4.45979 1.44509C4.38033 1.32617 4.33792 1.18636 4.33792 1.04334C4.33751 0.948263 4.35593 0.854045 4.39212 0.766124C4.42832 0.678203 4.48156 0.598322 4.5488 0.531091C4.61603 0.46386 4.69591 0.410611 4.78383 0.374417C4.87175 0.338224 4.96597 0.319802 5.06105 0.320217ZM5.06105 8.27376C5.20402 8.2738 5.34376 8.31623 5.46262 8.39569C5.58148 8.47515 5.6741 8.58807 5.72878 8.72017C5.78347 8.85227 5.79775 8.99761 5.76984 9.13783C5.74192 9.27805 5.67305 9.40684 5.57194 9.50792C5.47083 9.609 5.34202 9.67784 5.20179 9.70571C5.06157 9.73359 4.91622 9.71926 4.78414 9.66454C4.65206 9.60982 4.53917 9.51716 4.45974 9.39828C4.38031 9.2794 4.33792 9.13964 4.33792 8.99667C4.33745 8.90157 4.35583 8.80731 4.392 8.71936C4.42818 8.6314 4.48142 8.55148 4.54866 8.48422C4.6159 8.41696 4.6958 8.3637 4.78375 8.3275C4.87169 8.2913 4.96594 8.2729 5.06105 8.27334V8.27376ZM5.06105 16.2273C5.20408 16.2273 5.34389 16.2697 5.46281 16.3492C5.58174 16.4286 5.67442 16.5416 5.72915 16.6737C5.78387 16.8059 5.79818 16.9513 5.77026 17.0916C5.74234 17.2318 5.67345 17.3607 5.5723 17.4618C5.47115 17.5629 5.34228 17.6318 5.20199 17.6597C5.06171 17.6876 4.9163 17.6732 4.78417 17.6184C4.65204 17.5637 4.53912 17.471 4.45969 17.352C4.38026 17.2331 4.33788 17.0932 4.33792 16.9502C4.33737 16.8551 4.35569 16.7607 4.39182 16.6727C4.42796 16.5847 4.48119 16.5047 4.54844 16.4374C4.61568 16.37 4.69561 16.3167 4.7836 16.2805C4.87159 16.2442 4.96589 16.2258 5.06105 16.2262V16.2273ZM7.47111 0.320217C7.56617 0.31983 7.66037 0.338271 7.74827 0.374477C7.83616 0.410683 7.91602 0.463937 7.98323 0.531165C8.05044 0.598393 8.10367 0.678265 8.13985 0.766172C8.17603 0.854079 8.19444 0.948281 8.19403 1.04334C8.19337 1.20176 8.22408 1.35874 8.2844 1.50523C8.34472 1.65172 8.43345 1.78481 8.54547 1.89683C8.65749 2.00885 8.79058 2.09758 8.93707 2.1579C9.08356 2.21822 9.24054 2.24893 9.39896 2.24827C9.54204 2.24802 9.68198 2.29023 9.80107 2.36954C9.92016 2.44886 10.013 2.56172 10.068 2.69385C10.1229 2.82597 10.1374 2.97142 10.1096 3.11178C10.0818 3.25214 10.013 3.3811 9.91191 3.48235C9.81081 3.5836 9.68194 3.65258 9.54162 3.68056C9.4013 3.70854 9.25583 3.69426 9.12363 3.63954C8.99143 3.58481 8.87843 3.49209 8.79894 3.37312C8.71945 3.25415 8.67705 3.11427 8.67709 2.97119C8.67775 2.81277 8.64704 2.65579 8.58672 2.5093C8.5264 2.36281 8.43767 2.22972 8.32565 2.1177C8.21363 2.00567 8.08054 1.91695 7.93405 1.85663C7.78756 1.79631 7.63058 1.76559 7.47216 1.76626C7.37618 1.76789 7.28083 1.75039 7.19168 1.71479C7.10253 1.67919 7.02136 1.62619 6.95291 1.55889C6.88445 1.49159 6.83009 1.41133 6.79297 1.3228C6.75586 1.23427 6.73675 1.13923 6.73675 1.04324C6.73675 0.947241 6.75586 0.852206 6.79297 0.763674C6.83009 0.675142 6.88445 0.594885 6.95291 0.527585C7.02136 0.460284 7.10253 0.407288 7.19168 0.371685C7.28083 0.336082 7.37618 0.318586 7.47216 0.320217H7.47111ZM8.67604 10.9249C8.67671 10.7665 8.64599 10.6095 8.58568 10.463C8.52536 10.3165 8.43664 10.1834 8.32462 10.0714C8.2126 9.95933 8.07951 9.87058 7.93302 9.81024C7.78653 9.7499 7.62954 9.71916 7.47111 9.7198C7.32814 9.7198 7.18837 9.6774 7.06948 9.59796C6.9506 9.51853 6.85794 9.40562 6.80323 9.27353C6.74851 9.14143 6.73419 8.99608 6.76209 8.85585C6.78998 8.71562 6.85883 8.5868 6.95994 8.4857C7.06104 8.3846 7.18985 8.31575 7.33008 8.28786C7.47031 8.25996 7.61567 8.27428 7.74776 8.32899C7.87986 8.38371 7.99276 8.47637 8.0722 8.59525C8.15163 8.71413 8.19403 8.8539 8.19403 8.99688C8.19337 9.1553 8.22408 9.31228 8.2844 9.45877C8.34472 9.60526 8.43345 9.73835 8.54547 9.85037C8.65749 9.96239 8.79058 10.0511 8.93707 10.1114C9.08356 10.1718 9.24054 10.2025 9.39896 10.2018C9.49403 10.2014 9.58824 10.2199 9.67615 10.2561C9.76405 10.2923 9.84392 10.3455 9.91115 10.4127C9.97837 10.48 10.0316 10.5598 10.0678 10.6477C10.104 10.7357 10.1225 10.8299 10.1221 10.9249V15.0219C10.1224 15.117 10.104 15.2112 10.0678 15.2991C10.0316 15.3869 9.9783 15.4668 9.91107 15.534C9.84385 15.6012 9.76399 15.6544 9.6761 15.6906C9.5882 15.7268 9.49401 15.7452 9.39896 15.7449C9.24054 15.7442 9.08356 15.7749 8.93707 15.8352C8.79058 15.8956 8.65749 15.9843 8.54547 16.0963C8.43345 16.2083 8.34472 16.3414 8.2844 16.4879C8.22408 16.6344 8.19337 16.7914 8.19403 16.9498C8.19407 17.0928 8.15169 17.2327 8.07225 17.3516C7.99281 17.4706 7.87987 17.5633 7.74773 17.618C7.61559 17.6728 7.47017 17.6871 7.32988 17.6592C7.18959 17.6313 7.06072 17.5625 6.95958 17.4613C6.85844 17.3602 6.78956 17.2313 6.76167 17.091C6.73377 16.9507 6.74811 16.8053 6.80287 16.6732C6.85762 16.541 6.95034 16.4281 7.06929 16.3487C7.18824 16.2692 7.32808 16.2268 7.47111 16.2269C7.62967 16.2276 7.7868 16.197 7.93344 16.1367C8.08008 16.0764 8.21331 15.9876 8.32545 15.8755C8.43758 15.7634 8.52639 15.6302 8.58675 15.4836C8.6471 15.337 8.67781 15.1799 8.67709 15.0213L8.67604 10.9249Z" fill="#0F1012"/>
<path id="Vector_2" d="M14.1355 14.5189C14.9002 14.717 15.3515 15.1805 15.5678 15.9276C15.6012 15.8556 15.6267 15.8132 15.6408 15.7675C15.8755 15.0193 16.4736 14.5241 17.2533 14.515C18.8001 14.4955 20.3478 14.4912 21.8947 14.515C22.8598 14.5304 23.5783 15.3232 23.5647 16.2831C23.5518 17.2373 22.8024 17.9928 21.835 17.9949C19.1662 18.0017 16.4973 18.0017 13.8284 17.9949C12.8525 17.9926 12.1258 17.2701 12.0927 16.29C12.0814 15.9543 12.0889 15.6178 12.0889 15.2817C12.0889 10.8302 12.088 6.37868 12.0862 1.92707C12.0862 1.37763 12.2085 0.883297 12.6195 0.499816C13.1709 -0.0141374 13.8182 -0.132083 14.5081 0.147647C15.1762 0.419028 15.5204 0.95156 15.5791 1.66738C15.5912 1.81351 15.5841 1.96235 15.5841 2.10994C15.5841 5.53685 15.5688 8.96376 15.5941 12.3903C15.602 13.3691 15.2889 14.1542 14.1355 14.5189Z" fill="#0F1012"/>
</g>
</svg>
