<svg width="45" height="34" viewBox="0 0 45 34" fill="none" xmlns="http://www.w3.org/2000/svg">
<path d="M1.29477e-05 5.34937C-0.000771014 5.16973 0.0340531 4.99171 0.102473 4.82561C0.170892 4.65951 0.271551 4.50861 0.398632 4.38164C0.525713 4.25467 0.676697 4.15414 0.842858 4.08586C1.00902 4.01759 1.18706 3.98292 1.3667 3.98386C1.66596 3.98511 1.9625 3.9271 2.23922 3.81317C2.51594 3.69924 2.76737 3.53164 2.97899 3.32006C3.19062 3.10847 3.35826 2.85707 3.47223 2.58037C3.58621 2.30367 3.64428 2.00714 3.64308 1.70788C3.643 1.4377 3.72305 1.17356 3.87311 0.948877C4.02317 0.724196 4.23649 0.549064 4.48609 0.445633C4.73569 0.342202 5.01036 0.315119 5.27536 0.36781C5.54035 0.420501 5.78377 0.550599 5.97482 0.741647C6.16587 0.932696 6.29596 1.17611 6.34866 1.44111C6.40135 1.7061 6.37426 1.98077 6.27083 2.23038C6.1674 2.47998 5.99227 2.6933 5.76759 2.84336C5.54291 2.99341 5.27877 3.07347 5.00858 3.07339C4.70935 3.07214 4.41283 3.13015 4.13613 3.24409C3.85943 3.35802 3.60803 3.52562 3.39643 3.73722C3.18484 3.94881 3.01724 4.20021 2.9033 4.47691C2.78937 4.75361 2.73136 5.05013 2.73261 5.34937V13.0882C2.7313 13.3874 2.78928 13.684 2.90319 13.9607C3.0171 14.2375 3.18469 14.4889 3.39629 14.7006C3.60789 14.9122 3.85931 15.0798 4.13604 15.1938C4.41276 15.3078 4.70931 15.3658 5.00858 15.3645C5.27866 15.3645 5.54266 15.4446 5.76722 15.5947C5.99178 15.7447 6.1668 15.958 6.27015 16.2075C6.3735 16.457 6.40054 16.7316 6.34786 16.9964C6.29517 17.2613 6.16511 17.5046 5.97414 17.6956C5.78318 17.8866 5.53986 18.0166 5.27498 18.0693C5.0101 18.122 4.73554 18.095 4.48603 17.9916C4.23651 17.8883 4.02325 17.7132 3.87321 17.4887C3.72316 17.2641 3.64308 17.0001 3.64308 16.73C3.64433 16.4308 3.5863 16.1342 3.47234 15.8575C3.35838 15.5808 3.19075 15.3294 2.97911 15.1178C2.76748 14.9062 2.51603 14.7386 2.23928 14.6247C1.96254 14.5107 1.66597 14.4528 1.3667 14.4541C1.18715 14.4548 1.00922 14.42 0.843192 14.3516C0.677166 14.2832 0.526325 14.1826 0.399375 14.0556C0.272425 13.9286 0.171879 13.7778 0.103538 13.6117C0.0351965 13.4457 0.000413431 13.2677 0.00119584 13.0882L1.29477e-05 5.34937ZM1.3667 26.7448C1.54628 26.7441 1.72423 26.7789 1.89028 26.8473C2.05632 26.9157 2.20719 27.0163 2.33417 27.1433C2.46115 27.2702 2.56174 27.4211 2.63012 27.5872C2.6985 27.7532 2.73334 27.9311 2.73261 28.1107C2.73136 28.41 2.78937 28.7065 2.9033 28.9832C3.01724 29.2599 3.18484 29.5113 3.39643 29.7229C3.60803 29.9345 3.85943 30.1021 4.13613 30.216C4.41283 30.3299 4.70935 30.388 5.00858 30.3867C5.27877 30.3866 5.54291 30.4667 5.76759 30.6167C5.99227 30.7668 6.1674 30.9801 6.27083 31.2297C6.37426 31.4793 6.40135 31.754 6.34866 32.019C6.29596 32.284 6.16587 32.5274 5.97482 32.7184C5.78377 32.9095 5.54035 33.0396 5.27536 33.0923C5.01036 33.145 4.73569 33.1179 4.48609 33.0145C4.23649 32.911 4.02317 32.7359 3.87311 32.5112C3.72305 32.2865 3.643 32.0224 3.64308 31.7522C3.64433 31.4529 3.5863 31.1564 3.47234 30.8797C3.35838 30.6029 3.19075 30.3515 2.97911 30.1399C2.76748 29.9283 2.51603 29.7607 2.23928 29.6468C1.96254 29.5329 1.66597 29.4749 1.3667 29.4762C1.00852 29.4701 0.667055 29.3236 0.415902 29.0681C0.164749 28.8127 0.0240083 28.4688 0.0240083 28.1105C0.0240083 27.7523 0.164749 27.4084 0.415902 27.1529C0.667055 26.8975 1.00852 26.7509 1.3667 26.7448ZM9.55975 0.341979C9.8299 0.341979 10.094 0.422087 10.3186 0.572175C10.5432 0.722262 10.7183 0.935586 10.8217 1.18517C10.9251 1.43476 10.9521 1.7094 10.8994 1.97436C10.8467 2.23931 10.7166 2.48269 10.5256 2.67372C10.3346 2.86474 10.0912 2.99483 9.82623 3.04754C9.56127 3.10024 9.28663 3.07319 9.03704 2.96981C8.78746 2.86643 8.57413 2.69136 8.42405 2.46674C8.27396 2.24211 8.19385 1.97803 8.19385 1.70788C8.19307 1.52829 8.22786 1.35032 8.29623 1.18425C8.3646 1.01818 8.46518 0.867288 8.59217 0.740296C8.71916 0.613304 8.87005 0.512723 9.03612 0.444357C9.20219 0.375992 9.38016 0.341196 9.55975 0.341979ZM9.55975 15.3653C9.82981 15.3654 10.0938 15.4456 10.3183 15.5956C10.5428 15.7457 10.7177 15.959 10.821 16.2086C10.9243 16.4581 10.9513 16.7326 10.8986 16.9975C10.8458 17.2623 10.7158 17.5056 10.5248 17.6965C10.3338 17.8875 10.0905 18.0175 9.82561 18.0701C9.56074 18.1228 9.2862 18.0957 9.03671 17.9924C8.78722 17.889 8.57398 17.714 8.42395 17.4894C8.27393 17.2649 8.19385 17.0009 8.19385 16.7308C8.19296 16.5512 8.22768 16.3732 8.29601 16.207C8.36433 16.0409 8.4649 15.8899 8.59191 15.7629C8.71892 15.6358 8.86984 15.5352 9.03597 15.4668C9.20209 15.3985 9.38011 15.3637 9.55975 15.3645V15.3653ZM9.55975 30.3887C9.82992 30.3887 10.094 30.4688 10.3186 30.6189C10.5433 30.769 10.7184 30.9824 10.8217 31.232C10.9251 31.4816 10.9521 31.7562 10.8994 32.0212C10.8466 32.2862 10.7165 32.5295 10.5255 32.7206C10.3344 32.9116 10.091 33.0416 9.82599 33.0943C9.561 33.1469 9.28635 33.1198 9.03677 33.0164C8.78719 32.913 8.57389 32.7378 8.42385 32.5131C8.27382 32.2885 8.19377 32.0244 8.19385 31.7542C8.19281 31.5744 8.22741 31.3963 8.29567 31.23C8.36392 31.0637 8.46447 30.9126 8.59149 30.7855C8.71851 30.6583 8.86949 30.5576 9.03569 30.4891C9.20189 30.4207 9.38001 30.3859 9.55975 30.3867V30.3887ZM14.1121 0.341979C14.2917 0.341248 14.4696 0.376081 14.6356 0.44447C14.8016 0.51286 14.9525 0.61345 15.0794 0.740437C15.2064 0.867423 15.3069 1.01829 15.3753 1.18434C15.4436 1.35039 15.4784 1.52832 15.4776 1.70788C15.4764 2.00712 15.5344 2.30364 15.6483 2.58034C15.7622 2.85704 15.9298 3.10844 16.1414 3.32003C16.353 3.53163 16.6044 3.69922 16.8811 3.81316C17.1578 3.9271 17.4544 3.98511 17.7536 3.98386C18.0239 3.98339 18.2882 4.06311 18.5131 4.21293C18.7381 4.36275 18.9135 4.57593 19.0172 4.8255C19.121 5.07507 19.1483 5.3498 19.0959 5.61493C19.0434 5.88005 18.9135 6.12365 18.7225 6.3149C18.5315 6.50615 18.2881 6.63644 18.0231 6.68929C17.758 6.74214 17.4832 6.71517 17.2335 6.6118C16.9838 6.50843 16.7704 6.3333 16.6202 6.10857C16.4701 5.88385 16.39 5.61963 16.3901 5.34937C16.3913 5.05013 16.3333 4.75361 16.2194 4.47691C16.1054 4.20021 15.9378 3.94881 15.7262 3.73722C15.5146 3.52562 15.2632 3.35802 14.9865 3.24409C14.7098 3.13015 14.4133 3.07214 14.1141 3.07339C13.9328 3.07647 13.7527 3.04342 13.5843 2.97617C13.4159 2.90892 13.2626 2.80882 13.1333 2.68169C13.004 2.55457 12.9013 2.40297 12.8312 2.23575C12.7611 2.06852 12.725 1.88901 12.725 1.70768C12.725 1.52636 12.7611 1.34685 12.8312 1.17962C12.9013 1.01239 13.004 0.860797 13.1333 0.733674C13.2626 0.606551 13.4159 0.506446 13.5843 0.439196C13.7527 0.371946 13.9328 0.338898 14.1141 0.341979H14.1121ZM16.3881 20.3731C16.3893 20.0739 16.3313 19.7773 16.2174 19.5006C16.1035 19.2239 15.9359 18.9724 15.7243 18.7608C15.5127 18.5492 15.2613 18.3816 14.9846 18.2676C14.7079 18.1536 14.4114 18.0955 14.1121 18.0967C13.842 18.0967 13.578 18.0167 13.3535 17.8666C13.1289 17.7166 12.9539 17.5033 12.8505 17.2538C12.7472 17.0043 12.7201 16.7297 12.7728 16.4648C12.8255 16.2 12.9556 15.9566 13.1465 15.7657C13.3375 15.5747 13.5808 15.4446 13.8457 15.392C14.1106 15.3393 14.3851 15.3663 14.6347 15.4697C14.8842 15.573 15.0974 15.748 15.2475 15.9726C15.3975 16.1972 15.4776 16.4612 15.4776 16.7312C15.4764 17.0305 15.5344 17.327 15.6483 17.6037C15.7622 17.8804 15.9298 18.1318 16.1414 18.3434C16.353 18.555 16.6044 18.7226 16.8811 18.8365C17.1578 18.9504 17.4544 19.0085 17.7536 19.0072C17.9332 19.0065 18.1111 19.0413 18.2772 19.1097C18.4432 19.1781 18.5941 19.2787 18.7211 19.4056C18.848 19.5326 18.9486 19.6835 19.017 19.8495C19.0854 20.0156 19.1202 20.1935 19.1195 20.3731V28.1119C19.1202 28.2915 19.0853 28.4694 19.0169 28.6354C18.9485 28.8014 18.8479 28.9522 18.7209 29.0791C18.5939 29.2061 18.4431 29.3066 18.2771 29.375C18.111 29.4433 17.9331 29.4781 17.7536 29.4774C17.4544 29.4762 17.1578 29.5342 16.8811 29.6481C16.6044 29.7621 16.353 29.9296 16.1414 30.1412C15.9298 30.3528 15.7622 30.6042 15.6483 30.8809C15.5344 31.1576 15.4764 31.4542 15.4776 31.7534C15.4777 32.0236 15.3976 32.2877 15.2476 32.5124C15.0975 32.7371 14.8842 32.9122 14.6346 33.0156C14.385 33.1191 14.1103 33.1462 13.8453 33.0935C13.5803 33.0408 13.3369 32.9107 13.1459 32.7196C12.9548 32.5286 12.8247 32.2852 12.772 32.0202C12.7193 31.7552 12.7464 31.4805 12.8499 31.2309C12.9533 30.9813 13.1284 30.768 13.3531 30.6179C13.5778 30.4679 13.8419 30.3878 14.1121 30.3879C14.4116 30.3893 14.7084 30.3315 14.9854 30.2175C15.2624 30.1036 15.514 29.936 15.7258 29.7242C15.9376 29.5125 16.1054 29.2609 16.2194 28.9839C16.3334 28.707 16.3914 28.4102 16.3901 28.1107L16.3881 20.3731Z" fill="#0F1012"/>
<path d="M26.7006 27.4246C28.1449 27.7988 28.9974 28.6742 29.406 30.0854C29.469 29.9494 29.5172 29.8694 29.544 29.783C29.9872 28.3698 31.1169 27.4345 32.5896 27.4171C35.5115 27.3805 38.4349 27.3722 41.3568 27.4171C43.1797 27.4463 44.537 28.9439 44.5113 30.757C44.4869 32.5594 43.0713 33.9864 41.244 33.9903C36.2029 34.0032 31.1617 34.0032 26.1205 33.9903C24.2771 33.986 22.9045 32.6213 22.8418 30.77C22.8205 30.1359 22.8347 29.5003 22.8347 28.8654C22.8347 20.4571 22.833 12.0486 22.8296 3.64002C22.8296 2.60218 23.0607 1.66845 23.8371 0.944096C24.8784 -0.0267041 26.1012 -0.249491 27.4044 0.278889C28.6662 0.791497 29.3164 1.79739 29.4272 3.14949C29.4501 3.42551 29.4367 3.70666 29.4367 3.98544C29.4367 10.4585 29.4079 16.9315 29.4556 23.4038C29.4706 25.2527 28.8791 26.7358 26.7006 27.4246Z" fill="#0F1012"/>
</svg>
