<svg width="34" height="34" viewBox="0 0 34 34" fill="none" xmlns="http://www.w3.org/2000/svg">
<g id="menu-close">
<g id="Vector">
<path d="M11.5104 20.2886C12.0962 19.7028 13.0459 19.7028 13.6317 20.2886C14.2175 20.8744 14.2175 21.8241 13.6317 22.4099L6.56066 29.481C5.97487 30.0668 5.02513 30.0668 4.43934 29.481C3.85355 28.8952 3.85355 27.9454 4.43934 27.3596L11.5104 20.2886Z" fill="white"/>
<path d="M26.3596 5.43934C26.9454 4.85355 27.8952 4.85355 28.481 5.43934C29.0668 6.02513 29.0668 6.97487 28.481 7.56066L21.4099 14.6317C20.8241 15.2175 19.8744 15.2175 19.2886 14.6317C18.7028 14.0459 18.7028 13.0962 19.2886 12.5104L26.3596 5.43934Z" fill="white"/>
<path d="M19.2886 22.4099C18.7028 21.8241 18.7028 20.8744 19.2886 20.2886C19.8744 19.7028 20.8241 19.7028 21.4099 20.2886L28.481 27.3596C29.0668 27.9454 29.0668 28.8952 28.481 29.481C27.8952 30.0668 26.9454 30.0668 26.3596 29.481L19.2886 22.4099Z" fill="white"/>
<path d="M4.43934 7.56066C3.85355 6.97487 3.85355 6.02513 4.43934 5.43934C5.02513 4.85355 5.97487 4.85355 6.56066 5.43934L13.6317 12.5104C14.2175 13.0962 14.2175 14.0459 13.6317 14.6317C13.0459 15.2175 12.0962 15.2175 11.5104 14.6317L4.43934 7.56066Z" fill="white"/>
</g>
</g>
</svg>
