<svg width="30" height="30" viewBox="0 0 30 30" fill="none" xmlns="http://www.w3.org/2000/svg">
<path d="M11.6075 16.7721C11.9004 16.4792 12.3753 16.4792 12.6682 16.7721C12.9611 17.065 12.9611 17.5399 12.6682 17.8327L7.78082 22.7201C7.48793 23.013 7.01305 23.013 6.72016 22.7201C6.42726 22.4272 6.42727 21.9523 6.72016 21.6594L11.6075 16.7721Z" fill="white"/>
<path d="M21.2158 7.16376C21.5087 6.87087 21.9836 6.87087 22.2765 7.16376C22.5694 7.45665 22.5694 7.93153 22.2765 8.22442L17.3891 13.1118C17.0963 13.4047 16.6214 13.4047 16.3285 13.1118C16.0356 12.8189 16.0356 12.344 16.3285 12.0511L21.2158 7.16376Z" fill="white"/>
<path d="M16.5053 17.7721C16.2124 17.4792 16.2124 17.0043 16.5053 16.7114C16.7982 16.4185 17.273 16.4185 17.5659 16.7114L22.4533 21.5988C22.7462 21.8917 22.7462 22.3665 22.4533 22.6594C22.1604 22.9523 21.6855 22.9523 21.3926 22.6594L16.5053 17.7721Z" fill="white"/>
<path d="M6.89693 8.16375C6.60404 7.87086 6.60404 7.39599 6.89693 7.10309C7.18983 6.8102 7.6647 6.8102 7.95759 7.10309L12.8449 11.9904C13.1378 12.2833 13.1378 12.7582 12.8449 13.0511C12.5521 13.344 12.0772 13.344 11.7843 13.0511L6.89693 8.16375Z" fill="white"/>
</svg>
