<svg width="30" height="30" viewBox="0 0 30 30" fill="none" xmlns="http://www.w3.org/2000/svg">
<path fill-rule="evenodd" clip-rule="evenodd" d="M18.5 8C18.5 7.72386 18.2761 7.5 18 7.5H8C7.72386 7.5 7.5 7.72386 7.5 8L7.5 18C7.5 18.2761 7.72386 18.5 8 18.5H18C18.2761 18.5 18.5 18.2761 18.5 18V8ZM7.5 6C6.67157 6 6 6.67157 6 7.5V18.5C6 19.3284 6.67157 20 7.5 20H18.5C19.3284 20 20 19.3284 20 18.5V7.5C20 6.67157 19.3284 6 18.5 6H7.5Z" fill="white"/>
<path fill-rule="evenodd" clip-rule="evenodd" d="M23 9.25C23.4142 9.25 23.75 9.58579 23.75 10V22C23.75 22.9665 22.9665 23.75 22 23.75H11C10.5858 23.75 10.25 23.4142 10.25 23C10.25 22.5858 10.5858 22.25 11 22.25H22C22.1381 22.25 22.25 22.1381 22.25 22V10C22.25 9.58579 22.5858 9.25 23 9.25Z" fill="white"/>
</svg>
