<svg width="30" height="30" viewBox="0 0 30 30" fill="none" xmlns="http://www.w3.org/2000/svg">
<path fill-rule="evenodd" clip-rule="evenodd" d="M15 6.75C15.4142 6.75 15.75 7.08579 15.75 7.5V15C15.75 15.4142 15.4142 15.75 15 15.75C14.5858 15.75 14.25 15.4142 14.25 15V7.5C14.25 7.08579 14.5858 6.75 15 6.75ZM6.91435 12.2815C7.17311 11.958 7.64507 11.9056 7.96852 12.1643L15 17.7895L22.0315 12.1643C22.3549 11.9056 22.8269 11.958 23.0857 12.2815C23.3444 12.6049 23.292 13.0769 22.9685 13.3357L15.4685 19.3357C15.1946 19.5548 14.8054 19.5548 14.5315 19.3357L7.03148 13.3357C6.70803 13.0769 6.65559 12.6049 6.91435 12.2815ZM5.25 22.5C5.25 22.0858 5.58579 21.75 6 21.75H24C24.4142 21.75 24.75 22.0858 24.75 22.5C24.75 22.9142 24.4142 23.25 24 23.25H6C5.58579 23.25 5.25 22.9142 5.25 22.5Z" fill="white"/>
</svg>
