<svg width="16" height="16" viewBox="0 0 16 16" fill="none" xmlns="http://www.w3.org/2000/svg">
<g id="Vector">
<path d="M14.6285 0.663251C14.8238 0.467989 15.1404 0.467989 15.3357 0.663251C15.5309 0.858513 15.5309 1.1751 15.3357 1.37036L10.3859 6.32011C10.1906 6.51537 9.87406 6.51537 9.6788 6.32011C9.48354 6.12484 9.48354 5.80826 9.6788 5.613L14.6285 0.663251Z" fill="#0F1012"/>
<path d="M5.43616 9.85564C5.63142 9.66038 5.948 9.66038 6.14327 9.85564C6.33853 10.0509 6.33853 10.3675 6.14327 10.5627L1.19352 15.5125C0.998257 15.7078 0.681675 15.7078 0.486412 15.5125C0.29115 15.3172 0.29115 15.0006 0.486412 14.8054L5.43616 9.85564Z" fill="#0F1012"/>
<path d="M15.5124 14.6286C15.7077 14.8239 15.7077 15.1405 15.5124 15.3357C15.3172 15.531 15.0006 15.531 14.8053 15.3357L9.85558 10.386C9.66032 10.1907 9.66032 9.87412 9.85558 9.67886C10.0508 9.4836 10.3674 9.4836 10.5627 9.67886L15.5124 14.6286Z" fill="#0F1012"/>
<path d="M6.32004 5.43622C6.51531 5.63148 6.51531 5.94807 6.32004 6.14333C6.12478 6.33859 5.8082 6.33859 5.61294 6.14333L0.66319 1.19358C0.467928 0.998318 0.467928 0.681736 0.66319 0.486473C0.858452 0.291211 1.17503 0.291211 1.3703 0.486473L6.32004 5.43622Z" fill="#0F1012"/>
</g>
</svg>
