<svg width="11" height="11" viewBox="0 0 11 11" fill="none" xmlns="http://www.w3.org/2000/svg">
<g id="popup-close">
<path id="Union" fill-rule="evenodd" clip-rule="evenodd" d="M10.235 1.11859L7.00388 4.34973C6.81783 4.53577 6.5162 4.53577 6.33015 4.34973C6.14411 4.16369 6.14411 3.86205 6.33015 3.67601L9.56129 0.444872C9.74733 0.258829 10.049 0.258829 10.235 0.444872C10.4211 0.630915 10.4211 0.932551 10.235 1.11859ZM4.23433 7.11927L1.0032 10.3504C0.817153 10.5365 0.515517 10.5365 0.329474 10.3504C0.143431 10.1644 0.143431 9.86273 0.329474 9.67669L3.56061 6.44555C3.74665 6.25951 4.04829 6.25951 4.23433 6.44555C4.42037 6.63159 4.42037 6.93323 4.23433 7.11927ZM9.67669 10.235L6.44555 7.00388C6.25951 6.81783 6.25951 6.5162 6.44555 6.33015C6.63159 6.14411 6.93323 6.14411 7.11927 6.33015L10.3504 9.56129C10.5365 9.74733 10.5365 10.049 10.3504 10.235C10.1644 10.4211 9.86273 10.4211 9.67669 10.235ZM3.67601 4.23433L0.444872 1.0032C0.258829 0.817153 0.258829 0.515517 0.444872 0.329474C0.630915 0.143431 0.932551 0.143431 1.11859 0.329474L4.34973 3.56061C4.53577 3.74665 4.53577 4.04829 4.34973 4.23433C4.16369 4.42037 3.86205 4.42037 3.67601 4.23433Z" fill="#717171"/>
</g>
</svg>
