<svg width="258" height="126" viewBox="0 0 86 42" fill="none" xmlns="http://www.w3.org/2000/svg"><g id="Group 92"><g id="Subtract"><mask id="path-1-inside-1_1259_6586" fill="white"><path fill-rule="evenodd" clip-rule="evenodd" d="M0 0L34.725 0C36.3329 3.06034 39.436 5.13333 43.0001 5.13333C46.5643 5.13333 49.6673 3.06034 51.2752 0L86 0V42L51.1485 42C49.5077 39.0683 46.4728 37.1003 43.0001 37.1003C39.5274 37.1003 36.4925 39.0683 34.8517 42H0L0 0Z" /></mask><path fill-rule="evenodd" clip-rule="evenodd" d="M0 0L34.725 0C36.3329 3.06034 39.436 5.13333 43.0001 5.13333C46.5643 5.13333 49.6673 3.06034 51.2752 0L86 0V42L51.1485 42C49.5077 39.0683 46.4728 37.1003 43.0001 37.1003C39.5274 37.1003 36.4925 39.0683 34.8517 42H0L0 0Z" fill="#B3B3B3" /><path d="M34.725 0L35.6102 -0.465123L35.3292 -1H34.725V0ZM0 0L0 -1H-1V0L0 0ZM51.2752 0V-1H50.671L50.39 -0.465123L51.2752 0ZM86 0L87 0V-1H86V0ZM86 42V43H87V42H86ZM51.1485 42L50.2759 42.4884L50.5622 43H51.1485V42ZM34.8517 42V43H35.438L35.7243 42.4884L34.8517 42ZM0 42H-1L-1 43H0L0 42ZM34.725 -1L0 -1L0 1L34.725 1V-1ZM43.0001 4.13333C39.8397 4.13333 37.0609 2.29588 35.6102 -0.465123L33.8397 0.465123C35.605 3.8248 39.0322 6.13333 43.0001 6.13333V4.13333ZM50.39 -0.465123C48.9393 2.29588 46.1605 4.13333 43.0001 4.13333V6.13333C46.968 6.13333 50.3952 3.8248 52.1605 0.465123L50.39 -0.465123ZM86 -1L51.2752 -1V1L86 1V-1ZM87 42V0L85 0V42H87ZM51.1485 43L86 43V41L51.1485 41V43ZM43.0001 38.1003C46.0797 38.1003 48.7962 39.8445 50.2759 42.4884L52.0211 41.5116C50.2192 38.292 46.8659 36.1003 43.0001 36.1003V38.1003ZM35.7243 42.4884C37.204 39.8445 39.9205 38.1003 43.0001 38.1003V36.1003C39.1343 36.1003 35.781 38.292 33.9791 41.5116L35.7243 42.4884ZM0 43H34.8517V41H0L0 43ZM-1 0L-1 42H1L1 0L-1 0Z" fill="#B3B3B3" mask="url(#path-1-inside-1_1259_6586)" /></g></g></svg>