<svg width="86" height="42" viewBox="0 0 86 42" fill="none" xmlns="http://www.w3.org/2000/svg">
<g style="mix-blend-mode:multiply">
<path d="M0 0H34.725C36.3329 3.06034 39.436 5.13333 43.0001 5.13333C46.5643 5.13333 49.6673 3.06034 51.2752 0H86V42H51.1485C49.5077 39.0683 46.4728 37.1003 43.0001 37.1003C39.5274 37.1003 36.4925 39.0683 34.8517 42H0V0Z" fill="white"/>
<path d="M0 0H34.725C36.3329 3.06034 39.436 5.13333 43.0001 5.13333C46.5643 5.13333 49.6673 3.06034 51.2752 0H86V42H51.1485C49.5077 39.0683 46.4728 37.1003 43.0001 37.1003C39.5274 37.1003 36.4925 39.0683 34.8517 42H0V0Z" fill="#B3B3B3" style="mix-blend-mode:multiply"/>
</g>
</svg>
